<?xml version="1.0" encoding="UTF-8"?>
<svg id="hammer" xmlns="http://www.w3.org/2000/svg" width="79.889627" height="75" xmlns:xlink="http://www.w3.org/1999/xlink" version="1.1" viewBox="0 0 79.889627 75">
  <!-- Generator: Adobe Illustrator 29.6.1, SVG Export Plug-In . SVG Version: 2.1.1 Build 9)  -->
  <defs>
    <linearGradient id="linear-gradient" x1="-226.0335149" y1="756.8517543" x2="-213.7011096" y2="756.8517543" gradientTransform="translate(439.7994244 746.1096184) rotate(134.9990003)" gradientUnits="userSpaceOnUse">
      <stop offset=".052" stop-color="#dadee6"/>
      <stop offset=".191" stop-color="#303133"/>
      <stop offset=".405" stop-color="#303133"/>
      <stop offset=".909" stop-color="#dadee6"/>
    </linearGradient>
    <linearGradient id="linear-gradient1" x1="33.3508442" y1="41.3003186" x2="38.7749151" y2="41.3003186" gradientTransform="translate(79.8896273 80.0394186) rotate(-180)" gradientUnits="userSpaceOnUse">
      <stop offset="0" stop-color="#2e2e2e"/>
      <stop offset="1" stop-color="#141414"/>
    </linearGradient>
    <linearGradient id="linear-gradient2" x1="-214.0630509" y1="773.1710952" x2="-242.3432041" y2="736.6008303" gradientTransform="translate(439.7994244 746.1096184) rotate(134.9990003)" gradientUnits="userSpaceOnUse">
      <stop offset="0" stop-color="#333"/>
      <stop offset=".03" stop-color="#4d4d4d"/>
      <stop offset=".079" stop-color="#1a1a1a"/>
      <stop offset=".307" stop-color="#262626"/>
      <stop offset=".518" stop-color="#1a1a1a"/>
      <stop offset=".673" stop-color="#1a1a1a"/>
      <stop offset=".705" stop-color="#202026"/>
      <stop offset=".735" stop-color="#404040"/>
      <stop offset=".7710001" stop-color="#242426"/>
      <stop offset=".8" stop-color="#1a1a1a"/>
      <stop offset="1" stop-color="#1a1a1a"/>
    </linearGradient>
    <linearGradient id="linear-gradient3" x1="-214.3062776" y1="756.8401834" x2="-216.4222609" y2="756.8401834" gradientTransform="translate(439.7994244 746.1096184) rotate(134.9990003)" gradientUnits="userSpaceOnUse">
      <stop offset=".218" stop-color="#4d4d4d"/>
      <stop offset="1" stop-color="#fff" stop-opacity="0"/>
    </linearGradient>
    <linearGradient id="linear-gradient4" x1="-224.633474" y1="778.9352095" x2="-223.8689052" y2="778.2374246" gradientTransform="translate(439.7994244 746.1096184) rotate(134.9990003)" gradientUnits="userSpaceOnUse">
      <stop offset="0" stop-color="#999"/>
      <stop offset="1" stop-color="#fff" stop-opacity="0"/>
    </linearGradient>
    <linearGradient id="linear-gradient5" x1="68.3397177" y1="50.9701822" x2="72.367433" y2="47.337234" gradientTransform="translate(79.8896273 80.0394186) rotate(-180)" gradientUnits="userSpaceOnUse">
      <stop offset="0" stop-color="#1a1a1a"/>
      <stop offset=".448" stop-color="#333"/>
      <stop offset=".552" stop-color="#404040"/>
      <stop offset="1" stop-color="#4d4d4d"/>
    </linearGradient>
    <linearGradient id="linear-gradient6" x1="-197.3318631" y1="816.8420291" x2="-197.3318631" y2="803.3528514" gradientTransform="translate(439.7994244 746.1096184) rotate(134.9990003)" gradientUnits="userSpaceOnUse">
      <stop offset=".073" stop-color="#45474d"/>
      <stop offset=".17" stop-color="#b4b4b4"/>
      <stop offset=".248" stop-color="#fffffe"/>
      <stop offset=".455" stop-color="#f2f2f3"/>
      <stop offset=".527" stop-color="#c5c5c5"/>
      <stop offset=".576" stop-color="#aeaeae"/>
      <stop offset=".606" stop-color="gray"/>
      <stop offset=".752" stop-color="#4d4d4d"/>
      <stop offset=".83" stop-color="#9a9ca6"/>
      <stop offset=".855" stop-color="#ccc"/>
      <stop offset=".921" stop-color="#d9d9d9"/>
      <stop offset="1" stop-color="#5f5f5f"/>
    </linearGradient>
    <linearGradient id="linear-gradient7" x1="-204.5118201" y1="815.1190967" x2="-204.5118201" y2="804.4032745" gradientTransform="translate(439.7994244 746.1096184) rotate(134.9990003)" gradientUnits="userSpaceOnUse">
      <stop offset="0" stop-color="#999"/>
      <stop offset="1" stop-color="#4d4d4d"/>
    </linearGradient>
    <linearGradient id="linear-gradient8" x1="-204.5117667" y1="815.7068782" x2="-204.5117667" y2="803.9073968" gradientTransform="translate(439.7994244 746.1096184) rotate(134.9990003)" gradientUnits="userSpaceOnUse">
      <stop offset=".121" stop-color="#c5c5c5"/>
      <stop offset=".2" stop-color="#eaeaea"/>
      <stop offset=".455" stop-color="#f3f3f3"/>
      <stop offset=".527" stop-color="#c5c5c5"/>
      <stop offset=".576" stop-color="#aeaeae"/>
      <stop offset=".606" stop-color="#999"/>
      <stop offset=".83" stop-color="#d9d9d9"/>
      <stop offset=".855" stop-color="#ccc"/>
      <stop offset=".921" stop-color="#d9d9d9"/>
      <stop offset="1" stop-color="#4f4f5f"/>
    </linearGradient>
    <radialGradient id="radial-gradient" cx="-203.2066255" cy="881.4322197" fx="-203.2066255" fy="881.4322197" r="5.096241" gradientTransform="translate(335.7910065 635.6519148) rotate(134.523948) scale(.9999896 .7460984) skewX(.0297077)" gradientUnits="userSpaceOnUse">
      <stop offset=".364" stop-color="#fff"/>
      <stop offset=".697" stop-color="#ccc"/>
      <stop offset="1" stop-color="gray"/>
    </radialGradient>
    <linearGradient id="linear-gradient9" x1="-209.5689126" y1="828.8288508" x2="-206.7198797" y2="828.8288508" gradientTransform="translate(429.6825692 735.9928321) rotate(134.9990003) scale(1 .96)" gradientUnits="userSpaceOnUse">
      <stop offset=".188" stop-color="gray"/>
      <stop offset="1" stop-color="#fff"/>
    </linearGradient>
    <radialGradient id="radial-gradient1" cx="-193.9238141" cy="618.0414167" fx="-193.9238141" fy="618.0414167" r="7.699832" gradientTransform="translate(-21.3785157 351.1080361) rotate(149.067001) scale(.9999895 .428858)" gradientUnits="userSpaceOnUse">
      <stop offset=".63" stop-color="#1a1a1a"/>
      <stop offset=".848" stop-color="gray" stop-opacity=".8"/>
      <stop offset="1" stop-color="gray" stop-opacity="0"/>
    </radialGradient>
    <radialGradient id="radial-gradient2" cx="-223.8617655" cy="1834.4691246" fx="-223.8617655" fy="1834.4691246" r="12.0491363" gradientTransform="translate(142.7586591 428.4680312) rotate(130.1390242) scale(.9996828 .1927829) skewX(.0792021)" gradientUnits="userSpaceOnUse">
      <stop offset=".103" stop-color="#fff"/>
      <stop offset=".545" stop-color="#fff" stop-opacity=".5"/>
      <stop offset="1" stop-color="#000" stop-opacity="0"/>
    </radialGradient>
    <radialGradient id="radial-gradient3" cx="-209.5091055" cy="1148.7114273" fx="-209.5091055" fy="1148.7114273" r="10.1938868" gradientTransform="translate(177.6182452 475.3014323) rotate(133.5648257) scale(.999993 .3692894)" gradientUnits="userSpaceOnUse">
      <stop offset="0" stop-color="#0d141a" stop-opacity=".5"/>
      <stop offset=".279" stop-color="#0d141a" stop-opacity=".933"/>
      <stop offset=".679" stop-color="#0d141a"/>
      <stop offset=".848" stop-color="#737b80" stop-opacity=".8"/>
      <stop offset="1" stop-color="gray" stop-opacity="0"/>
    </radialGradient>
    <linearGradient id="linear-gradient10" x1="-194.285848" y1="816.8429648" x2="-194.285848" y2="803.3525383" gradientTransform="translate(439.7994244 746.1096184) rotate(134.9990003)" gradientUnits="userSpaceOnUse">
      <stop offset=".073" stop-color="#353946"/>
      <stop offset=".176" stop-color="#777b80"/>
      <stop offset=".606" stop-color="#3e3f4d"/>
      <stop offset=".758" stop-color="#494b5c"/>
      <stop offset=".848" stop-color="#626980"/>
      <stop offset="1" stop-color="#4f4f5f"/>
    </linearGradient>
    <linearGradient id="linear-gradient11" x1="-223.3759965" y1="787.7774259" x2="-216.435828" y2="787.7774259" gradientTransform="translate(439.7994244 746.1096184) rotate(134.9990003)" gradientUnits="userSpaceOnUse">
      <stop offset="0" stop-color="#e4e4e6"/>
      <stop offset=".097" stop-color="#666"/>
      <stop offset=".127" stop-color="gray"/>
      <stop offset=".2" stop-color="#999"/>
      <stop offset=".824" stop-color="#999"/>
      <stop offset=".848" stop-color="gray"/>
      <stop offset="1" stop-color="#313133"/>
    </linearGradient>
    <linearGradient id="linear-gradient12" x1="-219.9059123" y1="796.1137882" x2="-219.9059123" y2="787.3292042" gradientTransform="translate(439.7994244 746.1096184) rotate(134.9990003)" gradientUnits="userSpaceOnUse">
      <stop offset="0" stop-color="#fff" stop-opacity=".8"/>
      <stop offset="1" stop-color="#fbfeff" stop-opacity="0"/>
    </linearGradient>
    <linearGradient id="linear-gradient13" x1="-219.9059123" y1="795.6043357" x2="-219.9059123" y2="793.0586336" gradientTransform="translate(439.7994244 746.1096184) rotate(134.9990003)" gradientUnits="userSpaceOnUse">
      <stop offset="0" stop-color="#000"/>
      <stop offset=".448" stop-color="#fff" stop-opacity="0"/>
    </linearGradient>
    <linearGradient id="linear-gradient14" x1="1010.0386806" y1="1521.9238029" x2="1010.0386806" y2="1537.796413" gradientTransform="translate(1834.2596295 401.147216) rotate(134.9990003)" gradientUnits="userSpaceOnUse">
      <stop offset="0" stop-color="#fff" stop-opacity="0"/>
      <stop offset=".788" stop-color="#fff"/>
      <stop offset=".891" stop-color="#4d4d4d"/>
    </linearGradient>
    <linearGradient id="linear-gradient15" x1="-224.7184036" y1="788.1534316" x2="-223.0610057" y2="788.3063459" gradientTransform="translate(439.7994244 746.1096184) rotate(134.9990003)" gradientUnits="userSpaceOnUse">
      <stop offset="0" stop-color="#262626"/>
      <stop offset="1" stop-color="#3c3d40"/>
    </linearGradient>
    <linearGradient id="linear-gradient16" x1="-249.2846147" y1="809.9857497" x2="-210.549506" y2="809.9857497" gradientTransform="translate(439.7994244 746.1096184) rotate(134.9990003)" gradientUnits="userSpaceOnUse">
      <stop offset=".17" stop-color="#999"/>
      <stop offset=".721" stop-color="#333"/>
      <stop offset="1" stop-color="#333"/>
    </linearGradient>
    <linearGradient id="linear-gradient17" x1="-241.5951571" y1="812.4020188" x2="-246.4445535" y2="801.3644529" gradientTransform="translate(439.7994244 746.1096184) rotate(134.9990003)" gradientUnits="userSpaceOnUse">
      <stop offset="0" stop-color="#000" stop-opacity="0"/>
      <stop offset=".236" stop-color="#fff" stop-opacity=".5"/>
      <stop offset=".77" stop-color="#fff"/>
      <stop offset="1" stop-color="#fff" stop-opacity="0"/>
    </linearGradient>
    <linearGradient id="linear-gradient18" x1="-246.8612531" y1="801.2568885" x2="-242.0965859" y2="810.8697032" gradientTransform="translate(439.7994244 746.1096184) rotate(134.9990003)" gradientUnits="userSpaceOnUse">
      <stop offset="0" stop-color="#606366"/>
      <stop offset=".164" stop-color="#19191a" stop-opacity=".776"/>
      <stop offset=".461" stop-color="#fff" stop-opacity="0"/>
    </linearGradient>
    <linearGradient id="linear-gradient19" x1="-248.1353834" y1="809.8288613" x2="-222.8970677" y2="809.8288613" gradientTransform="translate(439.7994244 746.1096184) rotate(134.9990003)" gradientUnits="userSpaceOnUse">
      <stop offset="0" stop-color="#303133"/>
      <stop offset="1" stop-color="#606266" stop-opacity="0"/>
    </linearGradient>
    <linearGradient id="linear-gradient20" x1="-208.4526553" y1="802.8131794" x2="-239.2827212" y2="809.8403467" gradientTransform="translate(439.7994244 746.1096184) rotate(134.9990003)" gradientUnits="userSpaceOnUse">
      <stop offset="0" stop-color="#737373"/>
      <stop offset=".248" stop-color="#999"/>
      <stop offset=".315" stop-color="#a6a6a6"/>
      <stop offset=".673" stop-color="#d9d9d9"/>
      <stop offset="1" stop-color="#ccc"/>
    </linearGradient>
    <radialGradient id="radial-gradient4" cx="-202.3683705" cy="835.3364513" fx="-202.3683705" fy="835.3364513" r="24.0481858" gradientTransform="translate(124.2609209 470.5806078) rotate(141.550476) scale(.999992 .4921069)" gradientUnits="userSpaceOnUse">
      <stop offset=".891" stop-color="#fff"/>
      <stop offset="1" stop-color="#bdbfcc"/>
    </radialGradient>
    <linearGradient id="linear-gradient21" x1="-245.14992" y1="808.9895897" x2="-208.6977764" y2="808.9895897" gradientTransform="translate(439.7994244 746.1096184) rotate(134.9990003)" gradientUnits="userSpaceOnUse">
      <stop offset="0" stop-color="#ccc"/>
      <stop offset=".709" stop-color="#ccc"/>
      <stop offset="1" stop-color="#e6e6e6"/>
    </linearGradient>
    <linearGradient id="linear-gradient22" x1="-245.9778814" y1="809.2847685" x2="-210.0796761" y2="809.2847685" gradientTransform="translate(439.7994244 746.1096184) rotate(134.9990003)" gradientUnits="userSpaceOnUse">
      <stop offset="0" stop-color="#e6e6e6"/>
      <stop offset=".127" stop-color="#b8b8b8"/>
      <stop offset=".164" stop-color="#999"/>
      <stop offset=".709" stop-color="gray"/>
      <stop offset="1" stop-color="#b3b3b3"/>
    </linearGradient>
    <linearGradient id="linear-gradient23" x1="-245.9778814" y1="809.2847702" x2="-210.312501" y2="809.2847702" gradientTransform="translate(439.7994244 746.1096184) rotate(134.9990003)" gradientUnits="userSpaceOnUse">
      <stop offset="0" stop-color="#fff" stop-opacity="0"/>
      <stop offset=".539" stop-color="#fff"/>
    </linearGradient>
    <linearGradient id="linear-gradient24" x1="-229.999821" y1="807.3645279" x2="-234.5334012" y2="798.2583584" gradientTransform="translate(439.7994244 746.1096184) rotate(134.9990003)" gradientUnits="userSpaceOnUse">
      <stop offset="0" stop-color="#232326"/>
      <stop offset=".315" stop-color="#303033"/>
      <stop offset=".6" stop-color="#37373a"/>
      <stop offset=".673" stop-color="#48484d"/>
    </linearGradient>
    <linearGradient id="linear-gradient25" x1="-231.731524" y1="807.5910189" x2="-234.5694795" y2="798.4294562" gradientTransform="translate(439.7994244 746.1096184) rotate(134.9990003)" gradientUnits="userSpaceOnUse">
      <stop offset="0" stop-color="#fbfeff"/>
      <stop offset="1" stop-color="#fff" stop-opacity=".8"/>
    </linearGradient>
  </defs>
  <path d="M40.4429874,43.3063064c.0552368,1.4224096,17.9709563,19.5609477,21.6658509,22.7616825,3.6950518,3.2008919,6.4666918,4.8625007,7.3701314,7.2435879.9026587,2.3798349,2.8098683,1.7887773,3.6326377.967725.8223016-.8199618,5.6103746-5.6114641,6.2674356-6.2674345.6559688-.6573704.6559688-2.1902536-.2187603-3.0640475-.8755093-.8759795-2.5109065-.5411302-3.3870399-.9786486-.8750409-.4362755-5.9179189-6.7960841-8.655699-9.9690433-2.7373122-3.175302-14.3581348-13.4827802-15.8914847-14.577207-1.5319475-1.0947363-1.3135003-1.5347546-2.5461715-2.5474191-1.2320498-1.0129763-1.9969295.1927026-1.9969295.1927026l-6.2399733,6.2381019h.0000024Z" fill="#262626"/>
  <path d="M78.7090312,66.1647295c.5030551.5046168.6873318,1.2166001.6539404,1.8630517.0035888-.0034333.0123267-.0132616.0160715-.0159139.6559688-.6573704.6559688-2.1902536-.2187603-3.0640475-.8755093-.8759795-2.5109065-.5411302-3.3870399-.9786486-.8750409-.4362755-5.9179189-6.7960841-8.655699-9.9690433-2.7373122-3.175302-14.3581348-13.4827802-15.8914847-14.577207-1.5319475-1.0947363-1.3135003-1.5347546-2.5461715-2.5474191-1.2320498-1.0129763-1.9969295.1927026-1.9969295.1927026l-6.2399733,6.2381019c.0056189.1015786.2941265.5757675.4467277.8126286l5.4647937-5.4649485s.9485326-1.3005482,2.1801133-.2905361c1.233764,1.0128192.706524,1.1828962,2.2386263,2.277323,1.5338189,1.0933316,13.1549522,11.4008098,15.8921085,14.5787641,2.7376241,3.1724878,7.7819063,9.5318297,8.6574153,9.9690385.8761334.437366,2.5099699.1023595,3.3862595.9761534h.0000019Z" fill="url(#linear-gradient)" isolation="isolate" opacity=".15"/>
  <path d="M40.4429874,43.3063064l6.6077456-6.6058742.1028262-2.5285385s-5.2450989,4.6339132-6.5253618,6.586058c-.519595.7942148-.1852123,2.5483547-.1852123,2.5483547h.0000024Z" fill="url(#linear-gradient1)"/>
  <path d="M48.5995302,36.9561739c1.2328283,1.0128192,1.0131335,1.4534613,2.5450786,2.54695,1.5339737,1.0947363,13.154951,11.4022145,15.8921073,14.5775166,2.7377813,3.1728068,7.7806575,9.533082,8.655699,9.9690433.6750054.3360969,1.8898895.186929,3.0109971.752711.4445421.4568655,1.0933333,1.1836771,1.1223557,2.2036723,0,0,.3626241-3.5070276-.640366-4.5103232-.8741052-.8744177-2.5090342-.5411302-3.3859477-.977401-.8753528-.4345565-5.9185427-6.7953031-8.6560109-9.9690433-2.7376241-3.1742116-14.3581348-13.4827802-15.8903918-14.577207-1.5333499-1.0934911-1.3139669-1.5333523-2.5463262-2.5474191-.731021-.5997979-1.2944626-.416145-1.6336809-.1719507l-.1028262,2.5286933-.0034333.0023404c.3399992-.2443514.901567-.42894,1.6327452.1724174Z" fill="url(#linear-gradient2)"/>
  <path d="M73.1116051,74.2793018c.2835148-.2847648.9224755-.923726.7172904-.7185404-.822457.8210522-2.7299785,1.4136717-3.633574-.9674155-.9015676-2.379992-3.6747671-4.0416056-7.3698189-7.2435879-3.6948946-3.2007347-21.6103022-21.3367729-21.6646033-22.7591825l-.7179142.7157309c.0552368,1.4224096,17.9709539,19.5609477,21.6658509,22.7616825,3.6950518,3.2008919,6.4666918,4.8625007,7.3701314,7.2435879.9026587,2.3798349,2.8098683,1.7887773,3.6326377.967725Z" fill="url(#linear-gradient3)" isolation="isolate" opacity=".5"/>
  <path d="M46.8471069,37.202711c-.0009357-.3492061.4270662-.6375589.9569586-.6350614.5281781,0,.9577395.2847648.9564919.6350614.000469.3541965-.4270662.6381803-.955711.6381803-.5297376.0010905-.9589871-.2852314-.9577395-.6381803Z" fill="url(#linear-gradient4)" isolation="isolate" opacity=".3"/>
  <path d="M46.2583897,45.4909459c.2659795-.2650986.6962861-.2650986.9622656,0,.2651009.2651033.2638534.6962266-.0010928.965387-.0012381.0012381-.0024833.0024666-.0037309.0036952-.2670914.2622891-.6962433.2583987-.9585347-.0086903-.266039-.2641653-.2644772-.6952885.0010928-.9603918Z" fill="#f1f1f2" isolation="isolate" opacity=".05"/>
  <path d="M46.3861795,45.6178001c.1956073-.1947621.5118523-.1947621.7074597,0,.1959788.1955097.1941074.5122595-.0006238.7088644-.0021214.0021428-.0042618.0042713-.0064213.006376-.1962097.1913098-.5103524.1873385-.7016622-.0088712-.1955121-.1942621-.1942645-.5108595.0012476-.7063692Z" fill="gray"/>
  <path d="M46.5774775,45.6705417c.1048571-.105169.245599-.1490108.3838458-.1391825-.1864623-.0945597-.4186402-.0685032-.5751437.0864408-.1955097.1955145-.1967597.5121071-.0012476.7063692.0905003.091436.2065904.1354349.3236162.1429252-.0474346-.0230899-.0940883-.0489941-.1335659-.0892503-.0001714-.0001714-.0003405-.0003428-.0005119-.0005143-.1943431-.1960049-.1929955-.5124452.0030095-.7067882h-.0000024Z" fill="#b9babf"/>
  <path d="M48.0262627,44.6811267c-.2655724-.2629177-.2643224-.6941981.0012476-.9593014.2652581-.2649462.697317-.2651033.9622632,0s.2644772.6963837-.0007809.9650727c-.0016928.0016904-.0033928.0033713-.0051023.0050427-.2674295.2614558-.6961742.2566131-.95763-.010814h.0000024Z" fill="#f1f1f2" isolation="isolate" opacity=".05"/>
  <path d="M48.1538954,44.5552058c-.1955121-.1944145-.1942645-.5108547.0018714-.7065216.1954454-.1946859.5115642-.1945478.7068359.0003143.1959788.1953526.1941074.5117928-.0006238.7087073-.0020476.0020714-.0041142.004119-.0061975.0061522-.1962097.1914336-.5104547.1875623-.701886-.0086474v-.0000048Z" fill="gray"/>
  <path d="M48.3464385,43.9014163c.1056356-.1051642.245599-.1488537.3844696-.1404301-.186929-.0929931-.419264-.0670937-.5749866.0876932-.1962907.1956716-.1975406.5121071-.0020285.7065263.0908122.0912836.2067452.1354397.3245519.1427729-.0483703-.0230947-.0944002-.0489989-.1337207-.0890979-.0003905-.0003905-.0007809-.0007857-.0011714-.0011762-.1941931-.1957907-.1929003-.5119309.002888-.7061264l-.0000024-.0001619Z" fill="#b9babf"/>
  <path d="M49.7952237,42.9121633c-.2649486-.2629177-.2636986-.6941981.0018714-.9603918.2663914-.2639938.6959337-.2634367.9616394.0012476.2649462.2647938.2644795.6962266-.0006238.965387-.0016928.0016904-.0033975.0033713-.005107.0050427-.267558.2613225-.6963004.2562702-.9576252-.0112855h-.0001548Z" fill="#f1f1f2" isolation="isolate" opacity=".05"/>
  <path d="M49.9236374,42.7862472c-.1962907-.1944193-.1944193-.5108595.0010928-.7065263.1954097-.1947716.5116-.1946335.7068359.0003143.1959788.1953526.1947312.5117928,0,.7087073-.0013357.0013428-.0026809.0026761-.0040332.0040047-.1961288.1926241-.5112738.1897813-.7038955-.0063475v-.0001524Z" fill="gray"/>
  <path d="M50.1155638,42.1324577c.1054785-.1051642.2460657-.1490108.3843124-.1402729-.1863052-.0931502-.4195783-.0684984-.5751437.0875361-.1955121.1956716-.1973835.5121071-.0010928.7065263.0906574.0912836.2065904.1354397.3239281.1427729-.0479036-.0230947-.0944002-.0500893-.1338778-.0890979-.0004428-.0004428-.0008857-.0008905-.0013285-.0013333-.1941074-.1958764-.1926741-.5120214.0031999-.7061264l.0000024-.0000048Z" fill="#b9babf"/>
  <path d="M45.6056954,43.0682025c.2644772-.2649462.6962242-.2649462.9619513,0,.2649462.2652605.2640105.6966932-.0012476.9650727-.0021619.0021714-.0043404.0043285-.0065332.0064713-.2669104.2607511-.6946647.2557607-.9554182-.0111521-.266039-.262451-.2646343-.6951314.0012476-.9603918Z" fill="#f1f1f2" isolation="isolate" opacity=".05"/>
  <path d="M45.7320829,43.9028306c-.0005214-.0005238-.0010428-.0010428-.0015619-.0015666-.1938074-.1954478-.1924788-.5109976.0029666-.7048026.0002143-.0002143.0004262-.0004286.0006405-.0006428.1948883-.1952192.5111333-.1954907.7063525-.0006047.1955597.1960478.1952788.5134737-.0006238.7091787-.0018904.0019142-.0037951.0038094-.0057165.0056903-.1958264.1918241-.5100786.1885765-.7019003-.0072522h-.0001571Z" fill="gray"/>
  <path d="M45.9243189,43.2490459c.1053237-.1061023.245599-.1490108.3833768-.1404301-.1858361-.0940883-.418795-.0685032-.5742056.0878456-.0005238.000519-.0010476.0010381-.001569.0015619-.1945812.1946716-.1945074.5102262.0001643.7048073.0864313.0857885.2017881.1362063.3234591.1413681-.0475917-.0218471-.0937764-.0486846-.133254-.0889408-.1950431-.1942621-.1937955-.5107024.0020285-.7063692v.0001571Z" fill="#b9babf"/>
  <path d="M47.3746588,41.2992343c.2659081-.2649748.6960433-.2649748.9619513,0,.2652581.2652605.2647914.6965409-.0012476.965387-.0017238.0017238-.0034594.003438-.0052023.0051427-.2671271.2612701-.695479.2565226-.9567491-.0106045-.2658843-.2633891-.2646343-.6946647.0012476-.9599252Z" fill="#f1f1f2" isolation="isolate" opacity=".05"/>
  <path d="M47.5024511,41.4264075c.1953407-.1949621.5116523-.1949621.706993,0,.1954002.1958716.1951193.5130261-.0006238.7085501-.002069.0020904-.004157.0041666-.0062641.0062189-.1961668.1913527-.5103119.1874528-.7016646-.0087141-.195355-.1942621-.1941074-.5092976.0015595-.7060549Z" fill="gray"/>
  <path d="M47.6934347,41.4800824c.1057904-.1061023.2454419-.1491679.3840006-.1404301-.1866171-.0942454-.4189521-.0683413-.5749866.0867551-.1956669.1967573-.1969144.5117928-.0015595.7060549.0863147.0868313.2022238.137873.3245519.1429252-.0483703-.0232471-.0947121-.048837-.1341897-.0887836-.0004786-.0004809-.0009547-.0009571-.0014309-.0014381-.1937479-.1957478-.1921288-.5114928.0036166-.7052407l-.0000024.0001571Z" fill="#b9babf"/>
  <path d="M49.5088994,49.7021665c-.2658843-.2626082-.2646343-.6937314.0012476-.960549.0000238-.0000238.0000452-.0000476.000069-.0000667.2660224-.2652129.6966718-.264551.9618823.0014714.2652581.2652557.2647914.6952885-.0012476.9641346-.0020904.0020952-.0041951.0041809-.0063118.0062475-.2669985.2607891-.6948528.2557559-.9556396-.0112426v.0000048Z" fill="#f1f1f2" isolation="isolate" opacity=".05"/>
  <path d="M49.6363798,49.5762409c-.0004167-.000419-.0008333-.0008333-.0012476-.0012524-.1938502-.1954002-.1925931-.51095.0028071-.7048026.000119-.000119.0002357-.0002381.0003548-.0003524.195274-.1950812.5117142-.1949193.706793.0003524.1961335.1955097.1942621.5119452-.0007809.7085501-.0013881.0013952-.0027856.0027809-.0041904.0041618-.1962121.1925336-.5113571.1895575-.7038931-.006657h.0001571Z" fill="gray"/>
  <path d="M49.8292348,48.9226181c.1048571-.1048547.2454419-.1488584.3841577-.1401205-.186929-.0933073-.4194212-.0684984-.5754556.0876932-.000419.0004143-.0008357.0008333-.0012524.0012476-.1947121.1945431-.1948502.5100976-.0003071.7048073.0903455.091436.2067452.1354349.32424.1429252-.0480584-.0230947-.0944002-.0499322-.1338778-.0889408l-.0003857-.0003857c-.1945002-.1960954-.1932098-.5127309.0028833-.7072311l-.0000024.0000048Z" fill="#b9babf"/>
  <path d="M51.27802,47.9331983c-.266039-.2626082-.2641676-.6952885.0012476-.960549.2659081-.2649748.6960433-.2649748.9619513,0,.2652581.2654176.2646343.696698-.0006238.965387-.0018571.0018619-.0037261.0037094-.0056046.0055475-.2671295.2613939-.6955814.2567416-.9569729-.0103855h.0000024Z" fill="#f1f1f2" isolation="isolate" opacity=".05"/>
  <path d="M51.4033242,47.8043156c-.193036-.1953573-.1911574-.5102119.0041999-.7032502.1948359-.1952573.511-.1958145.706524-.0012476.1953431.1964621.1953431.513807,0,.7102691-.0013595.0013619-.0027261.002719-.0041023.0040666-.1962121.1924146-.5112547.1893384-.7036693-.006876-.0009881-.0009809-.0019714-.0019714-.0029523-.0029618Z" fill="gray"/>
  <path d="M51.9823583,47.0130627c-.1870861-.0926835-.4194212-.0680317-.5748318.0880027-.0009905.0009809-.0019785.0019619-.0029618.0029523-.1937264.1946716-.1929598.509531.0017142.7032598.0864766.0858837.2018572.136454.3236162.1418348-.0483703-.022309-.0940883-.0489941-.1335659-.0878456-.0004-.0004-.0008024-.0008047-.0012024-.0012095-.1942645-.1959621-.1928884-.5123023.0030737-.7065644.1054809-.1048547.2462228-.1485441.3841577-.1404301Z" fill="#b9babf"/>
  <path d="M53.0488524,45.2038431c.2656605-.264989.6956671-.264989.9613275,0,.2658819.2652557.2646343.6965361-.0006238.9649156-.0021619.0021714-.0043404.0043285-.0065332.0064713-.2669104.2607511-.6946647.2557607-.9554182-.0111521-.2658843-.2626034-.2647914-.6949742.0012476-.9602347Z" fill="#f1f1f2" isolation="isolate" opacity=".05"/>
  <path d="M53.1739281,46.0366903c-.1938574-.1952716-.1927098-.5107262.0025618-.7045835.0003381-.0003428.0006762-.0006809.0010166-.001019.1949288-.1950573.5110762-.1951573.7061311-.0002286.1954002.1958716.1951193.5130261-.0006238.7085501-.0019619.0019904-.0039404.0039618-.0059356.0059141-.1957407.191786-.5098952.1885813-.7016812-.0071617-.0004905-.0004905-.0009809-.0009809-.001469-.0014714Z" fill="gray"/>
  <path d="M53.3677855,45.3845388c.1048547-.1061023.2455966-.1487013.3835315-.1404301-.1863052-.0940883-.4192664-.0684984-.5748318.0880027-.0004928.0004905-.0009833.0009762-.0014738.0014666-.1944597.1946716-.1942907.5101262.0003809.7045883.086467.0858742.2018643.1363968.3236162.1416776-.0475894-.0220042-.0940883-.0486846-.1337207-.0890979-.1956669-.1941098-.1936383-.5105452.0024976-.7063692v.0001619Z" fill="#b9babf"/>
  <path d="M48.8558957,47.2794184c-.2655724-.2626082-.2644795-.6938885.0012476-.9600823.26432-.2640129.6962242-.2640129.9622632.0012476.2649462.2649462.2638534.6963837-.0014047.9650727-.0022214.0022238-.0044594.0044332-.0067117.0066237-.2673795.2602749-.6951242.2545131-.9553967-.0128664l.0000024.0000048Z" fill="#f1f1f2" isolation="isolate" opacity=".05"/>
  <path d="M48.9832189,47.153488c-.1950431-.194105-.1936407-.5105405.0015595-.7058978.1955002-.1950193.5119595-.1950193.7074597,0,.1962907.1953573.1939502.5117928-.0006238.7083977-.0020785.0021-.0041761.0041809-.0062903.0062475-.1962954.191467-.5106381.1875528-.702105-.0087427v-.0000048Z" fill="gray"/>
  <path d="M49.1760763,46.5000271c.1051666-.1046976.2452847-.1493251.3835315-.1405872-.1863052-.0925264-.4189545-.0672508-.5748318.0881598-.1951978.1953526-.1966025.5117928-.0015595.7058978.0906574.0919026.2067452.1357492.3239281.1432395-.0474346-.0235614-.0940883-.0488417-.1335659-.0895646-.0002667-.0002667-.0005333-.0005381-.0008-.0008047-.1941407-.1959621-.1926645-.5122023.0032975-.7063454v.0000048Z" fill="#b9babf"/>
  <path d="M50.625171,45.5102978c-.2658843-.2626082-.2647914-.6937314.0012476-.9600823.2663652-.2644176.6963575-.2637891.9619513.0014047.2649462.2649462.2643224.6962266-.0006238.9649156-.0022309.0022333-.0044785.0044523-.0067403.0066522-.267508.2603844-.6954504.2546131-.9558372-.0128949l.0000024.0000048Z" fill="#f1f1f2" isolation="isolate" opacity=".05"/>
  <path d="M50.752649,45.3845341c-.0006095-.0006095-.0012143-.001219-.0018214-.0018285-.1934026-.1953573-.1918193-.5105119.003538-.7039169.1952526-.1950335.5115833-.1950335.7068359,0,.1961359.1950431.1944193.5114833-.0006238.7083977-.0014857.0014904-.0029785.0029761-.0044832.0044475-.1962549.1922479-.5111976.1890003-.7034455-.007257v.0001571Z" fill="gray"/>
  <path d="M51.3291974,44.5904717c-.1869313-.0926835-.4189545-.0686555-.5748318.0881598-.0006619.0006571-.0013238.0013143-.0019833.0019714-.1943097.1944574-.1941907.5096167.0002667.7039264.0901884.0917502.2062785.1357492.32424.1432395-.0482132-.0235614-.0937764-.0500845-.1337207-.0894074-.0001714-.0001714-.0003405-.0003428-.0005095-.0005143-.1945169-.1958335-.1934502-.5122737.0023809-.7067882.1057928-.1053213.245599-.1493251.3841577-.1405872Z" fill="#b9babf"/>
  <path d="M52.5773158,52.7708901c-.2658819-.263851-.2646343-.6948171.0014047-.9600776.2656771-.265389.6961195-.265389.9617966,0,.2651033.2652605.2646343.6962266-.0006238.9650727-.0015857.0015857-.0031785.0031618-.0047785.0047285-.2671319.2617606-.6958814.2574083-.9576419-.0097236h-.0001571Z" fill="#f1f1f2" isolation="isolate" opacity=".05"/>
  <path d="M52.7032891,52.6431454c-.1934479-.1953145-.191936-.510469.0033785-.7039169.0003809-.0003857.0007643-.0007666.0011452-.0011524.1948026-.1949383.51075-.1950526.7056907-.0002524.000019.000019.0000405.0000381.0000595.0000619.1954145.1957907.1951073.5129213-.0006833.7083358-.0016904.0017095-.0033904.0034047-.0051046.0050904-.1956169.192286-.5100714.189586-.702355-.0060284-.0007119-.0007095-.0014238-.0014238-.0021309-.002138Z" fill="gray"/>
  <path d="M52.8973417,51.9915035c.1054809-.1059499.2462228-.1490108.3841577-.1405872-.1870861-.093774-.4189545-.0681841-.5748318.088317-.0007143.0007095-.0014285.001419-.002138.0021285-.1941383.1946335-.1937383.5097881.0008905.7039264.086398.0859789.2018381.1365159.3236162.1416776-.0480584-.0221614-.0937764-.0486846-.1335659-.0890979-.1952002-.1941098-.1941074-.5107024.0018714-.7063692v.0000048Z" fill="#b9babf"/>
  <path d="M54.3470602,51.0019266c-.2658843-.2635415-.2647914-.6951314.0012476-.9602347.265589-.2651605.6957385-.2651605.9613275,0,.26557.2651033.2643224.6963837-.0006238.9650727-.0019214.0019238-.0038547.003838-.0057999.0057427-.2669985.2611558-.6951528.2564178-.9563086-.0105807h.0001571Z" fill="#f1f1f2" isolation="isolate" opacity=".05"/>
  <path d="M54.4748501,50.8750725c-.1958216-.1944193-.1944193-.5092976.0007809-.7062121.1955359-.1949335.5119238-.1949335.7074597,0,.0000214.000019.0000405.0000381.0000595.0000619.1954145.1957907.1951073.5129213-.0006833.7083358-.196293.1956669-.5117928.1980097-.7076168-.0020285v-.0001571Z" fill="gray"/>
  <path d="M54.6669313,50.2214401c.1051666-.1050118.2455966-.1479204.3835315-.1396491-.1863052-.0936169-.4189545-.0677175-.5748318.0870694-.1952002.1969144-.1964478.5117928-.0007809.7062121.0900312.0915931.2061214.1354397.3231472.1427729-.0474346-.0230947-.0937764-.0486846-.1338778-.0890979-.0003905-.0003952-.0007833-.0007857-.0011738-.0011809-.1938883-.1960907-.192105-.5122309.0039832-.7061216l.0000024-.0000048Z" fill="#b9babf"/>
  <path d="M56.1160189,49.2317156c-.2658843-.2626034-.2646343-.6937266.0009357-.9589871.2659795-.2650986.6962861-.2650986.9622656,0,.2652581.2651033.2636986.6963837-.0012476.9652298-.0022428.0022476-.0045023.0044761-.006776.0066903-.2673342.2601939-.6949814.2544036-.9551753-.012933h-.0000024Z" fill="#f1f1f2" isolation="isolate" opacity=".05"/>
  <path d="M56.2438159,49.1056376c-.1956669-.1939526-.1944193-.5103881.0012476-.7057454.1953954-.1949812.5117523-.1949812.7071478,0,.1961335.1953573.1942621.5121071-.0007809.7083977-.0021119.002138-.0042451.0042523-.0063951.0063522-.1960811.1911908-.5100286.1872337-.7012217-.0088474l.0000024-.0001571Z" fill="gray"/>
  <path d="M56.4358924,48.4521672c.1053213-.1046976.2452847-.1488537.3835315-.1404301-.1863052-.0925264-.4183283-.0669365-.5743628.0881598-.1956669.1953573-.1969144.5117928-.0012476.7057454.0900336.0920598.2059666.1357492.3236162.1432395-.0479036-.023409-.0940883-.0486846-.1341897-.0890979-.1945455-.196124-.1933574-.5127975.0026523-.7074597v-.0001571Z" fill="#b9babf"/>
  <path d="M51.9243121,50.348461c-.2657271-.2627653-.2646343-.6941981.0009357-.9600823.2657486-.2652129.696048-.2652129.9617966,0,.2654152.2658795.2647914.6960695,0,.9649156-.0018357.0018381-.0036809.0036666-.005538.0054856-.2671723.2614701-.6957218.2568464-.9571943-.0103236v.0000048Z" fill="#f1f1f2" isolation="isolate" opacity=".05"/>
  <path d="M52.0516329,50.2226972c-.0005214-.0005238-.0010428-.0010476-.0015619-.0015714-.1936336-.1956145-.1920265-.5111642.0035904-.7047978.195174-.1948812.5111309-.1954383.706993-.0012476.1952169.196543.1947978.5139261-.0009357.7099548-.0016809.0016952-.0033737.0033761-.0050808.0050475-.1961692.192086-.5109143.1887813-.7030026-.0073903l-.0000024.0000048Z" fill="gray"/>
  <path d="M52.2441832,49.569222c.1057928-.1053261.245599-.1493251.3844696-.1407443-.186929-.0928407-.4189521-.0685032-.5749866.0878456-.0005238.000519-.0010476.0010381-.0015714.0015619-.1947526.1945002-.1949573.5100547-.0004571.7048073.0869861.0858694.2024857.1367873.3245519.1430824-.0480584-.0235614-.0940883-.0503988-.1338778-.0895646-.0004357-.0004381-.000869-.0008714-.0013024-.0013095-.1939931-.1957478-.1925717-.5116928.0031737-.7056835v.0000048Z" fill="#b9babf"/>
  <path d="M53.6932755,48.5793309c-.2649486-.2627605-.2636986-.6952885.0018714-.9602347.2643224-.2652605.6963813-.2652605.9616394,0,.2646343.2649462.2641676.6962266-.0006238.965387-.0018881.0018904-.0037904.0037713-.0056999.005638-.2673009.2613415-.695848.2565131-.9571895-.0107855l.0000024-.0000048Z" fill="#f1f1f2" isolation="isolate" opacity=".05"/>
  <path d="M53.8213773,48.4535671c-.0005428-.0005428-.0010857-.0010857-.0016262-.0016285-.1938121-.1953192-.1925955-.510769.002719-.7045835.0001714-.0001714.0003405-.0003428.0005119-.0005143.1950169-.1953335.5114571-.1955907.706793-.0005762.1952121.1957859.1952121.5126118,0,.7083977-.0021452.0021809-.0043118.004338-.0064975.006476-.1959145.1917336-.5101643.188348-.7018979-.0075665l-.0000024-.0000048Z" fill="gray"/>
  <path d="M54.0133037,47.8001062c.1057904-.1062594.2460657-.1493251.3843124-.1405872-.1863052-.0942454-.4191093-.0686555-.5751437.0878456-.0005452.0005428-.0010881.0010809-.0016309.0016238-.1944169.1947145-.1941764.510169.0005381.7045883.0864766.0860504.2020405.136592.3239281.1416776-.0494131-.021309-.0947216-.0510893-.1338778-.0880027-.0003405-.0003428-.0006809-.0006809-.001019-.0010238-.1941931-.1957907-.1928979-.5119357.0028904-.7061264l.0000024.0000048Z" fill="#b9babf"/>
  <path d="M55.8300089,55.0617889c.2665081-.2643653.6965313-.2637415.9622656.0014047.2646343.2649462.2641676.6962266-.0006238.9650727-.0018928.0018904-.0037975.0037713-.0057142.005638-.2675985.2610368-.6961409.2557178-.9571753-.0118807-.2655724-.2626034-.2636986-.6938838.0012476-.9602347Z" fill="#f1f1f2" isolation="isolate" opacity=".05"/>
  <path d="M55.9540084,55.8932362c-.1930026-.1952716-.1911646-.5100262.0041047-.7030312.1953597-.1950669.511788-.1950669.7071478,0,.195824.1953526.1936383.5116357,0,.7087073-.0014928.0015-.0029952.0029904-.0045094.0044713-.1963835.1923622-.5115238.1891051-.7038859-.0072808-.0009571-.0009524-.0019095-.0019095-.0028571-.0028666Z" fill="gray"/>
  <path d="M56.5332591,55.1020451c-.1870861-.0928407-.4191093-.0684984-.5751437.0881598-.0009595.0009476-.0019166.0019-.0028666.0028571-.1936931.1945859-.1929669.50935.001619.7030407.0900336.0915931.2065904.1357492.3239281.1432395-.0492536-.0221423-.094493-.0523035-.1338778-.0892503-.0004428-.0004428-.0008857-.0008905-.0013285-.0013333-.1941074-.1958764-.1926741-.5120214.0031999-.7061264.1057928-.105169.2462228-.1493251.3844696-.1405872Z" fill="#b9babf"/>
  <path d="M57.5985033,54.2530602c-.2657271-.2627605-.2644772-.6943504.0010928-.9602347.2643224-.2640129.6963813-.2640129.9617966.0012476.26557.2646319.2643224.696379-.0006238.963668-.0025595.0025761-.0051404.0051332-.0077427.0076665-.2669938.2601749-.6943457.2546464-.9545206-.0123473h-.0000024Z" fill="#f1f1f2" isolation="isolate" opacity=".05"/>
  <path d="M57.7273884,53.4209273c.1952883-.1952383.5118595-.1952383.7071478,0,.195824.1956669.1942621.5117928-.0003119.7087073-.0016809.0016952-.0033761.0033761-.0050808.0050475-.1962121.1920431-.5109571.188667-.7030026-.0075427-.1955121-.1944193-.1944193-.5105452.0012476-.7062121Z" fill="gray"/>
  <path d="M57.918372,53.4738308c.1051666-.1053261.245599-.1491727.3836887-.1409015-.186148-.0928407-.419264-.068346-.5746747.0880027-.1956669.1956669-.1967597.5117928-.0012476.7062121.0905003.0915931.2064333.1357492.3236162.1430824-.0474346-.0235614-.0937764-.0500893-.1338778-.0890979-.0004643-.0004667-.0009285-.0009333-.0013928-.0014047-.193855-.1960002-.1921122-.5120452.0038904-.7058978l-.0000024.0000048Z" fill="#b9babf"/>
  <path d="M59.3674691,52.4839444c-.2655724-.2629177-.2644795-.6938838.0012476-.9600776.2649462-.2652605.6970051-.2652605.9622632,0,.2649462.2661938.2643224.6959123-.0012488.9650727-.0021952.0022047-.0044047.0043904-.0066296.0065618-.267083.2606987-.6949338.2555274-.9556348-.0115569h.0000024Z" fill="#f1f1f2" isolation="isolate" opacity=".05"/>
  <path d="M59.4945185,52.3574378c-.1943026-.1953192-.1934812-.5111642.0018333-.7054692.1952645-.195105.5115095-.1956621.7074609-.0012476.1953038.1964573.195024.5138404-.0006238.7099548-.0016095.001619-.0032297.0032285-.0048618.0048237-.1962549.1921288-.5110988.1887765-.7032229-.007476l-.0005857-.0005857Z" fill="gray"/>
  <path d="M59.6873378,51.7047102c.105169-.105169.245599-.1490156.3844696-.1407443-.186929-.0926835-.4189521-.0684984-.5754556.0880027-.0001952.0001952-.0003928.0003905-.0005881.0005857-.1949907.1946288-.1952883.5104785-.0006595.7054692.086648.086117.2023429.1367587.3243948.1419919-.0482155-.0221566-.0944026-.0486846-.1346588-.0881598-.000119-.000119-.0002405-.0002429-.0003595-.0003619-.1943859-.1959621-.193105-.5124023.0028571-.7067882v.0000048Z" fill="#b9babf"/>
  <path d="M55.1770051,52.6404455c.2660509-.2649271.6962147-.2649271.9622656,0,.2649462.2649462.2643224.6963837-.0007809.9650727-.0011738.0011714-.0023499.002338-.0035309.0034999-.2671342.2626129-.6965837.2589559-.9592014-.0081808-.266039-.2640081-.2644795-.6954457.0012476-.9603918Z" fill="#f1f1f2" isolation="isolate" opacity=".05"/>
  <path d="M55.305264,52.7671473c.1948859-.1939526.5121047-.1950431.706524,0,.1962907.1956669.1942621.5121071-.0003119.7090215-.0019738.0019952-.0039642.0039713-.0059737.0059332-.1961668.1915955-.5105119.1878908-.7021098-.008276-.1955121-.1945716-.1942645-.5110119.0018714-.7066787Z" fill="gray"/>
  <path d="M55.4959405,52.8198889c.1054785-.105169.2454419-.1490108.3843124-.1391825-.186929-.0942454-.419264-.068346-.5749866.0864408-.1961335.1956669-.1973835.5121023-.0018714.7066787.0905003.0911217.2064333.1352826.3245519.1430824-.0486822-.0235614-.0944002-.0494655-.1338778-.0895646-.0004428-.0004428-.0008857-.0008905-.0013285-.0013333-.1941074-.1958764-.1926741-.5120214.0031999-.7061264v.0000048Z" fill="#b9babf"/>
  <path d="M56.9447233,51.8304739c-.2649486-.2627653-.2638557-.6940409.0018714-.9593014.2658366-.264851.6958028-.264851.9616394,0,.26557.2652557.2644772.6965361-.0007809.9655393-.0018404.0018381-.0036928.0036666-.0055546.0054856-.2675557.2610749-.696098.2558274-.9571776-.0117283l.0000024.0000048Z" fill="#f1f1f2" isolation="isolate" opacity=".05"/>
  <path d="M57.0742274,50.9981839c.1950431-.194105.5122618-.1953573.706524,0,.1956073.1958049.1956073.5130594,0,.7088644-.0020904.0021142-.0041999.0042094-.0063284.0062856-.1960811.1913146-.5101262.1874528-.7014431-.0086284-.1961359-.1942621-.1942645-.5110119.0012476-.7065216Z" fill="gray"/>
  <path d="M57.2649039,51.0510731c.1054809-.1053213.2462228-.1491679.3844696-.1404301-.1863052-.0933073-.4192664-.0674079-.5751437.0875361-.1955097.1955145-.1973835.5122642-.0012476.7065263.0905003.091436.2067452.1354349.3240829.1429252-.0479013-.0232471-.0944002-.0491512-.1340326-.0894074l-.0013928-.0014c-.1940288-.1958288-.1925669-.5118738.0032642-.7059026v.0001524Z" fill="#b9babf"/>
  <path d="M58.9485122,59.1640883c-.2655724-.2624462-.2647914-.6937266.0012476-.9602347.2661819-.2650986.6967718-.2645367.9622656.0012476.2646355.2652605.2640117.6952933-.0015595.9639822-.002238.0022476-.0044904.0044761-.0067594.0066903-.2669961.2605415-.6946504.2553083-.955192-.0116854h-.0000024Z" fill="#f1f1f2" isolation="isolate" opacity=".05"/>
  <path d="M59.0746545,59.0371341c-.1940169-.1953573-.1929264-.5110071.0024309-.7050216.1955121-.1948002.5115738-.1953573.7077716-.0012476.1951157.1964764.1948371.513669-.0006238.7098025-.0016381.0016523-.003288.0032904-.0049499.0049189-.1962549.1922431-.5112.1889956-.7034455-.0072617-.0003952-.0003952-.0007905-.0007905-.0011833-.0011904Z" fill="gray"/>
  <path d="M59.6528553,58.2445765c-.1870861-.0933073-.419264-.0684984-.5757675.0875361-.0003976.0003952-.0007928.0007905-.0011881.0011857-.1946621.1947145-.1946193.5103643.0000952.7050264.0868337.0860694.2024357.1369778.3245519.1429252-.0482155-.0229376-.0940907-.0500845-.1346588-.0894074-.0000976-.0001-.0001952-.0001952-.0002929-.0002952-.1944645-.1960049-.1932145-.5125404.0027904-.7070073.1059475-.1048547.245599-.1490156.3844696-.1399634Z" fill="#b9babf"/>
  <path d="M60.7182566,56.434733c.2661759-.2650652.6965563-.2650652.9627323,0,.2647914.2652605.2641664.696698-.0009357.965387-.0022249.0022333-.0044654.0044523-.0067225.0066522-.2671676.2607368-.6951183.2555226-.9558539-.0116473-.266039-.262451-.2640105-.6951314.0007797-.9603918Z" fill="#f1f1f2" isolation="isolate" opacity=".05"/>
  <path d="M60.8431346,57.2669088c-.1934038-.1953573-.1918193-.5105119.0035392-.7039169.0002345-.0002333.000469-.0004714.0007047-.0007047.1949716-.1950145.5111178-.1950478.7061311-.0000762.0000202.000019.0000393.0000381.0000595.0000619.1955859.1956145.1955585.5127499-.0000595.7083358-.0020654.0020952-.0041487.0041713-.006251.0062284-.1958276.1917003-.5099786.1883527-.7016777-.007476-.0008178-.0008143-.0016333-.0016333-.0024464-.0024523Z" fill="gray"/>
  <path d="M61.0375051,56.6155764c.1056344-.1050118.2460657-.1487013.3843124-.1404301-.186929-.0928407-.4189521-.0685032-.5749866.0878456-.0007678.0007619-.0015345.0015238-.0022976.0022904-.1940931.1946716-.193624.5098262.0010488.7039216.0864266.0861647.2019965.1368254.323927.1419919-.0494012-.0213328-.0947049-.0511131-.1338778-.0880027l-.0006678-.0006714c-.1944728-.1958764-.1933348-.5123166.0025404-.7067882l.0000012-.0001571Z" fill="#b9babf"/>
  <path d="M62.4870653,55.6264757c-.2655712-.26417-.2646355-.6954457.0009357-.9607061.2661581-.2649605.6964183-.2649605.9625763,0,.2647902.2652605.2636974.6965409-.0015607.965387-.0013762.0013762-.0027583.0027428-.0041463.0041047-.2668747.2620224-.695629.2580892-.9576502-.0087855h-.0001548Z" fill="#f1f1f2" isolation="isolate" opacity=".05"/>
  <path d="M62.6143194,55.5001739c-.1948907-.1957002-.19423-.5123404.0014738-.7072311.1955371-.1949335.5119226-.1949335.7074597,0,.1953276.1959097.1951895.512969-.0003119.7087073-.0011964.0012047-.0023976.0023999-.0036059.0035952-.1959597.193286-.5115047.1911146-.7047907-.0048427l-.000225-.0002286Z" fill="gray"/>
  <path d="M62.8069352,54.8469368c.1053225-.1064166.2457538-.1491679.3838446-.1404301-.1863052-.0945597-.4189521-.0685032-.5749866.0864408-.0000226.0000238-.0000464.0000476-.000069.0000667-.1956228.1949716-.1961514.5116119-.0011797.7072359.0867004.0857599.2021072.1363492.323927.1419919-.0474346-.0230947-.0940895-.0489989-.1338778-.0890979-.195355-.1945764-.1937955-.5110119.0024964-.7063692l-.0001548.0001619Z" fill="#b9babf"/>
  <path d="M58.2953537,56.7415021c-.2655724-.2626082-.2646343-.6938885.0012476-.9600823.2663152-.2644176.6962361-.2639272.9619513.0010905.2654152.2651033.2647914.6968504-.0012476.9652298-.002169.0021714-.0043523.0043285-.0065522.0064665-.2673366.2603177-.6950838.2546274-.9553991-.0127092v.0000048Z" fill="#f1f1f2" isolation="isolate" opacity=".05"/>
  <path d="M58.4231459,56.6155764c-.1956669-.194105-.1944193-.5102309.0012476-.7058978.1955192-.1948288.5117857-.1948288.7073049,0,.1959788.1956669.1941074.5117928-.0006238.7083977-.0017023.001719-.003419.003419-.0051475.0051142-.1961264.1920098-.5107714.1886718-.7027812-.007457v-.0001571Z" fill="gray"/>
  <path d="M58.6155367,55.9621107c.1050095-.1048547.2455966-.1487013.3835315-.1407443-.1863052-.0923693-.4186402-.0680317-.5746747.088317-.1956669.1956669-.1969144.5117928-.0012476.7058978.0903431.0919026.2064333.1357492.3245519.1430824-.0485274-.0235614-.095024-.0486846-.1345016-.0890979-.0002024-.0002048-.0004024-.0004048-.0006047-.0006095-.1944216-.1960478-.1931026-.512588.0029452-.7070073v.0001619Z" fill="#b9babf"/>
  <path d="M60.0643159,54.9723863c-.2655712-.262451-.2643212-.6937314.0012488-.9599252.2663854-.2642462.6961671-.2637605.9619525.0010905.2652593.2654128.2647902.6962266-.0004678.9638251-.0027904.0028095-.0056058.0055951-.008445.0083569-.2672069.259832-.6944552.253856-.9542872-.0133521l-.0000012.0000048Z" fill="#f1f1f2" isolation="isolate" opacity=".05"/>
  <path d="M60.192732,54.8464559c-.1962907-.1936383-.1950431-.5102309.0012488-.7058978.0003821-.0003809.0007643-.0007666.0011464-.0011476.1951883-.1945526.5111357-.1940383.7056895.0011476.1959799.1956669.1939514.5119499-.0006238.7083977-.0017678.0017809-.0035487.0035523-.0053439.0053046-.1960383.1917289-.5103857.1882385-.7021157-.0077998l-.0000012-.0000048Z" fill="gray"/>
  <path d="M60.3845013,54.1931426c.1056356-.1048547.2462216-.1487013.3838446-.1407443-.1866171-.0926835-.4187962-.0681841-.5743628.088317-.1962918.1955145-.1975406.5122642-.0012488.7057454.0894074.0920598.2067452.1357492.323927.1432395-.0485274-.0235614-.0944014-.0499322-.1338778-.0890979-.000444-.0004428-.0008869-.0008905-.0013285-.0013333-.1941074-.1958764-.1926741-.5120214.0032011-.7061264h-.0001548Z" fill="#b9babf"/>
  <path d="M62.2010517,61.4560776c.2660866-.2648414.6961778-.2648414.9622644,0,.2651033.2654176.2644783.696698-.0006238.965387-.0015214.001519-.0030499.0030333-.0045856.004538-.2673461.2619082-.6963921.2575035-.9583026-.0098426-.2655712-.2633891-.2643236-.6948219.0012476-.9600823Z" fill="#f1f1f2" isolation="isolate" opacity=".05"/>
  <path d="M62.3294689,61.5832461c.1952514-.1947383.5112726-.1947383.706524,0,.1953514.1959621.1952109.5130737-.0003119.7088644-.0019023.001919-.0038213.0038237-.0057546.0057094-.1962526.1916336-.5106964.1878908-.70233-.0083617-.1956669-.1944193-.1942633-.5096071.0018726-.7062121Z" fill="gray"/>
  <path d="M62.5201431,61.6356687c.1054785-.1050118.2455978-.1477632.3844684-.1390253-.1870849-.0942454-.419264-.068346-.5751425.086598-.1961359.1967573-.1975394.5116357-.0018726.7062121.0905003.091436.2067464.1357492.3245519.1427729-.0483715-.0230899-.0944014-.0486798-.1338778-.0892503-.0003917-.0003905-.0007821-.0007857-.0011714-.0011762-.1941931-.1957907-.1929003-.5119309.002888-.7061264l.0001559-.0000048Z" fill="#b9babf"/>
  <path d="M63.9689223,60.6459489c-.2649462-.2621367-.2638545-.6935695.0018726-.95883.2656593-.264989.6956695-.264989.9613287,0,.2652593.2652605.2646343.6966932-.0004678.9652298-.0019142.0019142-.0038404.0038142-.0057784.0057046-.2675545.2609558-.6959968.2556083-.9569538-.0119473l-.0000012-.0001571Z" fill="#f1f1f2" isolation="isolate" opacity=".05"/>
  <path d="M64.0984324,59.8141303c.1950431-.1939526.5122607-.1955097.7068359,0,.1952978.1957526.1952978.5126452,0,.7083977-.0019738.0019952-.0039642.0039761-.0059701.005938-.1960835.1916812-.5104309.1881147-.7021145-.0079665-.1961347-.1941098-.1944181-.5107024.0012488-.7063692Z" fill="gray"/>
  <path d="M64.2891065,59.86671c.1054785-.1050118.2462216-.1491679.3844684-.1404301-.1863052-.0928407-.419264-.0672508-.5751425.0878456-.195668.1956669-.1973835.5122642-.0012488.7063692.090811.0915931.2069011.1357492.323927.1427729-.0477465-.0232471-.0944014-.0486798-.1338778-.0892503-.000444-.0004428-.0008869-.0008905-.0013285-.0013333-.1941074-.1958764-.1926741-.5120214.0032011-.7061264l.0000012.0001524Z" fill="#b9babf"/>
  <path d="M65.7385083,58.8768331c-.26557-.262451-.2643224-.6937314.0012488-.9599252.2663581-.2643748.6962814-.2638176.9619525.0012476.2652593.2649462.2640105.6962266-.0009357.9649156-.0021261.0021285-.0042678.0042428-.0064225.0063379-.2674223.2604749-.6953683.2548417-.955842-.0125807l-.0000012.0000048Z" fill="#f1f1f2" isolation="isolate" opacity=".05"/>
  <path d="M65.8673946,58.0451668c.1955014-.1950193.5119583-.1950193.7074597,0,.1959799.1955097.1941074.5119499-.0006238.7087073-.0013893.0013952-.0027856.0027809-.0041916.0041618-.1962133.1925384-.5113571.1895575-.7038931-.006657-.195355-.1944193-.1942621-.5107024.0012488-.7062121Z" fill="gray"/>
  <path d="M66.0586925,58.0975942c.1050106-.1046976.2455978-.1490108.3838446-.1405872-.1863052-.0926835-.419264-.0683413-.5751425.0881598-.1955121.1955097-.1967597.5119499-.0012488.7062121.0908122.0917455.2067464.1357492.3240841.1429252-.0475906-.0232471-.0940895-.0500845-.1338778-.0892503-.0002226-.0002238-.0004464-.0004476-.000669-.0006714-.194299-.1960478-.1928824-.512488.0031654-.7067882h-.0001559Z" fill="#b9babf"/>
  <path d="M61.548361,59.0336485c.2658378-.2651462.6961147-.2651462.9619525,0,.2652581.2651033.2643224.6960695-.0012488.9649156-.002163.0021714-.0043416.0043285-.0065332.0064713-.2669116.2607511-.6946671.2557607-.9554193-.0111521-.2660378-.2627605-.2646343-.6951314.0012488-.9602347Z" fill="#f1f1f2" isolation="isolate" opacity=".05"/>
  <path d="M61.6729283,59.8659767c-.1935348-.1952288-.1921598-.5103833.003069-.7039169.0003381-.0003428.0006774-.0006809.0010166-.001019.19493-.1950573.511075-.1951573.7061311-.0002286l.0000571.0000571c.1954145.1957907.1951097.5129261-.0006809.7083406-.0020142.0020428-.0040451.0040666-.0060951.0060713-.1958264.1917003-.5099786.1883527-.7016777-.007476-.0006083-.0006095-.0012154-.001219-.0018202-.0018285Z" fill="gray"/>
  <path d="M62.2511386,59.0737428c-.1866171-.0939311-.4191081-.0680317-.5751425.088317-.0006107.0006047-.0012202.0012143-.0018273.001819-.194224.1945431-.1939645.5097024.0005786.7039264.0901884.0905026.2064345.1357492.32424.1419919-.0483703-.0221566-.0947133-.0491512-.1341897-.0881598-.000119-.000119-.0002393-.0002381-.0003583-.0003619-.1945585-.1957907-.1935598-.5122309.0022309-.7067882.1061035-.1064166.2455978-.1493251.3844684-.1407443Z" fill="#b9babf"/>
  <path d="M63.3173221,57.2645279c.2657676-.2653176.6961849-.2653176.9619525,0,.2649462.2652605.2643224.6960695-.0004678.9652298-.001469.0014666-.002944.0029285-.0044261.0043809-.2672176.2620415-.6962659.2578416-.9583062-.009376-.2658831-.2641653-.2640105-.6949742.0012476-.9602347Z" fill="#f1f1f2" isolation="isolate" opacity=".05"/>
  <path d="M63.4440227,58.0988418c-.0006131-.0006143-.0012238-.0012238-.0018333-.0018428-.1938705-.195743-.1923515-.511588.003394-.7054597.19518-.1949097.511344-.1949097.706524,0,.1953133.1958049.1953133.5127452,0,.7085501-.0016262.0016428-.0032642.0032761-.004913.0048951-.1958299.1924384-.5105797.189686-.7030157-.0061427h-.0001559Z" fill="gray"/>
  <path d="M63.6362587,57.4455332c.1056356-.1065737.2463788-.1493251.3836887-.1407443-.1864611-.0937788-.4187962-.0684984-.5742068.0867551-.0006155.0006095-.0012297.001219-.0018416.0018333-.1947324.1948859-.1946062.5107357.0002809.7054692.0864682.0860789.202025.1366778.323927.1418348-.0485274-.0232471-.0940895-.048837-.1340338-.0894074-.0006083-.0006095-.0012154-.001219-.0018214-.0018333-.1932741-.1954859-.1914801-.5106357.0040059-.7039121l.0000012.0000048Z" fill="#b9babf"/>
  <path d="M65.4016305,64.6560362c.2640105-.2652605.6960706-.2652605.9613287,0,.2652593.2649462.2646343.6959123-.0006238.9649156-.0014154.0014143-.002838.0028237-.0042666.0042237-.2671319.2621272-.6961825.2580702-.9583098-.0090617-.2652593-.2641653-.2641676-.6951314.0018714-.9600776Z" fill="#f1f1f2" isolation="isolate" opacity=".05"/>
  <path d="M65.529268,64.7827332c.1953216-.1945669.5112023-.1945669.706524,0,.1956764.1957145.1956764.5129928,0,.7087073-.1961359.1953573-.511794.1981668-.7077727-.0012476-.1961347-.1953526-.1942621-.5105452.0012488-.7074597Z" fill="gray"/>
  <path d="M65.7197862,64.8368843c.1057916-.1065737.2460657-.1490156.3840006-.1409015-.1863052-.0939311-.4189521-.0683413-.5745187.0867551-.1955121.1969144-.1973835.5121023-.0012488.7074597.0897193.0903455.2061214.1357492.323771.1418348-.0479025-.0234042-.0940895-.048837-.1338778-.0894074-.195355-.1941098-.1941062-.5107024.0018726-.7057454l.0000012.0000048Z" fill="#b9babf"/>
  <path d="M67.1695011,63.8470027c-.2660378-.2640129-.2647902-.694979.0010928-.9599252.2641664-.2652605.6963813-.2652605.9619525,0,.265414.2649462.2638534.6959123-.0012488.9649156-.0015976.0015952-.0032035.0031856-.0048177.0047666-.266958.2615701-.6954123.2571988-.9569788-.0097617v.0000048Z" fill="#f1f1f2" isolation="isolate" opacity=".05"/>
  <path d="M67.2983862,63.0137698c.1954466-.194705.5115452-.194705.7069918,0,.1961359.1956669.1945752.5117928-.0004678.7087073-.0021642.0021904-.0043487.004357-.0065534.0065094-.1961228.1911479-.510069.1871194-.7012193-.0090046-.1956669-.1944193-.1944181-.5105452.0012488-.7062121Z" fill="gray"/>
  <path d="M67.8727501,62.9270147c-.1863052-.0939311-.4189521-.0683413-.5743628.0867551-.195668.1956669-.1969156.5117928-.0012488.7062121.0900312.0917502.2061214.1357492.3236151.1432395-.0479025-.0235614-.0940883-.0491512-.1341897-.0895646-.1944193-.1953526-.1931705-.5102309.0028083-.7074597.105169-.1048547.245599-.1487013.3833779-.1391825Z" fill="#b9babf"/>
  <path d="M68.9383098,62.0767869c-.2658831-.262451-.2646355-.6940409.0009357-.9591443.2660509-.2649271.6962135-.2649271.9622644,0,.265414.2650986.2647902.6966932-.0012488.9655393-.0020964.0020952-.0042059.0041809-.0063296.0062475-.2673366.2604415-.6951838.2548464-.9556229-.0124902l.0000012-.0001524Z" fill="#f1f1f2" isolation="isolate" opacity=".05"/>
  <path d="M69.0641271,61.9490423c-.1934919-.1952716-.1920491-.5104262.0032225-.7039169.1953859-.1949383.5116749-.1950097.7071478-.0001571.1961359.1953573.1944193.5116404-.0006238.7083977-.0022369.0022666-.0044951.0045094-.006776.0067284-.1960799.1910717-.5099274.1870099-.7009967-.0090712-.0006595-.0006571-.0013178-.001319-.0019738-.0019809Z" fill="gray"/>
  <path d="M69.2580225,61.2975528c.1061035-.1053213.2455978-.1490108.3844684-.1405872-.1870849-.0929978-.4191081-.0674079-.5751425.0881598-.0006619.0006571-.0013226.0013143-.0019809.0019714-.1941812.1945859-.1938538.5097452.0007321.7039264.0901884.0915931.2061214.1357492.32424.1430824-.0483703-.0234042-.0940883-.0489941-.1341897-.0895646-.1947062-.1957526-.1938681-.5122785.0018726-.706993v.0000048Z" fill="#b9babf"/>
  <path d="M64.7478458,62.2329738c.2660866-.2648414.6961778-.2648414.9622644,0,.2646343.2665081.2644783.6965409-.0006238.9652298-.0020345.002038-.0040809.0040666-.0061403.0060808-.2671711.2612272-.6955218.2564083-.9567479-.0107617-.2655712-.2627653-.2636986-.6940409.0012476-.960549Z" fill="#f1f1f2" isolation="isolate" opacity=".05"/>
  <path d="M64.8750166,63.0677638c-.0008178-.0008143-.0016333-.0016333-.0024464-.0024523-.1934467-.1953145-.1919324-.510469.0033821-.7039169.1951216-.1951573.5113392-.1957145.7071478-.0012476.1949633.1964954.1949633.5134594,0,.7099548-.0013881.0013952-.0027856.0027809-.0041904.0041618-.1961716.1925812-.5113154.189667-.7038943-.0065046l.0000012.0000048Z" fill="gray"/>
  <path d="M65.4509377,62.2737014c-.186929-.0933073-.419264-.0684984-.5749866.0876932-.0008202.0008143-.0016381.0016285-.0024523.0024476-.1939645.1948002-.1932848.5099595.0015166.7039216.086517.085798.2018858.1363063.3236151.1416776-.0480584-.0219995-.0944014-.0489941-.1338778-.0880027-.0004881-.0004857-.000975-.0009762-.0014607-.0014666-.1939919-.1957478-.1925693-.5116928.0031773-.7056835.1059463-.1053213.2463776-.1493251.3844684-.1405872Z" fill="#b9babf"/>
  <path d="M66.5163402,61.4247117c-.2657259-.2629177-.2644783-.695598.0010928-.9608585.2659081-.2646843.6957326-.2646843.9616406,0,.2657271.2654176.2641664.696698-.0006238.965387-.0020678.0020761-.0041487.004138-.0062427.0061856-.2669128.2609987-.6948683.2562035-.9558658-.0107093l-.0000012-.0000048Z" fill="#f1f1f2" isolation="isolate" opacity=".05"/>
  <path d="M66.6427039,61.2975194c-.1940514-.1954478-.1929217-.5111928.0025226-.7052454.1951716-.1954478.5117702-.1958669.7074597-.0009381.1950728.1960668.1947943.512988-.0006238.7087073-.0018976.0019238-.0038106.0038285-.0057392.0057189-.1958716.1920241-.5103214.1889051-.7023455-.0069665-.000425-.0004238-.00085-.0008524-.0012738-.0012762Z" fill="gray"/>
  <path d="M66.8362137,60.6450061c.1051666-.1064166.2455978-.1493251.3838446-.1404301-.1863052-.0942407-.4189521-.0683413-.5748306.0876932-.0004286.0004238-.0008559.0008524-.0012821.0012762-.1947395.1947574-.1947252.5105119.0000333.7052502.0864016.0859266.201862.1363635.3236151.1413681-.0474346-.0218471-.0937764-.0488417-.1338778-.0889408-.195199-.1944193-.1934824-.5107024.0024964-.7062121l.0000012-.0000048Z" fill="#b9babf"/>
  <path d="M68.653076,67.9068555c.2643224-.2638557.6962266-.2638557.9614847.0010905.2657271.2651033.2641664.6963837-.0007797.965387-.0020214.0020238-.004057.0040332-.0061046.0060284-.2672949.2606034-.6952421.2551798-.9558479-.012114-.2655712-.2629177-.2644795-.6941981.0012476-.9603918Z" fill="#f1f1f2" isolation="isolate" opacity=".05"/>
  <path d="M68.7807135,68.0351144c.19518-.1949097.511344-.1949097.706524,0,.00005.0000476.0000988.0001.0001488.0001476.1956216.195705.195555.5129356-.0001488.7085596-.0015785.0015904-.0031678.0031666-.0047677.0047332-.1961264.1921336-.5108714.1888956-.703005-.0072284-.1961347-.1944193-.1939502-.5108547.0012488-.7062121Z" fill="gray"/>
  <path d="M68.9710769,68.0878608c.1057904-.105169.2462216-.1491679.3844684-.1407443-.1863052-.0929978-.4189521-.068346-.5748306.0880027-.195199.1953573-.1973847.5117928-.0012488.7062121.0903431.0912836.2064333.1352826.323771.1427729-.0475906-.0230947-.0940895-.0500893-.1340338-.0890979-.0005619-.0005619-.0011214-.0011238-.0016809-.0016904-.1938264-.1957859-.1922348-.5116357.0035535-.7054597l.0000012.0000048Z" fill="#b9babf"/>
  <path d="M70.4207912,67.0981363c-.2655706-.2627605-.2643224-.6937266.0012482-.9602347.0000536-.0000524.0001077-.0001095.0001613-.0001619.266023-.2653319.6967712-.26477.9621031.0012524.2649468.2650986.2636986.6962218-.0012482.9641346-.0020482.0020523-.0041088.0040904-.0061832.0061189-.2670836.2609463-.6951355.2559702-.9560812-.011114v.0000048Z" fill="#f1f1f2" isolation="isolate" opacity=".05"/>
  <path d="M70.5481245,66.9717488c-.1944603-.1954002-.1936955-.5114452.0017071-.7059073.1953413-.1952573.511963-.1952573.7073043,0,.1959788.1955097.1944187.5122595-.0006244.7088644-.0013369.0013428-.0026815.0026761-.0040332.0040047-.1961704.1925812-.5113148.1896718-.7038949-.0064998-.000153-.0001524-.0003065-.0003048-.0004589-.0004619Z" fill="gray"/>
  <path d="M71.1245063,66.178153c-.1863052-.0933073-.4183283-.0684984-.5746747.0876932-.0001536.0001524-.0003071.0003048-.0004601.0004571-.1951496.1947145-.195502.5107643-.0007881.7059121.0903443.0917455.2064339.1354349.3236157.1429252-.0475906-.0230947-.0942448-.0499322-.1335653-.0890979-.0001494-.0001476-.0002982-.0003-.000447-.0004476-.194552-.1959192-.1934437-.5124595.0024755-.7070121.1053225-.1051642.2455972-.1490108.383844-.1404301Z" fill="#b9babf"/>
  <path d="M72.1910022,64.3690905c.2657515-.2652319.6960278-.2653748.9619525-.0003143.2649468.2661938.2646349.6963837-.0003119.9652298-.0018881.0018904-.0037868.0037713-.0056969.005638-.2672146.261432-.6957641.2567369-.9571919-.0104759-.2655706-.2629177-.2643224-.6940409.0012482-.9600776Z" fill="#f1f1f2" isolation="isolate" opacity=".05"/>
  <path d="M72.3175469,65.2032472c-.000469-.0004714-.0009375-.0009428-.0014047-.0014143-.1937205-.1955288-.1922527-.5110785.0032773-.7047978.1949431-.1952907.5112047-.1958478.7068359-.0012476.1953883.196424.1951091.5138785-.0006244.7099548-.001441.0014476-.0028904.0028856-.0043487.0043189-.1962561.1924907-.5113994.1894432-.7038919-.0068141h.0001565Z" fill="gray"/>
  <path d="M72.8940935,64.4088753c-.186929-.0928407-.4189521-.0681889-.5746747.0881598-.000472.0004667-.0009428.0009333-.0014125.0014047-.1947544.1945002-.1949603.5100547-.0004601.7048073.0866319.0860075.2022738.1365349.3242394.1416776-.0493959-.0211662-.0946246-.0509655-.1335653-.0880027-.0003911-.0003905-.0007815-.0007857-.0011714-.0011762-.1942371-.1957478-.1930139-.511888.0027315-.7061264.1057916-.1053261.2454425-.1490156.384313-.1407443Z" fill="#b9babf"/>
  <path d="M67.9992924,65.4852025c.2660509-.2649271.6962135-.2649271.9622644,0,.2649474.2654128.2643224.6966932-.0009357.9650727-.0015631.0015619-.0031333.003119-.0047106.0046666-.2670878.2619272-.6959397.2577416-.9578657-.0093474-.2655712-.2636986-.2640105-.694979.0012476-.9603918Z" fill="#f1f1f2" isolation="isolate" opacity=".05"/>
  <path d="M68.1277097,65.6125281c.1948871-.1942621.5119488-.1955097.706368,0,.1954692.1956811.1954692.5127166,0,.7083977-.0020178.002038-.0040523.0040618-.0061046.0060665-.1960823.1914384-.5102297.1876718-.7016681-.0084093-.1961347-.1942621-.1948871-.5106976.0014047-.7060549Z" fill="gray"/>
  <path d="M68.3182266,65.6649555c.1056344-.1050118.2462216-.1491727.3844684-.1388729-.1872409-.0945549-.419264-.0689651-.5749866.0862885-.1964478.1955097-.1975394.5121071-.0014047.7062121.0901884.0915931.2069023.1357492.3240841.1426157-.0475906-.0229376-.0942454-.0483703-.1338778-.0889408-.000444-.0004428-.0008869-.0008905-.0013285-.0013333-.1941502-.1958335-.1927872-.5119785.0030452-.7061264v.0001571Z" fill="#b9babf"/>
  <path d="M69.7676297,64.6755405c-.2652581-.2626082-.2646343-.6940409.0012488-.960549.2647908-.2636986.6966944-.2636986.962265.0012476.2649468.2652605.2638545.6966932-.0012482.9650727-.0019988.002-.0040106.0039856-.0060344.0059618-.2672527.2607749-.6953016.2555178-.9560741-.0117331h-.0001571Z" fill="#f1f1f2" isolation="isolate" opacity=".05"/>
  <path d="M69.8944589,64.548653c-.1941371-.1953573-.1931467-.5111071.0022119-.7052454.1955181-.1945336.5114744-.1945336.7069924,0,.1966037.1955097.1947312.5117928-.0003119.7087073-.00185.0018666-.0037148.003719-.0055945.005557-.1961668.1917193-.5106125.1881147-.7023336-.0080522-.0003226-.0003238-.000644-.0006428-.0009643-.0009666Z" fill="gray"/>
  <path d="M70.0878157,63.8958349c.1050112-.1051642.2455978-.1491679.3838446-.1404301-.1864611-.0928407-.4192646-.0672508-.5749872.0880027-.0003226.000319-.0006452.0006428-.0009666.0009619-.1948264.1946716-.1949538.5104214-.0002821.7052502.0906556.0915931.2065892.1357492.323927.1427729-.0475906-.0230947-.0940889-.0488417-.1338778-.0890979-.1956669-.1953573-.1937955-.5107024.0024964-.7076168l-.0001542.0001571Z" fill="#b9babf"/>
  <path d="M4.5130888,25.9168913c1.1271927-1.1287522,4.2778429.1898932,7.0365308,2.9515477,2.7599355,2.7589998,4.0815475,5.9088691,2.9523263,7.0376213-1.1259451,1.126257-4.2778381-.194574-7.0376213-2.9540429-2.7593117-2.7574427-4.0785857-5.9101167-2.9512358-7.0351261Z" fill="url(#linear-gradient5)"/>
  <path d="M.6961732,29.7325641c-1.1279736,1.1275046.1919193,4.2776834,2.953731,7.0352809,2.7561927,2.7602498,5.9085572,4.0798332,7.0352832,2.953731l3.8167584-3.8155109c-1.1259451,1.1262546-4.2778381-.1945764-7.0376213-2.9540453-2.7593117-2.7574403-4.0785857-5.9101167-2.9512358-7.0351261l-3.8170727,3.8156656.0001571.0000048Z" fill="url(#linear-gradient6)"/>
  <path d="M7.2513344,33.1662505c2.7580641,2.7602498,5.9099619,4.0784285,7.0371546,2.9523286l.2134569-.2125188c-1.1259451,1.126257-4.2778381-.194574-7.0376213-2.9540429-2.7593117-2.7574427-4.0785857-5.9101167-2.9512358-7.0351261l-.2140807.2112713c-1.1273499,1.1287522.1930145,4.2775286,2.9524834,7.0380903l-.0001571-.0000024Z" fill="#7f7f80" isolation="isolate" opacity=".5"/>
  <path d="M3.6288428,36.9103035c2.7611879,2.7586879,5.9102714,4.0785857,7.0384022,2.9524834l.2134569-.2153283c-1.1281308,1.1279736-4.2778429-.1906765-7.0371546-2.9496763-2.7599355-2.7614974-4.0798285-5.9113643-2.9512358-7.0393379l-.2147045.2137664c-1.1273499,1.1275046.1931717,4.2787762,2.9512358,7.0380903v.0000024Z" fill="#7f7f80" isolation="isolate" opacity=".3"/>
  <path d="M7.9277471,32.1771546c.0035856.0065522.0764554.0845695.1516631.1610272.0759887.0766125.1547869.1493251.162901.1546297,2.3046319,2.2333216,5.0096449,3.1625047,5.946942,2.226767.0004714-5.4727531,3.8802665-6.6949698,3.8802665-6.6949698l-2.838267-2.8385789-1.6442902-1.6435116-1.1933531-1.1921031s-1.0864651,3.8757404-6.6959055,3.8772999c-.934802.9379233-.0074903,3.6416887,2.2300431,5.9494372v.0000024Z" fill="url(#linear-gradient7)"/>
  <path d="M7.9325756,32.1819854c.0042142.0081141.0741173.0820743.1468299.1560344.0728697.0753649.1487013.1426157.1568154.1466728,2.2138149,2.1446951,4.8473677,3.0008561,5.7826363,2.0641803.1110974-5.3636842,3.9359699-6.6387973,3.9359699-6.6387973l-2.7235792-2.7240483-1.5782869-1.5775084-1.1445114-1.1452923s-1.1440447,3.8208131-6.6428543,3.9336271c-.9354258.9366757-.0784839,3.5681976,2.0669898,5.7851339l-.0000095-.0000024Z" fill="url(#linear-gradient8)"/>
  <path d="M7.9325756,32.1819854c.0042142.0081141.0741173.0820743.1468299.1560344.0728697.0753649.1487013.1426157.1568154.1466728,2.2138149,2.1446951,4.8473677,3.0008561,5.7826363,2.0641803.1110974-5.3636842,3.9359699-6.6387973,3.9359699-6.6387973l-2.7235792-2.7240483-1.5782869-1.5775084-1.1445114-1.1452923s-1.1440447,3.8208131-6.6428543,3.9336271c-.9354258.9366757-.0784839,3.5681976,2.0669898,5.7851339l-.0000095-.0000024Z" fill="url(#radial-gradient)" isolation="isolate" opacity=".5"/>
  <path d="M7.9325756,32.1819854c.0042142.0081141.0741173.0820743.1468299.1560344.0728697.0753649.1487013.1426157.1568154.1466728,2.2138149,2.1446951,4.8473677,3.0008561,5.7826363,2.0641803.1110974-5.3636842,3.9359699-6.6387973,3.9359699-6.6387973l-2.7235792-2.7240483-1.5782869-1.5775084-1.1445114-1.1452923s-1.1440447,3.8208131-6.6428543,3.9336271c-.9354258.9366757-.0784839,3.5681976,2.0669898,5.7851339l-.0000095-.0000024Z" fill="url(#linear-gradient9)" isolation="isolate" opacity=".7"/>
  <path d="M7.9277471,32.1771546c.0035856.0065522.0764554.0845695.1516631.1610272.0759887.0766125.1547869.1493251.162901.1546297,2.3046319,2.2333216,5.0096449,3.1625047,5.946942,2.226767.0004714-5.4727531,3.8802665-6.6949698,3.8802665-6.6949698l-2.838267-2.8385789-1.6442902-1.6435116-1.1933531-1.1921031s-1.0864651,3.8757404-6.6959055,3.8772999c-.934802.9379233-.0074903,3.6416887,2.2300431,5.9494372v.0000024Z" fill="url(#radial-gradient1)" isolation="isolate" opacity=".6"/>
  <path d="M7.9325756,32.1819854c.0042142.0081141.0741173.0820743.1468299.1560344.0728697.0753649.1487013.1426157.1568154.1466728,2.2138149,2.1446951,4.8473677,3.0008561,5.7826363,2.0641803.1110974-5.3636842,3.9359699-6.6387973,3.9359699-6.6387973l-2.7235792-2.7240483-1.5782869-1.5775084-1.1445114-1.1452923s-1.1440447,3.8208131-6.6428543,3.9336271c-.9354258.9366757-.0784839,3.5681976,2.0669898,5.7851339l-.0000095-.0000024Z" fill="url(#radial-gradient2)" isolation="isolate" opacity=".5"/>
  <path d="M7.9277471,32.1771546c.0035856.0065522.0764554.0845695.1516631.1610272.0759887.0766125.1547869.1493251.162901.1546297,2.3046319,2.2333216,5.0096449,3.1625047,5.946942,2.226767.0004714-5.4727531,3.8802665-6.6949698,3.8802665-6.6949698l-2.838267-2.8385789-1.6442902-1.6435116-1.1933531-1.1921031s-1.0864651,3.8757404-6.6959055,3.8772999c-.934802.9379233-.0074903,3.6416887,2.2300431,5.9494372v.0000024Z" fill="url(#radial-gradient3)" isolation="isolate" opacity=".3"/>
  <path d="M.4529123,29.9744132c-1.1988101,1.2013076.0641318,4.4104684,2.8217293,7.1666611,2.7597784,2.7594689,5.9690986,4.0236584,7.1693134,2.8234436.0411943-.0427561.0591367-.1059499.095493-.1541631-1.2228381.9190452-4.2302488-.3791626-6.8895438-3.0426718-2.6619473-2.658045-3.9620217-5.6617082-3.0418908-6.88892-.0475894.0391658-.112345.0543011-.1550964.0956501h-.0000048Z" fill="url(#linear-gradient10)"/>
  <path d="M35.0705606,25.499032l-4.9072853,4.9075949,11.2488372,11.2478991,4.9061925-4.9074377-11.2477443-11.2480562Z" fill="url(#linear-gradient11)"/>
  <path d="M35.0705606,25.499032l-4.9072853,4.9075949,11.2488372,11.2478991,4.9061925-4.9074377-11.2477443-11.2480562Z" fill="url(#linear-gradient12)" isolation="isolate" opacity=".6"/>
  <path d="M35.0705606,25.499032l-4.9072853,4.9075949,11.2488372,11.2478991,4.9061925-4.9074377-11.2477443-11.2480562Z" fill="url(#linear-gradient13)" isolation="isolate" opacity=".6"/>
  <path d="M46.3183026,36.7470859l-4.9061901,4.9074401-11.2488372-11.2478991,4.9072853-4.9075949,11.247742,11.2480539Z" fill="url(#linear-gradient14)" isolation="isolate" opacity=".5"/>
  <path d="M46.5323809,35.3178121l-11.2717724-11.2702129-.1900479,1.4514328,11.2477443,11.2480562.214076-1.4292761Z" fill="url(#linear-gradient15)"/>
  <path d="M20.6389406,27.0500172l-.3072309.3062952-6.8644253-6.8631754.293655-.3209639,6.8780012,6.8778441ZM30.2046267,31.9337364l5.7809221-5.7812316-.2562083-.4381445-5.87142,5.8728247.3467062.3465514Z" fill="#d0d2d3" isolation="isolate" opacity=".2"/>
  <path d="M10.482816,19.0512208c2.0582519-1.8908249,8.2205175-7.6116722,10.8712317-9.3346045,3.6145346-2.3490987,8.5285293-5.1010784,15.4700338-6.1305937,4.8915238-.7257164,9.0799569.5617238,10.5395038,2.2428393.7753343-.7041835,1.3851176-3.0368987,1.3851176-3.0368987,0,0,.6035407-1.0820988-6.1399565-2.5280701-6.7441234-1.4487798-16.3765983,3.3692522-21.7952051,7.1037805-5.1447703,3.5451017-9.9526579,10.6555927-10.3307301,11.6835473h.0000048Z" fill="url(#linear-gradient16)"/>
  <path d="M36.8240768,3.5860232c4.8915238-.7257158,9.0799569.5617244,10.5395038,2.2428393.7751795-.7041835,1.3852748-3.0370546,1.3852748-3.0370546,0,0,.6033835-1.0819426-6.1399565-2.5277579-1.9412261-.4153637-4.1263322-.3036429-6.3740082.1451121l-1.2676228,3.5179526c.6079096-.1220192,1.2144145-.2454425,1.856809-.3412474v.0001559Z" fill="url(#linear-gradient17)" isolation="isolate" opacity=".8"/>
  <path d="M36.8240768,3.5860232c4.8915238-.7257158,9.0799569.5617244,10.5395038,2.2428393.7751795-.7041835,1.3852748-3.0370546,1.3852748-3.0370546,0,0,.6033835-1.0819426-6.1399565-2.5277579-1.9412261-.4153637-4.1263322-.3036429-6.3740082.1451121l-1.2676228,3.5179526c.6079096-.1220192,1.2144145-.2454425,1.856809-.3412474v.0001559Z" fill="url(#linear-gradient18)"/>
  <path d="M20.4710493,8.7409331c-2.9019322,1.9972414-1.1420162,1.2432829.0549225.4181724,5.4200115-3.7332806,14.4771856-8.0431079,21.3308445-7.28244,3.5585216.3950789,5.8658034,1.7081089,6.4754297,2.2108519.1015786-.2541804.0149782-.02715.091436-.2502793-.6608084-.6074418-3.7802474-2.51153-8.1939943-2.6663163-5.5751126-.1945752-14.340503,3.835639-19.7586431,7.5701672l.0000048-.0001559Z" fill="url(#linear-gradient19)"/>
  <path d="M11.5212156,22.4391987l6.864892,6.8631754s1.9727444-.229528,3.5362079-.3559155c3.3004419-.2675985,8.2823113,2.9871231,8.2823113,2.9871231l5.7809221-5.7810768.3615296-2.7685186s-1.4444091-1.6879796-3.3714355-5.0583247c-1.9262455-3.3717474.8428994-6.8631754,4.2137111-9.2714108,2.2415905-1.6004459,5.3663365-2.3946607,7.5068175-2.7549446l-.0012476.0012482C29.8178166,1.9880742,11.5212156,22.4391987,11.5212156,22.4391987Z" fill="url(#linear-gradient20)"/>
  <path d="M11.5212156,22.4391987l6.864892,6.8631754s1.9696206-.2754007,3.5362079-.3559155c3.6245248-.1870861,8.2823113,2.9871231,8.2823113,2.9871231l5.7809221-5.7810768.3615296-2.7685186s-1.4444091-1.6879796-3.3714355-5.0583247c-1.9262455-3.3717474.8428994-6.8631754,4.2137111-9.2714108,2.2415905-1.6004459,5.3663365-2.3946607,7.5068175-2.7549446l-.0012476.0012482C29.8178166,1.9880742,11.5212156,22.4391987,11.5212156,22.4391987Z" fill="url(#radial-gradient4)" isolation="isolate" opacity=".3"/>
  <path d="M45.2725651,6.2119291C32.7195917-.4455928,11.4606789,20.6936419,11.4606789,20.6936419c.0488417.1369968-.3398397.544092-.3145641.6771889.1338778.7229069.3751055,1.0683679.3751055,1.0683679,0,0,18.2965963-20.4511246,33.1737035-16.1386444.2045595-.0349516.389929-.0605414.5776389-.0886277l.0000024.0000024Z" fill="url(#linear-gradient21)"/>
  <path d="M11.1459577,21.3708309c.1338778.7229069.3751055,1.0683679.3751055,1.0683679,0,0,18.2966011-20.4511246,33.1737059-16.1386444.2045595-.0349516.389929-.0605414.5776389-.0886277-.7430374-.3922706-1.5127551-.6907648-2.2988558-.9112412C28.5854597,2.7797932,11.5212203,21.8237965,11.5212203,21.8237965c0,0-.1518203-.2245352-.2808601-.6773461-.0567987.0940883-.1036071.1772554-.0942454.2243781l-.0001571.0000024Z" fill="#d0d2d3" isolation="isolate" opacity=".5"/>
  <path d="M11.460836,20.6934824S32.7197488-.4457511,45.2727222,6.2117707c.7946814-.1131247,1.4094575-.1692972,1.6708157-.1692972.1419919,0,.2566773-.049775.3776031-.0926847-.0062427-.0592927-.0148235-.1195222-.0223138-.1813118-1.5079171-1.6489716-5.6418944-2.8974037-10.4745934-2.1826097-6.9416616,1.0296712-11.8554992,3.7816509-15.4701909,6.1309062-2.6507143,1.7227764-8.810018,7.4409714-10.8712317,9.3333569-.0185662.0563273-.0371372.1071951-.0450942.1384015-.0494607.2416967.8045145.8989147,1.023119,1.5051077v-.0001571Z" fill="url(#linear-gradient22)"/>
  <path d="M36.9353313,4.0090323c4.62533-.6824942,8.5811138.434244,10.2377322,1.9783609.0482155-.0162276.1018905-.0215328.1480775-.0376045-.0062427-.0592927-.0148235-.1195222-.0223138-.1813118-1.5079171-1.6489716-5.6418944-2.8974037-10.4745934-2.1826097-6.9416616,1.0296712-11.8554992,3.7816509-15.4701957,6.1309062-2.6507143,1.7227764-8.810018,7.4409714-10.8712317,9.3333569-.0185662.0563273-.0371372.1071951-.0450942.1384015-.0135711.0683436.0524273.1770982.1522917.3050476.0018761-.0081141.0018761-.0121711.0043713-.0202852,2.0621518-1.8920725,8.2206746-7.6102674,10.873884-9.3346045,3.6112585-2.3464464,8.5265008-5.1001421,15.4667577-6.1295014l.0003143-.0001559Z" fill="url(#linear-gradient23)" isolation="isolate" opacity=".2"/>
  <path d="M32.2845685,20.9972801c2.0318811,3.041267,3.7009802,5.1552224,3.7009802,5.1552224l.3615296-2.7685186s-1.4444091-1.6879796-3.3714355-5.0583247c-1.9262455-3.3719046.8541324-6.8458555,4.2137111-9.2715667,3.9145919-2.8301523,10.1742266-2.4687768,10.1742266-3.2252318-3.8631026.4490675-10.8665533.9650733-15.2325512,6.9560161-1.7375975,2.3892001-1.6548994,5.5112927.1535393,8.2124057v-.0000024Z" fill="url(#linear-gradient24)"/>
  <path d="M32.6732499,12.8145224c4.1526982-5.6941646,10.6833671-6.442662,14.6379032-6.8887646.0259018-.0321427.0524273-.0647538.0524273-.0968971-3.8631026.4490675-10.8665533.9650733-15.2325512,6.9560161-1.7375975,2.3892001-1.6548994,5.5112927.1535393,8.2124057,2.0318811,3.041267,3.7009802,5.1552224,3.7009802,5.1552224l.0758316-.5762342c-.63069-.8296354-1.8410522-2.4609735-3.2356863-4.5480914-1.8059435-2.7022059-1.8922272-5.8271079-.1524441-8.2136545v-.0000024Z" fill="url(#linear-gradient25)"/>
  <path d="M18.6935004,28.9960765l-.3073881.3062952-7.1716563-7.1710301.3067643-.3075428,7.17228,7.1722777Z" fill="#d0d2d3" isolation="isolate" opacity=".2"/>
</svg>