<?xml version="1.0" encoding="UTF-8"?>
<svg id="Layer_1" xmlns="http://www.w3.org/2000/svg" width="36" height="36" version="1.1" viewBox="0 0 36 36">
  <!-- Generator: Adobe Illustrator 29.6.1, SVG Export Plug-In . SVG Version: 2.1.1 Build 9)  -->
  <g>
    <path d="M18,35.25C8.4882812,35.25.75,27.5117188.75,18S8.4882812.75,18,.75s17.25,7.7382812,17.25,17.25-7.7382812,17.25-17.25,17.25Z" fill="#ec0000"/>
    <path d="M18,1.5c9.0981445,0,16.5,7.4018555,16.5,16.5s-7.4018555,16.5-16.5,16.5S1.5,27.0981445,1.5,18,8.9018555,1.5,18,1.5M18,0C8.0588989,0,0,8.0588989,0,18s8.0588989,18,18,18,18-8.0588989,18-18S27.9411011,0,18,0h0Z"/>
  </g>
  <path d="M16.9589844,11.1171875c-.000061-.5620728-.2730103-.9838867-.7782593-1.2070312-.4813232-.2230835-.9463501-.156311-1.3633423.1826172-.2246094.1818237-.4414062.3635254-.6659546.5537109-1.6687012,1.3890381-3.3295288,2.7701416-4.9981079,4.1592407-.0961304.0741577-.1925049.1156616-.3046875.1239624h-2.0136719v6.7217407h2.0214844c.0881958,0,.1846313.0328979.2568359.0907593,1.9172974,1.5792236,3.8268433,3.1663818,5.7441406,4.7539062.3128662.2562866.6820679.3389893,1.0751953.2479858.6575928-.1571655,1.0507812-.6776733,1.0507812-1.3720093v-7.1026001h-.0244141v-7.1522827ZM29.835022,14.9296875l-1.5801392-1.6210938-3.3134766,3.4227905-3.3212891-3.4227905-1.5801392,1.6210938,3.3213501,3.4227905-3.3213501,3.4229126,1.5801392,1.6201172,3.3212891-3.4141235,3.3134766,3.4141235,1.5801392-1.6201172-3.3213501-3.4229126,3.3213501-3.4227905Z" fill="#fff"/>
</svg>