<?xml version="1.0" encoding="UTF-8"?>
<svg id="Layer_1" xmlns="http://www.w3.org/2000/svg" width="36" height="36" version="1.1" viewBox="0 0 36 36">
  <!-- Generator: Adobe Illustrator 29.6.1, SVG Export Plug-In . SVG Version: 2.1.1 Build 9)  -->
  <g>
    <path d="M18,35.25C8.4882812,35.25.75,27.5117188.75,18S8.4882812.75,18,.75s17.25,7.7382812,17.25,17.25-7.7382812,17.25-17.25,17.25Z" fill="#ec0000"/>
    <path d="M18,1.5c9.0981445,0,16.5,7.4018555,16.5,16.5s-7.4018555,16.5-16.5,16.5S1.5,27.0981445,1.5,18,8.9018555,1.5,18,1.5M18,0C8.0588989,0,0,8.0588989,0,18s8.0588989,18,18,18,18-8.0588989,18-18S27.9411011,0,18,0h0Z"/>
  </g>
  <path d="M25.6464844,18.5067749c0-2.8595581-2.274353-5.1921997-5.0634766-5.1922607v1.6483765c1.9049072.0001221,3.4561157,1.5908203,3.4561157,3.5438843-.0001221,1.953125-1.5512085,3.5438232-3.4561157,3.5440063v1.6484375c2.7891235-.0001221,5.0634766-2.3245239,5.0634766-5.1924438ZM20.5830078,10.1992188v1.6484985c3.5767822.000061,6.4940796,2.9835815,6.4940796,6.6590576,0,3.6755371-2.9093018,6.6591187-6.4940796,6.6592407v1.6484985c4.4689941-.0002441,8.102478-3.7255859,8.102478-8.3077393,0-4.5819702-3.6334839-8.307373-8.102478-8.3075562ZM16.8291016,11.147522c0-.5603027-.2731934-.9806519-.7792969-1.203186-.4822998-.2225342-.9492188-.1567993-1.3671875.1728516-.2249146.1812134-.4420166.3623047-.6669922.5516968-1.671936,1.3846436-3.3359375,2.7609863-5.0078125,4.1456299-.0964355.0740967-.1929321.1156616-.3134766.1239624h-2.0087891v6.7001953h2.0253906c.0883179,0,.1845703.0332031.2568359.0908203,1.9208984,1.5740356,3.8339233,3.1561279,5.7549438,4.7382812.3133545.2554321.6832886.3376465,1.0770874.2470093.6591187-.1564941,1.0537109-.6759033,1.0537109-1.368103v-7.0791016h-.0244141v-7.1200562Z" fill="#fff"/>
</svg>