<?xml version="1.0" encoding="UTF-8"?>
<svg id="Layer_1" xmlns="http://www.w3.org/2000/svg" width="433" height="63" version="1.1" viewBox="0 0 433 63">
  <!-- Generator: Adobe Illustrator 29.6.1, SVG Export Plug-In . SVG Version: 2.1.1 Build 9)  -->
  <path d="M409.1789856,6.0303502c5.1480103-.5905204,10.8960266,2.6994996,15.8720093,2.8682199,1.9729919,0,3.6889954-.7592201,5.6620178.67488,1.9729919,3.1212502-1.8880005,17.1249504-5.3190002,17.6310501-1.1150208,0-3.5180054-.5904999-3.9470215-1.6870995-.3429871-.8436012.7730103-2.6152.8580017-3.7119007.4290161-4.3022995-3.0879822-9.5326004-7.8070068-9.2795-1.8009949,0-4.0319824,1.0122995-5.1469727,2.4463997-4.8040161,6.3270006,4.375,8.6890001,8.4069824,10.9667006,6.9490051,4.0492992,16.0429993,10.4605999,15.1849976,19.3183002-1.2009888,11.9790001-14.3269958,17.5466995-25.3079834,16.4500999-2.7449951-.2531013-6.2630005-2.0247002-8.7510071-2.1934013-2.9169922-.1686974-2.9169922,2.2777023-5.9190063-1.3497009-3.0029907-3.6274986-5.5769958-11.8946991-4.8049927-16.3656998.3439941-2.0245972,2.9169922-2.6152,4.7189941-2.7838974,1.1149902.3374977,1.2009888,3.2056999,1.6300049,4.3023987,1.7160034,4.4710007,10.2089844,12.0633011,15.3569946,9.3638,2.8309937-1.5185013,3.3450012-3.8805008,2.1440125-6.664299-2.8310242-6.2425995-16.9860229-6.4113998-20.8470154-16.6188011-4.6329956-12.1478004,6.6920166-21.8490796,18.1880188-23.1988297l-.1720276-.1687198ZM219.322998,34.4594002c-1.9729919.1687012-6.177002,1.0122986-6.6909943,3.2056999-1.1159973,4.7240982,2.9169922,2.024601,4.7180023,3.3744011,3.2599945,2.5307007-.2570038,8.5201988-3.6030121,9.7855988-21.276001,7.8454018-20.7610016-39.3957996-2.6599884-40.7454996,3.345993-.2530899,7.4639893.5904999,9.7809906,3.0368996,3.0879974,3.29,2.1439972,8.4359999,2.1439972,12.5696001.6010132.9279003,4.2900085.6748009,5.2340088.2530003,3.2599945-1.6870995,3.2599945-14.4254007,1.371994-16.87181-1.6299896-2.1089802-13.897995-5.0615501-16.8999939-5.2302704-15.4430084-1.01231-27.7109985,8.1827803-29.9420013,23.3674803-2.8309937,19.0651989,10.2949982,33.8281002,30.0269928,32.6471004,7.4640045-.4218025,16.901001-2.699501,21.3619995-8.9421005-.5139923-5.5676994.6010132-10.3762016,1.6300049-15.7751999-.6860046-.759201-14.4980011-.8436012-16.3860016-.6749001h-.0859985ZM375.4630127,21.8055c1.1159973-3.6273994,1.802002-10.6292,0-14.0879602-1.2010193-2.1933398-4.8900146-.2530999-6.7770081-.0843797-3.4320068.2530799-7.4640198-.67487-10.9810181-.5905099-11.9249878.33744-23.7649841,12.4008503-18.9599915,24.4642506,3.4309998,8.7733002,12.5249939,8.9419975,19.9890137,11.6414986,3.6029968,1.2653999,8.0639954,5.0615997,5.1479797,8.9421005-4.117981,5.5676994-14.67099-.5904999-17.6729736-4.8084984-.6870117-.9279022-1.802002-4.049202-2.2310181-4.3023033-1.2009888-.5904999-4.375,1.4341011-4.6329956,2.6151009-.6860046,3.7961998,5.5769958,15.9439011,9.3519897,17.209301,2.1440125.6749001,2.7449951-.5904999,4.4609985-.8434982,3.0880127-.4218025,6.8630066.5904999,10.2950134.3373985,9.2649841-.8436012,19.9029846-7.9298019,20.4179993-17.7154999.3429871-6.9174004-8.0639954-8.9421005-13.0400085-11.3041-3.0889893-1.4341011-5.4049988-3.1212997-8.2359924-4.639801-4.8900146-2.615099-8.9230042-1.7714996-8.2359924-8.8577003.5139771-5.9050989,6.177002-9.2794991,11.2379761-5.4832993,3.5180054,2.6151009,4.03302,6.1581993,3.4320068,10.2073994,3.7749939,2.024601,5.4049988,1.0967007,6.6060181-2.6994991h-.1719971ZM332.5679932,48.2099991c-6.177002-12.485199-9.5229797-27.5854988-16.7290039-39.6488791-1.4589844-2.3620601-2.6600037-4.7241101-6.09198-3.29001-1.4580078.5905199-4.2890015,6.0738902-5.1470032,7.6766896-4.9760132,9.954401-8.1499939,20.7523994-12.696991,30.8754997-.9440002,2.1090012-3.2600098,7.5079994-5.1480103,8.604599-1.7160034,1.0124016-4.2890015-1.0122986-4.632019,2.3621025-.2579956,2.1932983,2.9160156,3.964901,4.8040161,4.0491982.9440002,0,1.7160034-.3373985,2.6589966-.3373985,2.6600037,0,6.7780151.4217987,9.1799927.1687012,2.5740051-.2530022,5.7480164-3.8805008,3.0030212-5.989502-2.4880066,0-4.1180115.1688004-4.0320129-2.7837982,0-1.6029015,1.5440063-7.3393021,3.0020142-8.0985031,1.6299744-.7591972,8.664978-.8435974,10.6380005-.5904999,3.1749878.4218025,5.2339783,6.2425003,5.4909973,8.9420013.4289856,4.3866997-2.4880066,1.6871986-4.2900085,2.5307999-2.1440125,2.3620987.5149841,5.2303009,3.0889893,5.8208008,2.3160095.5061989,18.1880188.5061989,20.4179993,0,2.6600037-.6748009,5.1480103-3.3744011,3.3460083-5.9051018-1.6300049-.3374977-3.0880127.759201-4.4609985-.5061989-.7720032-.6749001-1.9729919-2.9525986-2.4880066-3.8805008h.0859985ZM303.3129883,35.3030014s-1.1149902-.3374023-.7720032-.759201l3.9460144-10.6293011c.6010132-.4217987,5.2340088,10.2075024,4.6329956,11.3885021h-7.8070068ZM257.6719971,41.4612999c-.4289856-6.580101,0-13.6662006.3430176-20.1618996.1719971-3.2900009-.5140076-6.9175005,1.6299744-9.7857008,1.6300049-1.3497,4.9760132,1.1810007,4.9760132-2.2776899,0-2.6151395-3.2600098-3.7961597-5.4899902-4.0492396-3.8610077-.4218001-13.3840179-.4218001-17.2440186,0-2.8320007.33744-6.348999,2.0246-5.0619965,5.31463.7720032,1.4341002,2.1450043.4217997,3.3460083.5904999,2.2299957.2531004,2.7449951,3.3744001,3.0879974,5.1459007,1.7160034,8.6047001,1.5439911,21.764698.4290009,30.5381012-.1710052,1.6871986-.7720032,3.4586983-1.8870087,4.7240982-1.7159882,1.0122986-4.3759918-.9278984-4.8899994,2.024601-.3439941,2.1089973,1.6300049,3.3743973,3.4309998,4.0492973,2.9170074,1.0123024,5.7480011-.3374977,8.7510071-.5061989,8.3220062-.5061989,18.102005.7593002,26.594986,1.0123024,1.0299988,0,2.4020081,0,3.1750183-.8436012,1.4580078-1.3497009,3.1739807-10.2075005,3.2599792-12.4007988.085022-1.6028023,0-3.2056007,0-4.8085022-5.5769958-3.8805008-4.4619751-.759201-6.0059814,3.1212997-1.2870178,3.4588013-3.7749939,6.664402-7.7210083,7.0862007-1.6300049.1687012-8.4079895.2531013-9.3509827-.759201-.6010132-.6749001-1.3730164-6.5800972-1.4590149-7.9297981l.0859985-.084301Z"/>
  <path d="M87.1348038,25.5807991v-10.9920988s-.9396057-2.3007002-1.366806-2.6416006c-1.1959-.8520994-2.7335968-.3407993-4.1003952-.5112-3.0754013-4.0048995,2.2210007-5.9647298,5.5526962-6.2203598,4.0149994-.3408399,15.547699-.51126,18.7937012,1.3633699,1.7080002,1.0225201,2.0500031,2.8119202,1.1110001,4.5160904-.8550034.8520994-3.1610031-.2556-4.4430008.8520994-.7679977.6817007-1.5370026,3.1528006-1.7080002,4.2605-.6839981,7.3281002.0849991,16.6161003.3420029,24.0293007.1699982,3.8344994-.9400024,8.1801987,1.8789978,11.3330002l4.2710037.6816978c1.6229935,2.9822998-.8540039,4.6865005-3.5020065,5.4534035-2.9899979.8520966-15.8894958.8520966-18.8793945,0-1.7938995-.5112-3.9296036-1.533802-4.0149994-3.6640015-.1709061-3.4935989,3.0752945-1.3633995,4.7837982-2.4710999,2.733696-1.7042007,1.0251999-14.9118004,1.5376968-18.2350006-.1707993-.9373016-1.0251007-1.1077003-1.7938995-1.1929016-2.9898987-.3408985-10.9346008-.3408985-13.9244995,0-.5979004,0-1.5375977.2556-1.7938995.8521004.5124969,4.5161018-1.1959991,13.5484009.683403,17.3828011,1.5376968,3.1528015,5.2109985.0000992,5.5526962,3.0676003.3416977,2.7266998-1.8794022,3.7493019-4.1858978,4.3456993-3.0753021.7668991-15.6329002.8521004-18.6228027,0-2.4773979-.7668991-5.381897-2.8970985-3.3316994-5.6237984,4.0151024.1703987,5.5527-.8521004,5.9799004-4.9421997.9396019-9.9696007-.3416977-21.4730015.2562027-31.6130009l-1.7939034-3.7493c-1.6231003-1.0225-4.4421997.7669001-4.7838974-1.8746099-.3417015-2.6415105,1.5377007-3.4936004,3.6733971-4.1752806,3.1607018-.9373097,13.3264008-.9373097,16.914299-.5964699,2.1356049.1704202,5.6380997,1.1929402,6.0652008,3.4936199.683403,3.9196405-2.3918991,2.1302404-4.6983948,3.0675402-2.2210999,1.4485998-1.4522018,10.9068995-1.366806,13.4632006.683403.5112991,1.5377045.5964985,2.3065033.6816998,4.5276031.3409004,9.8239975,0,14.3516006-.3408012h.2562027ZM148.0440063,16.7189007c4.9539948.4260998,5.0399933-6.7316008,4.7829895-10.0548005-.1699982-2.3006701-.2559967-4.8569902-2.9039917-5.3682501-3.4170074-.596473-12.3870087-.25563-16.1460114,0-2.1349945.08521-5.29599,1.0225301-7.260994.93732-1.9649963-.0852101-4.3570023-1.448558-6.5779953-1.278137-2.7330017.255627-5.2110062,3.5788272-6.4070053,5.794297,2.3919983,1.1929398,2.3919983,4.1752696,2.6490021,6.5611701.7689972,6.7316008.7689972,16.8716002.3410034,23.6884012-.0850067,2.0450974-.8540039,8.8619003-1.9640045,10.2252998-1.3669968,1.5337982-3.2470016,2.0449982-2.5629959,4.8569984.5979996,2.6414986,7.0899963,2.045002,9.310997,1.8745995,1.6230011-.0853004,3.4169998-.8521004,5.0400009-.8521004,2.3919983,0,5.6380005.7667999,8.201004.8521004,3.4169922.0852013,15.1210022.5112,17.6829987-.5112991,3.5029907-1.3633003,3.9299927-11.5886002,3.5879974-14.8265991-.2559967-2.6415024-2.1349945-4.6012993-4.7839966-3.4084015-2.6480103,4.3458023-1.4520111,9.3731995-7.0039978,11.4182014-2.8200073,1.1077003-10.1660004,1.4486008-12.302002-1.0224991-1.7080078-1.9598999-1.0250092-10.6513023-.5120087-13.3780022,1.3659973-.8521004,5.0400085-1.1077995,5.4670105.8521004.4269867,2.1301994-1.6230011,4.9421997,1.6229858,5.2830009,1.2810059.1703987,2.6480103-.1704025,3.1610107-1.533802,1.1959991-3.237999,1.5370026-11.1624985,1.1100006-14.6560993-.3410034-2.726799-1.0250092-4.4309998-4.1000061-4.1752987-3.8439941.3407993-.1710052,5.1125984-2.0500031,6.3055-.9400024.5964985-5.0410004.3408985-5.5529938-.6817017-.3419952-2.8118992-.1710052-12.8666992,1.7940063-14.6561193,1.9649963-1.7894096,10.7639923-1.3633699,12.8139954.5964699,1.7939911,1.7042503-.1710052,6.9872503,2.5630035,7.1576509ZM29.9848995,59.2388c.4271011-1.7042007.6834011-3.3232002.6834011-5.1125984,0-2.2154999-.8543015-4.4309006-1.0251007-6.561203-.7688999-9.8843994.4270992-20.7912979.1707993-30.7608986.4271011-2.2153997,1.2814007-2.1302004,3.3316002-1.9597998,5.8090019.4259996,4.2713013,3.9196005,5.2110023,8.0948992,1.3667984.4260998,3.7586975.766901,5.0401001,0,.5125999-.3407993.768898-.7667999.9396973-1.3633003.9397011-2.8971996.4272003-9.7991991-.8541985-12.6111193-.4272003-.8520994-1.452301-2.64151-2.3920021-2.7267199l-12.2158985.8520899-24.77351-.8520899c-3.587886.4260502-3.417034,10.7364407-3.1607561,13.2075405.512556,4.2605,2.7336261,4.3458004,6.4923758,3.4084988.85426-1.0226002,0-2.2154999.1708503-3.0675983.4271297-4.8570013,2.8190403-5.2830009,7.3466396-5.1126013,1.2814007.3408003.8543005,9.1175013.8543005,10.7365007.2561998,6.9871979,1.0250998,15.7637978.3417006,22.7510986-.3417006,3.4936028-3.6734009,7.6688995-.5126009,10.9920998h14.3515997v.0852013Z"/>
</svg>