<?xml version="1.0" encoding="UTF-8"?>
<svg id="Layer_1" xmlns="http://www.w3.org/2000/svg" width="308" height="49" version="1.1" viewBox="0 0 308 49">
  <!-- Generator: Adobe Illustrator 29.6.1, SVG Export Plug-In . SVG Version: 2.1.1 Build 9)  -->
  <path d="M142.5050049,0c-.197998,1.87103-2.1190033,3.14066-3.1119995,4.7444-.8610077,1.3364501-1.5890045,3.0738301-1.4560089,4.6775599.1320038,2.0046406,2.2510071,3.6752405.1320038,5.7467403-1.4570007,1.4033003-3.0460052,1.8042002-4.5690002.2672997-1.8540039-1.8042002-1.7879944-4.8112001-.8609924-7.0163698.9269867-2.2051401,4.5029907-5.8803701,6.4889984-7.1500001.7949982-.5345799,1.6559906-.801873,2.4499969-1.26963h.9940033-.0670013ZM8.1542797,44.9715004c1.8540201-.1336021,3.5756207-.8687019,5.4296207-1.0023003,3.8404999-.2672997,6.6215992,1.3363991,10.9918003.7350006,12.1173992-1.6705017,17.5470982-12.2952995,16.7525005-23.8556004-.7946014-12.2953205-9.9985008-18.3093405-21.652401-17.6411104-1.9202995.1336401-4.4365005.86868-6.1581001.86868-1.3242998,0-3.1121006-.9355099-4.6350498-1.1359799-2.0526805-.20047-6.3566804-.2004602-7.8796403,1.2696297-.9270115.86869-1.390519,2.80654-.198642,3.6084104,2.913482,0,3.5094118-.0668302,4.1053519,2.8065696,1.2581,6.2812996,1.3905301,20.1135006,0,26.4616985-.6621499,3.1406021-1.5229499,2.8065033-4.502645,2.8065033-2.118895,4.7444,4.5688652,5.3457985,7.7472047,5.0784988ZM28.8134995,15.7033005c2.1189003,6.0807991,1.0594006,22.7196007-7.8134003,22.8532982-2.7148991,0-3.9067001-.7350998-4.5688992-3.341198-1.3242998-5.0117016-.7284002-14.700901-.1324005-19.9799004.1986008-2.0047007.3973007-5.8803606,2.7147999-6.2812901,5.0986004-.9355202,8.210701,2.2051897,9.7999001,6.7490902ZM46.5592003,17.3069992c-4.5026016,17.7747993,7.8796997,32.8767014,26.3538017,27.7982025,14.1037979-3.8757019,18.2753983-25.392601,8.5418015-35.2154713C71.7210999.0668316,50.3334999,2.6729,46.5592003,17.3069992ZM73.6412964,16.1042004c2.9135056,6.2812996,1.5230026,24.523798-8.3430939,23.3878994-8.3432007-.9355011-9.1377029-17.7080002-6.6216011-23.6552.9932976-2.3387995,3.5094986-5.5461998,6.0918999-5.9471693,3.9729004-.6014004,7.283699,2.8733692,8.8066025,6.2144699h.0661926ZM100.5910034,26.5953007c6.1579971,6.2144985,12.4489975,14.0995998,18.8709946,19.712698,1.788002,1.6037025,3.5100021,3.6084023,5.6290054,1.2695999l.2649994-1.0023003c.3969955-9.7560997-.5960007-19.9799976,0-29.669199.0659943-1.670599.5289993-6.1476994,2.7140045-6.2812996,1.1259918-.0668993,2.8479919,1.0023003,2.9139862-1.4032898.0660095-2.2719698-3.9729919-3.4747801-5.760994-3.4747801-.4629974,0-.9929962.2673001-1.5230026.2673001-2.5159988,0-8.6079941-.5345798-8.7399979,3.20748-.0660019,3.0069904,2.8470001.66821,4.1050034,1.9377899,1.1259995,2.7398005.7279968,5.9472008.8610001,8.9542999.0659943,2.2719002.6619949,5.8134995.2649994,8.0186996,0,.2004013-.1990051.6014004-.3980026.6682014-.9929962.2004986-4.8990021-3.8757-5.7600021-4.7444-5.3639984-5.5463009-10.1969986-11.7608013-15.4946976-17.440671-1.7215958-1.4700899-4.0391006-.66822-4.2378006,1.6705599-.7945023,8.9542103.5298004,19.2449093,0,28.3995113-.0662003,1.6705971-.264801,4.0761986-.927002,5.546299-1.3904953,3.0737991-3.3769989.801899-4.2378006,1.9378014-.6620941.8686981-.1985931,2.539299.7284012,3.2075005,2.6486053,1.9378967,10.1968994,1.8041992,12.9779053.2672997,1.522995-.8687019,2.1849976-3.6084023.5299988-3.8089027-1.788002-.2672997-2.8470001,1.2697029-3.4431992-1.9377975-.463501-2.4724998-.463501-6.4150009-.5297012-9.0209999v-6.6823006h.7278976s.1989975.4008999.3980026.6013985l.0660019-.2004986ZM154.0269928,10.0234003c.0660095.8687.4630127,1.5368996.530014,2.4723997.6619873,7.8850994-.530014,16.7723999,0,24.7910995l-1.5230103,2.606102-3.04599.2004967c-1.3910065,2.4724007.7939911,3.9425011,2.9789886,4.5439034,2.1860046.6013985,12.25.6013985,14.4349976-.066803,1.9870148-.6013985,3.9730072-2.2052002,2.5830078-4.4102974-3.1790009.0667992-4.2380066-.3341026-4.5690002-3.6084023-.927002-7.7513981.5299988-17.2401981.0659943-25.1252985l.5960083-1.2696009c4.8999939-.66821,6.026001,1.6705999,5.7610016,6.1477013,5.5619965,2.3387985,5.3629913-2.4724007,5.0979919-6.5486212-.1320038-1.8710198-.7939911-6.2144897-3.1779938-6.3481297l-11.5209961.8018699-16.6210022-.7350497c-.529007.0668199-.7940063.2672899-1.125.6682301-1.6560059,2.13832-1.9199982,8.1522994-1.1920013,10.6916003.7949982,2.6728992,2.7809906,2.2719994,4.9660034,1.4701004-.1320038-1.737401,0-5.6799011,2.1849976-6.1477013.9929962-.2004499,2.6490021.1337004,3.7079926,0l-.1320038-.1335993Z"/>
  <path d="M285.618988,33.5177002c0,1.6403999,0,6.4304008,2.0510254,7.0209007.7279968.1968002,1.5879822-.459301,2.315979,0,1.322998,2.8214989.132019,5.1837006-2.6470032,6.2334976-2.1170044.7218018-12.5709839.7874031-14.7539978.1313019-.2649841-.0657005-2.0509949-1.1812019-2.1839905-1.3780022-1.0580139-2.0996971.5299988-3.4119987,1.7210083-4.9867973.9259949-1.1811028,1.2569885-1.1155014,1.7859802-2.9527016,1.3890076-5.1837006.3310242-17.847599.3970032-23.8841991,0-1.7716999.5290222-2.4278002-.1319885-4.3962898-.927002-2.6902604-2.0509949-2.1653204-4.4989929-2.4277902-.927002-2.6902504.6609802-3.8057203,3.0429993-4.3306503,3.1099854-.7217699,8.071991,0,11.4459839-.0656199,10.8510132-.19684,21.6360168-.91862,23.15802,12.7951498.7939758,7.2177-1.8530273,13.3856001-8.5360107,16.5352011-4.1679993,1.9685001-8.6669922,1.640398-13.1660156,1.8371983v-.1311989ZM287.802002,6.9432402c-1.5209961.3280797-1.7860107,2.0997-1.9850159,3.3463602-.4629822,3.9369993-.6609802,11.0890999-.2639771,14.9604988.4629822,4.7243004,5.6239929,3.018301,7.2779846-.1311989,1.6539917-3.149601,2.1170044-11.8109007.4630127-15.1573305-.9259949-1.9028597-3.3739929-3.4776397-5.5580139-3.0183296h.0660095ZM269.9379883,40.1449013c.2650146,1.5091972-.4629822,2.690197-1.8519897,3.2807999-1.9849854.9185982-7.8079834.6562004-10.256012.7217979-2.4479828.0656013-9.1299896,1.4435005-9.5929871-2.4277992-.3309937-2.9527016,2.3150024-1.2467003,3.8370056-2.2966003,0-2.4934006-1.654007-8.1362991-4.4990082-8.4643993-1.3889923-.1313-7.4100037.1968002-8.5350037.7217999-.2649994.1312008-.5289917.2623997-.7279968.5904999-.7279968,1.1155014-1.6539917,6.1679001-1.125,7.4146004.7279968,1.7060013,4.697998-1.1810989,3.7050018,3.0182991-.727005,3.0839996-5.6230011,2.3622017-7.7409973,2.4277992-2.1170044.0656013-4.8300018.918602-6.8809967-.2623978-1.4550018-.8530998-2.3150024-3.6744995-.529007-4.0026016,2.1170044-.3936996,2.3160095.7218018,3.8370056-1.5747986,3.375-5.118,6.0209961-16.2070999,8.3369904-22.4407005,1.3899994-3.7400999,3.3740082-10.0392003,5.6900024-13.1231501,1.4560089-2.0340999,3.572998-2.03409,5.1610107-.1312201,1.9189911,2.3621702,3.9039917,6.8896699,5.2929993,9.7111697,3.4399872,6.9553003,6.6159821,16.7976999,10.5200043,23.0311995,1.4559937,2.2965012,2.7129822,2.9527016,5.3589783,3.6744995v.1312027ZM243.3399963,17.573c-.4629974-.0655994-.5289917.1313-.7269897.459301-.3970032.7873993-2.6470032,7.5458984-2.5149994,8.0707989,1.8529968,1.2467003,4.1029968.1312008,6.1539917.3281002.3300018-.0655994.3970032-.3281002.3970032-.590601.3300018-1.968399-2.8450012-6.1678982-3.375-8.2019997l.0659943-.0655994ZM224.5500031,12.5206003c1.5879974,1.4434996.8600006,4.9868002,1.3889923,5.4460993,5.227005,1.8373013,5.0950012-2.2964993,4.8970032-6.1022997-.1329956-2.2965202-.595993-5.4460897-2.7789917-6.69279l-14.5559998.7217603-14.0270081-.7217603-.8600006.3280702c-1.322998,1.7716298-1.7200012,3.7401099-1.8529968,5.9054198-.197998,3.8057003,0,8.6613007,5.2929993,6.4960003-.0659943-4.1993999.6620026-6.8241005,5.5579987-6.0367002l.8600006,1.6403999v24.9997015l-1.322998,2.4277992c-1.1910095.6562004-3.5070038-.5904999-3.6390076,1.7060013-.1319885,2.3621979,3.572998,3.2151985,5.4250031,3.4119987,2.9120026.1968994,11.5130005.3280983,13.8950043-.9841995,1.1909943-.6562004,2.2489929-2.3622017,1.125-3.4776001-.8610077-.7873993-2.3159943,0-3.2420044-.5906029l-1.3899994-2.9526978c.4629974-7.8083-.7279968-16.4040012,0-24.0811005,0-.7873001.2649994-1.3779001.529007-2.0997,1.3899994,0,3.572998-.3281002,4.697998.7217999v-.0655994Z"/>
</svg>