<?xml version="1.0" encoding="UTF-8"?>
<svg id="Layer_1" xmlns="http://www.w3.org/2000/svg" width="400" height="142" version="1.1" viewBox="0 0 400 142">
  <!-- Generator: Adobe Illustrator 29.6.1, SVG Export Plug-In . SVG Version: 2.1.1 Build 9)  -->
  <path d="M186.7070007,0c-.1840057,2.26917-2.576004,3.6797299-3.7409973,5.5809202-1.0429993,1.5945497-1.901001,3.6183996-1.779007,5.5808802.1840057,2.3919001,2.6990051,4.4157.1230011,6.8689003-1.7169952,1.6557999-3.6179962,2.1464996-5.4579926.3678989-2.2080078-2.1464996-2.1470032-5.7034998-1.0429993-8.3406992,1.1039886-2.6371202,5.3359985-6.9914603,7.7279968-8.5246804.9199982-.613288,1.9619904-.9199321,2.9429932-1.5332201h1.227005Z"/>
  <path d="M80.0561981,97.3287964s-.8585968-2.1464996-1.2266006-2.4531937c-1.1038971-.7972031-2.5143967-.3066025-3.8022995-.4906006-2.8211975-3.7410049,2.0238037-5.5195999,5.1516037-5.7649002,3.6796951-.3066025,14.4735947-.4292984,17.4173965,1.2878952,1.5945053.9813004,1.9011002,2.6371994.9812012,4.2317047-.7973022.7972946-2.9438019-.2453003-4.1090012.7972946-.7360001.6133041-1.4719009,2.9438019-1.5331955,3.9863052-.6133041,6.8077011.0612946,15.4546967.367897,22.3237.1227036,3.5569992-.8585968,7.6659927,1.7172012,10.5490036l3.9863968.6129913c1.5332031,2.7600098-.7972946,4.3540039-3.1890945,5.0899963-2.7598038.7970123-14.7189026.7970123-17.4787064,0-1.655899-.4899902-3.6184006-1.4720001-3.6796951-3.3729858-.1227036-3.25,2.8210983-1.2880096,4.4156952-2.3300018,2.5758057-1.5950012.9199066-13.8610077,1.4104996-16.9880066-.1225967-.8590012-.9811935-.9820023-1.655899-1.1039963-2.7597961-.3069992-10.119194-.3069992-12.8789978,0-.552002.060997-1.4105988.1839981-1.655899.7969971.4906006,4.1699982-1.1039009,12.5719986.6132965,16.1290054,1.4106064,2.8829956,4.8450012-.0610046,5.1516037,2.8209991.3067017,2.5759888-1.7172012,3.4960022-3.9250031,4.0479889-2.8824959.6750031-14.5348969.7970123-17.2333984,0-2.2691994-.673996-4.967598-2.697998-3.0663986-5.2129974,3.7410011.1230011,5.2128983-.7969971,5.5195007-4.598999.8585968-9.260994-.3679008-19.9939957.2453995-29.3768997l-1.7172012-3.4957962c-1.5332985-.9812012-4.1091003.7360001-4.415699-1.7172012-.3067017-2.4531021,1.4104996-3.3116989,3.4343987-3.8637009,2.9438019-.8585968,12.388401-.8585968,15.7002029-.552002,1.9625015.1840057,5.2742004,1.1040039,5.5808945,3.3118057.6133041,3.6796951-2.2078934,1.9625015-4.354393,2.8824005-2.0851021,1.3492966-1.349205,10.1194-1.2879028,12.5113983.6132965.4899979,1.4105988.552002,2.1464996.612999,4.1704025.3069992,9.1380005-.060997,13.3696976-.3069992v-10.3642044Z"/>
  <path d="M16.5809002,47.3457985c3.6184006,0,4.599699.4293022,5.3969002-3.3731003,1.5945988-7.4820976,1.5333004-23.9181976,0-31.3389978-.7359009-3.4343805-1.4104996-3.3730507-4.9062996-3.3730507-1.4105005-.9199295-.8586006-3.2504296.2453995-4.2316895,1.9011993-1.7785301,6.9913998-1.7785301,9.4445992-1.4718902,1.7785015.18399,3.9250011,1.3492301,5.5809002,1.3492301,2.0852013,0,5.0289993-.91993,7.3595009-1.0425901,13.9828987-.73594,24.9607964,6.3781905,25.9420967,20.9744897.9199066,13.6763-5.5809975,26.3100014-20.1158981,28.2724991-5.2128983.7360001-8.5247002-1.2264977-13.1856995-.8585968-2.1464996.1839981-4.2929993,1.0425987-6.4394989,1.2265968-3.8024006.3067017-11.8365011-.4292984-9.2607002-6.0102005l-.0613003-.1226997ZM38.8432999,10.6099005c-2.7598.4905996-3.0051003,5.0902996-3.2504997,7.4820986-.7359009,6.2555008-1.4104996,17.7853012.1226997,23.6729012.7972984,3.0665016,2.2691994,4.047699,5.5195999,3.9864006,10.6099014-.1840019,11.8978004-19.8705006,9.3219986-27.1073017-1.9011993-5.3969994-5.6422997-9.1380386-11.7137985-8.0340986Z"/>
  <path d="M361.1870117,39.9864006c0,2.0237999,0,7.7887001,2.4539795,8.4632988.9200134.2453995,1.901001-.551899,2.7590027,0,1.5950012,3.3731003.184021,6.3169022-3.1889954,7.543499-2.5140076.9199028-15.0870056.9813004-17.6619873.1840019-.3070068-.1226997-2.45401-1.4719009-2.5760193-1.7172012-1.2269897-2.575798.6130066-4.1703987,2.085022-6.0102997,1.164978-1.4717979,1.5329895-1.3492012,2.1459961-3.5569992,1.7179871-6.2556.4299927-21.5263996.4909973-28.8859005,0-2.1464996.6749878-2.8823996-.184021-5.3355999-1.1039734-3.2504196-2.3919983-2.6371298-5.3969727-2.9437699-1.1040039-3.2504296.7969971-4.5383298,3.618988-5.2742798,3.6789856-.8586,9.6279907,0,13.7369995-.0613301,13.0019836-.18398,25.9419861-1.10392,27.7210083,15.4548807.9199829,8.7087002-2.2690125,16.1907978-10.2420044,19.9932003-4.9680176,2.3917999-10.3649902,1.9624977-15.7619934,2.207798v-.0612984ZM363.8250122,7.85009c-1.8400269.4293003-2.1470032,2.5758104-2.3310242,4.0477104-.552002,4.7222996-.7969971,13.3696995-.3069763,18.0919991.552002,5.7036018,6.6849976,3.6184006,8.769989-.184,2.0859985-3.8023987,2.5149841-14.2895994.552002-18.3372993-1.1040039-2.2691803-4.0469971-4.2316999-6.6230164-3.6184101h-.0609741Z"/>
  <path d="M377.9920044,88.0681992c4.7219849-.552002,10.118988,2.5144043,14.6569824,2.6371002,1.8400269,0,3.434021-.7360001,5.2130127.6133041,1.8399963,2.9437943-1.7170105,16.1293945-4.9060059,16.5583954-1.0429993,0-3.2510071-.552002-3.6799927-1.5329971-.3680115-.7970047.6749878-2.3919983.7969971-3.4960022.3680115-4.0473022-2.8819885-8.953598-7.2369995-8.7695999-1.7170105.0613022-3.7409973.9812012-4.7219849,2.3304977-4.4150085,5.8871002,4.0479736,8.1571045,7.7890015,10.3031006,6.4389954,3.7410049,14.8409729,9.8130035,14.0439758,18.1529999-1.1040039,11.284996-13.2469788,16.4980087-23.427002,15.4550095-2.5149841-.2450104-5.8269958-1.901001-8.0339966-2.0850067-2.6990051-.1840057-2.6380005,2.1470032-5.4589844-1.2259979-2.8210144-3.3740082-5.151001-11.1620026-4.4770203-15.3940048.3070068-1.901001,2.6990051-2.4529953,4.355011-2.5759964,1.0419922.3069992,1.1040039,3.0049973,1.5329895,4.0479965,1.5940247,4.2320023,9.4440002,11.2840042,14.2279968,8.7699966,2.6370239-1.4109955,3.1280212-3.6179962,1.9630127-6.2559967-2.5759888-5.887001-15.7009888-6.0099945-19.3190002-15.6380005-4.2929993-11.4076004,6.1940002-20.5456009,16.8040161-21.8334961l-.1220093-.0613022Z"/>
  <path d="M113.6029968,11.7750998c11.6529999,11.6525011,6.6850052,37.1039019-10.2419968,41.7649012-22.0782013,6.0715981-36.9197998-11.8977013-31.5227966-32.9335003C76.3152008,3.2504301,102.072998.306643,113.6029968,11.7750998ZM93.7324982,11.7750998c-3.1277008.4907007-6.1327972,4.2930002-7.2980957,7.0528002-3.0664062,7.0529003-2.0852051,26.8620987,7.9113998,28.0273018,11.8361969,1.3491974,13.4921951-20.2385025,9.9351959-27.720602-1.8399963-3.9250994-5.8260956-8.0953999-10.5485001-7.3594999Z"/>
  <path d="M217.7389984,115.4209976c-.9810028,5.0289993-1.9620056,9.5670013-1.4720001,14.8409958-4.1699982,5.8880005-12.8170013,8.0340118-19.746994,8.4640045-18.2150116,1.0420074-30.3580017-12.7569962-27.7210083-30.7259979,2.0850067-14.2895966,13.4309998-22.9369965,27.7210083-21.9557037,2.7590027.1840057,14.1049957,2.8825073,15.6380005,4.9063034,1.7789917,2.3304977,1.7789917,14.2893982-1.2870026,15.822403-.8590088.4300003-4.2929993.6139984-4.8450012-.2450027,0-3.8639984.8580017-8.7086029-1.9629974-11.8362961-2.1459961-2.3305054-6.0100098-3.1278-9.0770111-2.8825073-16.7419891,1.2879028-17.1099854,45.6288071,2.5150146,38.2688065,3.0659943-1.1650085,6.3169861-6.7460022,3.3119965-9.1380005-1.6560059-1.348999-5.3359985,1.2269974-4.355011-3.189003.4910126-2.0240021,4.4160004-2.8209991,6.1940002-3.0049973,1.779007-.1840057,14.5350037-.0610046,15.1490021.612999l-.0619965.0619965Z"/>
  <path d="M340.7650146,105.4240036c.5519714-3.802002.0609741-7.1139069-3.1890259-9.5671005-4.7229919-3.557106-9.8739929-.3680038-10.3649902,5.2130966-.552002,6.6230011,3.0670166,5.826004,7.605011,8.2789993,2.5759888,1.4110031,4.7839966,3.0049973,7.6049805,4.3550034,4.598999,2.1459961,12.3880005,4.1090012,12.0820007,10.6090012-.4299927,9.2610016-10.3039856,15.8849945-18.8280029,16.6819916-3.1279907.3070068-6.6239929-.6749878-9.5059814-.3069916-1.5950012.1839905-2.1470032,1.4109955-4.1090088.7359924-3.4960022-1.1649933-9.2609863-12.6340027-8.5859985-16.1909943.1839905-1.1040039,3.1889954-3.0050049,4.2929993-2.4530029.4290161.2460022,1.4710083,3.189003,2.0849915,4.0480042,2.7600098,3.9859924,12.5110168,9.7509918,16.3130188,4.5379944,2.6369934-3.6790009-1.4720154-7.2369995-4.78302-8.4020004-6.9309998-2.5139999-15.2709961-2.6369934-18.5220032-10.9160004-4.414978-11.345993,6.5010071-22.6306,17.5400085-22.9985962,3.2510071-.1225967,6.9309998.7973022,10.1199951.552002,1.7780151-.1227036,5.2130127-1.9625015,6.3160095.1225967,1.6560059,3.1891022.9819946,9.8125992,0,13.1860046-1.0419922,3.5569992-2.5750122,4.4149933-6.0709839,2.5139999Z"/>
  <path d="M136.048996,30.7257004l-.8580017.1226997c.0610046,2.6371002-.0619965,5.335598,0,7.9726982.0610046,3.0665016.1220093,7.7275009.6740112,10.6711998.6749878,3.8024025,1.9629974,1.9626007,4.1089935,2.3305016,1.9020081.3067017,1.1660004,3.4958-.673996,4.5383987-3.3119965,1.8398018-12.3889999,2.0237999-15.5160065-.3066978-1.1039963-.7973022-1.6559982-2.7598-.8589935-3.8023987,1.0429993-1.2879028,3.4339981,1.3492966,5.0899963-2.2691002.7980042-1.7172012.9819946-4.5997009,1.1040039-6.5622025.552002-10.8551979-.9810028-23.0595989,0-33.7308493.2460022-2.7598,3.0049896-3.7410598,5.0910034-1.9625201,6.3779907,6.6848702,12.0809937,14.04427,18.5820007,20.6677709.9809875,1.0425987,5.7039948,5.887598,6.9299927,5.6422977.2460022,0,.4299927-.4905968.4909973-.7360001.4909973-2.6370983-.1839905-6.7460976-.3069916-9.5058975-.1220093-3.4958.3069916-7.2982006-1.0420074-10.6099005-1.4720001-1.5332003-5.0289917,1.2879-4.9069977-2.2692003.1230011-4.4769802,7.4210052-3.8023601,10.4259949-3.8023601.6750031,0,1.227005-.3066401,1.8400116-.3066401,2.1469879,0,7.0529938,1.4105597,6.9299927,4.1090002-.121994,2.8824997-2.1459961,1.5945997-3.4949951,1.7172003-2.576004.2452993-3.128006,5.519599-3.2510071,7.4821005-.673996,11.4684982.552002,23.6729984,0,35.2027988l-.3679962,1.1651993c-2.5140076,2.7598-4.598999.368-6.7460022-1.4718971-7.6660004-6.684803-15.147995-16.0681-22.5690002-23.4276028-.2449951-.2452984-.3679962-.551899-.4909973-.8585987h-.1840057Z"/>
  <path d="M134.2709961,92.6064987c-1.901001-1.8398972-10.0579987-2.2078018-11.897995-.552002-1.840004,1.6559067-1.961998,10.9775009-1.6559982,13.676506.4300003.9199982,4.2929993,1.1650009,5.1520004.612999,1.7169952-1.1040039-1.7170029-5.5810013,1.9009933-5.826004,2.8819962-.2449951,3.4960098,1.348999,3.8020096,3.864006.3679962,3.1889954.0619965,10.6089935-1.0420074,13.6149979-.4290009,1.2259979-1.7169952,1.5329971-2.9440002,1.409996-3.0049973-.3059998-1.1650009-2.9440002-1.5329971-4.9059982-.3680038-1.7789993-3.8030014-1.5950012-5.0289993-.7969971-.552002,2.4529953-1.1040039,10.6090012.4899979,12.3880005,2.0240021,2.2689896,8.7710037,1.9629898,11.4079971.9809952,5.0899963-1.901001,3.9860077-6.6230011,6.5-10.6709976,2.5149994-1.1040039,4.2320099.7360001,4.477005,3.189003.3069916,3.0049973-.0610046,12.5110016-3.3730011,13.798996-2.3910065.9199982-13.2470016.6130066-16.4360046.4909973-2.3299942-.0619965-5.3349991-.8589935-7.6039963-.7980042-1.4720001,0-3.1900024.6750031-4.6610031.7980042-2.0859985.1840057-8.0960007.7360077-8.647995-1.7169952-.612999-2.6380005,1.1650009-3.128006,2.3919983-4.5390015,1.0429993-1.2259979,1.7170029-7.6050034,1.8399963-9.5059967.3680038-6.378006.3680038-15.7610016-.3679962-22.0781021-.2450027-2.2078018-.2450027-4.967598-2.4530029-6.1329041,1.1650009-2.0237961,3.3730011-5.1515961,5.9490051-5.3968964,2.0849991-.1839981,4.2929993,1.1038971,6.1329956,1.1651993,1.8390045.0614014,4.7220001-.7972031,6.7460022-.8585968,3.4950027-.1840057,11.8359985-.4906006,14.9640045.0613937,2.4529877.429306,2.5139923,2.8824005,2.697998,4.9676056.2460022,3.1278.1230011,9.751297-4.4150085,9.3833008-2.5149994-.1840057-.7359924-5.029007-2.3919983-6.6848068v.0613022Z"/>
  <path d="M342.42099,47.9590988c.3059998,1.839901-.552002,3.2504005-2.2079773,3.9864006-2.3919983,1.1039009-9.3220215.7973022-12.3270264.8586006-3.0049744.0612984-10.9169922,1.7784996-11.4689941-2.9438019-.4289856-3.5570984,2.7600098-1.4718971,4.6000061-2.7598,0-3.0050964-1.9620056-9.8125992-5.3970032-10.1805992-1.6560059-.1838989-8.8309937.1840019-10.1799927.8586006-.3680115.1840019-.6140137.368-.8590088.6747017-.8590088,1.3491974-1.9629822,7.4207001-1.348999,8.9539986.8580017,2.0850983,5.6419983-1.4105988,4.4770203,3.6796989-.8590088,3.6797028-6.6850281,2.8211021-9.3220215,2.9438019-2.6369934.1226006-5.7649841,1.1039009-8.2179871-.3067017-1.7180176-.9811974-2.7600098-4.4769974-.6750183-4.8448982,2.5150146-.4294014,2.7600098.8586006,4.5380249-1.9011993,4.0479736-6.1943016,7.2369995-19.6253014,9.9359741-27.1074009,1.6560059-4.4770002,4.0470276-12.1430707,6.8070068-15.8841305,1.7789917-2.45315,4.2929993-2.5144801,6.1329956-.1226602,2.2690125,2.8824601,4.6610107,8.3406901,6.3170166,11.7137904,4.1090088,8.4633989,7.9109802,20.2997999,12.571991,27.8432989,1.7170105,2.8211021,3.3120117,3.6184006,6.4400024,4.415699l.1839905.1226006ZM310.5910034,20.7290993c-.552002-.1225986-.6130066.1227016-.8580017.552-.4909973.9199009-3.1900024,9.1380005-3.0670166,9.7513008,2.2080078,1.5332012,4.9060059.184,7.4210205.3678989.367981-.1225986.4289856-.3678989.4909973-.735899.4289856-2.3917999-3.4349976-7.4820995-3.9869995-9.9353008Z"/>
  <path d="M309.5490112,131.4279938c1.2869873,1.1040039,2.6369934.1220093,4.1699829.4290009,1.7170105,2.3919983-.6749878,4.9680023-3.0669861,5.5810089-2.1459961.552002-16.7420044.552002-18.8890076,0-2.3919983-.552002-4.8450012-3.2510071-2.8210144-5.4580078,1.6560059-.8589935,4.3540039,1.6549988,3.9860229-2.3919983-.2449951-2.5759964-2.1459961-8.0339966-5.0899963-8.4020004-1.8400269-.2459946-8.3410034-.2459946-9.8740234.552002-1.4100037.6740036-2.7599792,6.0709991-2.8209839,7.6039963,0,2.8220062,1.4719849,2.6380005,3.7409973,2.6380005,2.5149841,1.901001-.4290161,5.3350067-2.8210144,5.5810089-2.2079773.2449951-6.0099792-.1840057-8.4629822-.1230011-.7980042,0-1.5339966.3679962-2.4530029.3059998-1.7789917-.0610046-4.6610107-1.7779999-4.4769897-3.802002.3059998-3.1889954,2.6369934-1.2879944,4.2309875-2.2080078,1.7789917-.9809875,3.8640137-6.0709915,4.7839966-8.0949936,4.2319946-9.5059967,7.1140137-19.6869965,11.7139893-29.0086975.7360229-1.5332031,3.3730164-6.6847992,4.7220154-7.2368011,3.1279907-1.2879028,4.2929993.8585968,5.5809937,3.1278,6.6230164,11.2846985,9.7510071,25.5737,15.4550171,37.2266998.4289856.9199982,1.5939941,3.0659943,2.2689819,3.6799927h.1230164ZM287.3479919,115.6660004c.552002-1.1040039-3.7409973-11.0999985-4.2929993-10.7320023l-3.618988,9.9960022c-.3070068.3679962.6749878.6750031.7359924.6750031h7.1759949v.060997Z"/>
  <path d="M196.029007,11.9590998c-2.6370087.552-2.8210144,5.2130003-2.6370087,7.2981005-2.6369934.9200001-5.0289917,1.4106007-5.9490051-1.7784996-.8589935-3.0051003-.6129913-10.1805706,1.4100037-12.6950507.4300079-.4906301.7360077-.6746202,1.3500061-.7972798l19.9319916.91993,13.7990112-.9812601c2.8819885.1839898,3.6790009,5.2742798,3.8629913,7.5434601.3679962,4.7835999.552002,10.5485001-6.0709991,7.7887001.3059998-5.3355999-1.0429993-8.0953999-6.8690033-7.2981005l-.6749878,1.5332003c.4909973,9.3833008-1.1650085,20.667799-.0610046,29.8057995.4290009,3.9251022,1.7169952,4.415699,5.5200043,4.2929993,1.7169952,2.575901-.7360077,4.5384026-3.0670013,5.2130013-2.576004.7972984-14.5960083.7972984-17.2330017.0612984-2.6370087-.7358971-5.2129974-2.4530983-3.5570068-5.3969002l3.6179962-.1839981,1.8400116-3.0663986c-.6130066-9.5060005.8589935-20.0546017,0-29.3765011-.1230011-1.1039-.552002-1.8399-.6130066-2.8825006-1.2879944.184-3.2509918-.2452993-4.4160004,0h-.1839905Z"/>
  <path d="M282.3800049,13.7377005c-.3680115.8585997-.6130066,1.5944996-.6750183,2.575799-.7969971,9.260601.6140137,19.6865005.0620117,29.0698013l1.6560059,3.5570984c1.1029968.7359009,2.8819885-.2453003,3.8630066.7359009,1.4109802,1.4105988.1229858,3.3731003-1.348999,4.2317009-2.8210144,1.5946007-13.1240234,1.4719009-16.6200256,1.1652985-2.2079773-.1839981-6.6239929-1.2266006-6.5009766-4.1091003.1229858-2.6983986,2.9440002-1.2264977,4.3540039-2.0237999l1.6559753-2.9437981V15.7615004l-1.1040039-2.0237999c-5.8869934-.9813004-6.8069763,2.2077999-6.6839905,7.2981005-6.3170013,2.6370983-6.5629883-3.1891003-6.3170013-7.7888012.1220093-2.6370993.6740112-4.9676094,2.207016-7.1141195l1.0429993-.36797,16.8039856.91993,17.4179993-.91993c2.6369934,1.47189,3.1270142,5.2742896,3.3110046,8.0340896.2460022,4.5995998.4299927,9.5673008-5.8259888,7.3593998-.6750183-.6133003.2449951-4.9062996-1.6560059-6.6234999-1.348999-1.2265997-3.9250183-.9198999-5.6419983-.8585997v.0614004Z"/>
  <path d="M239.3269958,128.7899933c.8590088.9820099,7.1760101.7980042,8.6470032.6750031,3.6800079-.3679962,5.9490051-3.4339981,7.1150055-6.6849976,1.3489838-3.6790009.3679962-6.6230011,5.5189972-2.9440002,0,1.4720001.1229858,3.0670013,0,4.5390015-.1220093,2.0849991-1.7170105,10.3639984-3.0660095,11.6519928-.7359924.7360077-1.9629974.7980042-2.943985.7980042-7.7890015-.1839905-16.8040009-1.4109955-24.5320129-.9199982-2.7589874.1840057-5.3959961,1.4100037-8.0950012.4900055-1.6559906-.552002-3.4959869-1.7779999-3.1889954-3.7409973.4290009-2.7600098,2.8820038-.9200134,4.477005-1.8400116.9810028-1.2259979,1.5330048-2.8819962,1.7169952-4.4769974.9810028-8.2179947,1.1650085-20.6059952-.4290009-28.7015991-.3069916-1.6557999-.7359924-4.5382996-2.8209991-4.844902-1.1649933-.1839981-2.4530029.7973022-3.1279907-.5519943-1.1650085-3.1278,2.0239868-4.7223053,4.6609955-4.9676056,3.5569916-.3679962,12.3880005-.4292984,15.9449921,0,2.0859985.2453003,5.0910034,1.349205,5.0910034,3.8024063,0,3.2503967-3.0670013.8585968-4.5999908,2.1464996-2.0240021,2.6983948-1.3490143,6.0714951-1.5330048,9.1991959-.3070068,6.1940002-.6750031,12.8180008-.3070068,19.012001.0620117,1.2269974.7360077,6.7460022,1.348999,7.4210052l.1230011-.0620117Z"/>
  <path d="M13.7598,138.8480072c-2.9438-3.0660095.184-6.9910126.4905996-10.2420044.6133003-6.439003-.1225996-14.5960007-.368-21.0970001,0-1.4720001.4293003-9.6896057-.7971992-9.9962006-4.1703901-.1840057-6.4395504.2453003-6.8075204,4.7831955-.0613298.7360001.6746101,1.9020004-.1226597,2.8219986-3.4957402.8580017-5.5195932.7970047-6.0102232-3.1899948-.306644-2.3300018-.429302-11.8973007,2.8824531-12.2653046l22.9982493.7973022,11.3458996-.7973022c.9199028.0613022,1.9011993,1.7172012,2.2691002,2.5145035,1.1653023,2.575798,1.655899,9.0158005.7360001,11.7137985-.1839981.552002-.368.9810028-.919899,1.2269974-1.1652985.6740036-3.3731003.3680038-4.6609993,0-.8586006-3.9249954.4906006-7.2371979-4.8450012-7.5438995-1.9011993-.1225967-2.6371002-.2453003-3.0664005,1.8399048.3066006,9.2610016-.8586998,19.4410019-.1226997,28.6409912.1226997,1.9620056.9199009,4.0470123.9813004,6.0710144,0,1.6559906-.2453995,3.1889954-.6133003,4.7839966h-13.3083992l-.0613003-.0619965Z"/>
</svg>