<?xml version="1.0" encoding="UTF-8"?>
<svg id="Layer_1" xmlns="http://www.w3.org/2000/svg" width="400" height="63" version="1.1" viewBox="0 0 400 63">
  <!-- Generator: Adobe Illustrator 29.6.1, SVG Export Plug-In . SVG Version: 2.1.1 Build 9)  -->
  <path d="M184.9720001,0c-.2579956,2.4147601-2.75,4.05336-4.0390015,6.1231499-1.1179962,1.7248302-2.0630035,3.9670506-1.8909912,6.03685.1719971,2.5873003,2.9219971,4.7432995.1719971,7.4167995-1.8910065,1.8111-3.95401,2.3285007-5.9309998.3450012-2.4060059-2.3285007-2.3200073-6.2094002-1.1170044-9.0554008,1.2030029-2.8459396,5.8439941-7.5892198,8.4230042-9.2278098,1.0309906-.68993,2.1490021-1.0349,3.1799927-1.63859h1.2890015-.0859985ZM10.5843,58.0405006c2.4064999-.1725006,4.6410999-1.1211014,7.0476999-1.293602,4.9848995-.3449974,8.5948009,1.7248001,14.2672997.9486008,15.7284012-2.1559982,22.7761002-15.8684006,21.7448006-30.7881985-1.0313988-15.8684006-12.9780998-23.630111-28.1049004-22.7677011-2.4925003.1724801-5.7584991,1.12113-7.9932003,1.12113-1.7188997,0-4.0394993-1.2073798-6.0162992-1.4660997-2.6643906-.2587299-8.2509904-.2587202-10.2277902,1.6385899-1.2032637,1.12114-1.804898,3.6221304-.25784,4.6569805,3.7816999,0,4.5552299-.0862007,5.3287599,3.6222,1.6329999,8.106699,1.8048997,25.9587002,0,34.151598-.8594799,4.0533028-1.9768,3.6221008-5.8444469,3.6221008-2.7503231,6.1231995,5.9303968,6.8992996,10.055917,6.5544014ZM37.4000015,20.2667007c2.7502975,7.8479996,1.3750992,29.3220978-10.141901,29.4945984-3.5237999,0-5.0709-.9486008-5.9304008-4.3120995-1.7188988-6.4681015-.9454002-18.9730988-.1718998-25.7861004.2579002-2.5872993.5156994-7.5892992,3.523901-8.106699,6.618-1.2074003,10.6574993,2.8458996,12.7203007,8.7103004ZM60.4338989,22.3365002c-5.8443985,22.9402981,10.2277985,42.4308033,34.2071991,35.8765011,18.3069-5.0020027,23.7219009-32.771801,11.0868988-45.4493017C93.094101.0862541,65.3330002,3.4496601,60.4338989,22.3365002ZM95.5866013,20.7842007c3.7817001,8.106699,1.9766998,31.6505985-10.8294983,30.1844997-10.8294067-1.2074013-11.8607025-22.8540001-8.5947037-30.529501,1.2891998-3.0184002,4.5551987-7.157999,7.9072037-7.6754999,5.1567993-.7760992,9.4542007,3.7083998,11.4309998,8.0205011h.0859985ZM130.5670013,34.3241005c7.9929962,8.0205002,16.1580048,18.1968994,24.4949951,25.4412003,2.3209991,2.0697975,4.5559998,4.6570015,7.3059998,1.6385994l.3440094-1.293602c.5149994-12.5912971-.7740021-25.7861977,0-38.2911987.0859985-2.1560001.6869965-7.9341993,3.5239868-8.106699,1.4610138-.0863008,3.6950073,1.2935991,3.7810059-1.8111.0859985-2.9321804-5.1569977-4.4845304-7.477005-4.4845304-.6019897,0-1.2889862.3449702-1.9769897.3449702-3.2660065,0-11.1730042-.6899304-11.3450012,4.1395602-.0859985,3.8808994,3.6959991.8623991,5.3289948,2.5009995,1.4609985,3.5359001.9450073,7.6755009,1.1170044,11.5564003.0859985,2.9321995.8589935,7.5030003.3439941,10.3490009,0,.2586975-.2579956.7761002-.5159912.8624001-1.2890015.2586975-6.3600006-5.0020027-7.477005-6.1232014-6.9620056-7.157999-13.2359924-15.1785002-20.1119995-22.5089798-2.2350006-1.8973198-5.2429962-.8624201-5.5009995,2.1560802-1.0309982,11.5562992.6879959,24.8375015,0,36.6525993-.0859985,2.156002-.3440018,5.2607002-1.2030029,7.1580009-1.8050003,3.9670982-4.3829956,1.0349007-5.5009995,2.5009995-.8590012,1.1211014-.2579956,3.2771988.9459991,4.1395988,3.4380035,2.5009995,13.2360077,2.3285027,16.8450012.3450012,1.977005-1.1212006,2.8370056-4.6571007.6880035-4.9157982-2.3209991-.3450012-3.6959991,1.6385994-4.4690094-2.5010033-.6019897-3.1908989-.6019897-8.2791977-.6879883-11.6425972v-8.6242027h.9459991s.2570038.5175018.5149994.7762032l.0859985-.2587013ZM199.927002,12.9362001c.0859985,1.1211996.602005,1.9835997.6880035,3.190999.8589935,10.1764011-.6880035,21.6466007,0,31.9955006l-1.977005,3.3633995-3.9539948.2588005c-1.8050079,3.1908989,1.0319977,5.0881996,3.8679962,5.864399,2.8359985.7762032,15.8999939.7762032,18.7369995-.0861969,2.5780029-.7762032,5.1560059-2.8460007,3.3509979-5.6920013-4.125.0862999-5.5-.4312019-5.9299927-4.6570015-1.2030029-10.0039978.6879883-22.2502995.0859985-32.4267988l.7740021-1.6386003c6.3599854-.8624001,7.8209991,2.1560001,7.4769897,7.9342003,7.2200012,3.0184994,6.9620056-3.1909008,6.6179962-8.4516001-.1719971-2.4147997-1.0309906-8.0205002-4.125-8.1929798l-14.9549866,1.0348997-21.5730133-.9486599c-.6879883.0862398-1.0319977.3449697-1.4609985.8624201-2.1490021,2.7597198-2.4929962,10.5214195-1.5469971,13.7986193,1.0310059,3.4497013,3.6090088,2.9322014,6.4459991,1.8973007-.1719971-2.2423,0-7.3304996,2.8359985-7.9342003,1.2890015-.2586994,3.4380035.1725006,4.8130035,0l-.1719971-.1724997Z"/>
  <path d="M370.7340088,43.2582016c0,2.1170998,0,8.299099,2.6619873,9.0611992.9450073.2541008,2.0610046-.5928001,3.006012,0,1.7179871,3.6413994.1719971,6.6900978-3.4349976,8.0449982-2.7480164.9316025-16.3170166,1.016201-19.1520081.1693993-.3430176-.0846977-2.6619873-1.5242996-2.8340149-1.7783966-1.3739929-2.7098999.6880188-4.4036026,2.2330017-6.4360008,1.2030029-1.5242996,1.632019-1.4396019,2.3190002-3.8108025,1.8040161-6.6900978.4300232-23.0340977.5150146-30.825098,0-2.2865.6869812-3.1332998-.17099-5.6738005-1.2030029-3.4720898-2.6630249-2.7945995-5.8400269-3.1333399-1.2029724-3.4720597.8590088-4.91169,3.9500122-5.58916,4.0369873-.93153,10.4779968-.00001,14.8580017-.0846899,14.0839844-.25405,28.0820007-1.18559,30.0580139,16.5133903,1.0299988,9.3153-2.4050293,17.2756996-11.07901,21.3404999-5.4100037,2.5405006-11.25,2.1170998-17.0899963,2.3712006v-.1693993ZM373.5679932,8.96105c-1.9750061.42342-2.3190002,2.7098503-2.5759888,4.3188496-.6019897,5.0811005-.8590088,14.3117008-.3439941,19.3081017.6009827,6.0971985,7.2999878,3.8953972,9.446991-.1694031,2.1470032-4.0648975,2.7479858-15.2431984.6010132-19.5620985-1.2020264-2.4558001-4.3800049-4.4882393-7.2140198-3.8954496h.0859985ZM350.3800049,51.8112984c.3439941,1.9477005-.6010132,3.4721031-2.4039917,4.2342033-2.5770264,1.1855965-10.1340027.8468971-13.3120117.9314995-3.177002.0846977-11.8510132,1.8630981-12.4519958-3.1333008-.4299927-3.8107986,3.0050049-1.6090012,4.9809875-2.9639015,0-3.2179985-2.1470032-10.5009003-5.8399963-10.9242973-1.8039856-.1694031-9.618988.254097-11.07901.9314995-.3429871.1693993-.6869812.3387985-.9449768.7621994-.9440002,1.4395981-2.1470032,7.9603004-1.4590149,9.5692978.9440002,2.2018013,6.0970154-1.5242996,4.8089905,3.8955002-.9449768,3.9802017-7.2999878,3.0486031-10.0479736,3.1333008-2.7480164.0847015-6.2690125,1.1856003-8.9320068-.3386993-1.8890076-1.1008987-3.0050049-4.7424011-.6870117-5.1657982,2.7480164-.5081024,3.006012.9315987,4.9810181-2.032402,4.3799744-6.6054001,7.8150024-20.9169998,10.8209839-28.9619999,1.8040161-4.8269997,4.3800049-12.9567394,7.3860168-16.9368997,1.8889771-2.62521,4.6369934-2.6252,6.6989746-.1693602,2.4900208,3.0486403,5.0670166,8.8918605,6.8700256,12.5332599,4.4659729,8.9766006,8.5879822,21.6791992,13.6549988,29.7242012,1.8889771,2.9640007,3.5209961,3.8107986,6.9559937,4.7423973v.1693001ZM315.8559875,22.6798992c-.6009827-.0846996-.6869812.1694012-.9440002.5928001-.5159912,1.016201-3.4349976,9.738699-3.2639771,10.4162006,2.4049988,1.6090012,5.3249817.1693001,7.9869995.4234009.4299927-.0847015.5149841-.4234009.5149841-.7621994.4299927-2.5405006-3.6919861-7.9603024-4.3789978-10.5855007l.0849915-.0847015ZM291.4660034,16.1592007c2.0620117,1.8631001,1.1170044,6.4359989,1.8039856,7.0287991,6.7839966,2.3712006,6.6130066-2.9638996,6.355011-7.8755999-.1719971-2.9639997-.7730103-7.0288296-3.6069946-8.6378298l-18.8940125.93151-18.2059937-.93151-1.1170044.4234099c-1.71698,2.2864804-2.2330017,4.8270202-2.4039917,7.6216197-.2579956,4.9117002,0,11.1782999,6.8699951,8.3837004-.0859985-5.4197998.8590088-8.8071003,7.2139893-7.7909002l1.1159973,2.1171007v32.264698l-1.71698,3.1333008c-1.54599.8469009-4.552002-.7621002-4.723999,2.2018013-.1710205,3.0485992,4.6380005,4.149498,7.0429993,4.4035988,3.7779846.2540016,14.9429932.4234009,18.0350037-1.270298,1.5449829-.8468018,2.9190063-3.0486031,1.4589844-4.4882011-1.1159973-1.0163002-3.0050049,0-4.2080078-.7621994l-1.8029785-3.8108025c.6009827-10.0774002-.9450073-21.1710987,0-31.0790977,0-1.016201.3429871-1.7784004.6869812-2.7099009,1.803009,0,4.6370239-.4235001,6.0970154.9315004v-.0846996Z"/>
</svg>