<?xml version="1.0" encoding="UTF-8"?>
<svg id="Layer_1" xmlns="http://www.w3.org/2000/svg" width="333" height="49" version="1.1" viewBox="0 0 333 49">
  <!-- Generator: Adobe Illustrator 29.6.1, SVG Export Plug-In . SVG Version: 2.1.1 Build 9)  -->
  <path d="M314.605011,3.9438701c3.9660034-.45755,8.3939819,2.09165,12.2279968,2.2223802,1.519989,0,2.84198-.5882602,4.3619995.5229297,1.519989,2.4184699-1.45401,13.2689195-4.0980225,13.6610208-.8589783,0-2.7099915-.4575005-3.039978-1.3072014-.2640076-.6536999.5950012-2.0262985.6609802-2.8759995.3300171-3.3336-2.3789978-7.3861799-6.0149841-7.1900902-1.3880005,0-3.1060181.7843704-3.9649963,1.8955908-3.7019958,4.9022999,3.3699951,6.7324991,6.4769897,8.4973001,5.3540039,3.1374989,12.3600159,8.1051998,11.6990051,14.968399-.9259949,9.2817001-11.0379944,13.5956993-19.4980164,12.7460022-2.1149902-.1961021-4.8249817-1.5688019-6.7419739-1.699501-2.2470093-.1306992-2.2470093,1.764801-4.5610046-1.0457993-2.3130188-2.8107033-4.2960205-9.216301-3.7010193-12.6806011.2650146-1.5688,2.2470093-2.0263004,3.6350098-2.1571007.8600159.2614994.9259949,2.4839001,1.256012,3.333601,1.321991,3.4642982,7.8659973,9.3470993,11.8309937,7.2553978,2.1809998-1.1764984,2.5780029-3.0066986,1.6529846-5.1637001-2.1819763-4.836998-13.0869751-4.9676991-16.0619812-12.8767986-3.5690002-9.4124002,5.1560059-16.9292698,14.0130005-17.9750996l-.1329956-.1307302ZM168.3379974,25.9715996c-1.5209961.1307011-4.7590027.7842999-5.1559906,2.4838009-.8590088,3.6603985,2.246994,1.5688,3.6349945,2.6145992,2.5119934,1.9608994-.197998,6.601799-2.776001,7.5821991-16.3910065,6.0788994-15.9940033-30.5250292-2.0480042-31.570859,2.5770111-.1960897,5.75.4575601,7.5339966,2.3531103,2.3800049,2.5492496,1.6529999,6.5364494,1.6529999,9.7392502.4620056.7189999,3.3040009.5228996,4.0310059.1961002,2.5120087-1.3073006,2.5120087-11.1772604,1.0579987-13.0728207-1.2559967-1.6341-10.7070007-3.92184-13.0209961-4.0525599-11.8970032-.7843701-21.3480072,6.3402901-23.0670013,18.1057806-2.1809998,14.7723007,7.9320068,26.2110977,23.1329956,25.2959976,5.7510071-.3268967,13.0210114-2.0916977,16.4580078-6.9285965-.3970032-4.3141022.4629974-8.0398026,1.2559967-12.2231026-.529007-.5882988-11.1699982-.6536999-12.6239929-.5228996h-.0660095ZM288.6300049,16.1669998c.8590088-2.8106995,1.3880005-8.2359099,0-10.9158397-.9250183-1.69947-3.7669983-.1961102-5.2210083-.0653801-2.6439819.1960897-5.7510071-.5229101-8.4599915-.45755-9.1880188.2614598-18.3089905,9.6085696-14.6069946,18.9555697,2.6429749,6.7979012,9.6489868,6.9286003,15.3999939,9.0203018,2.776001.9804001,6.2129822,3.9217987,3.9649963,6.9286003-3.1719971,4.3139992-11.302002-.4576035-13.6149902-3.7258034-.5290222-.718998-1.3880005-3.1374969-1.7190247-3.3335991-.9249878-.4575005-3.3699951,1.1112022-3.5690002,2.0263023-.5289917,2.9413986,4.2960205,12.3537979,7.2050171,13.3342972,1.6520081.5228996,2.1149902-.4575005,3.4360046-.6535988,2.3800049-.3269005,5.2879944.4575005,7.9320068.2613983,7.1380005-.6535988,15.3339844-6.1441994,15.7299805-13.7263985.2650146-5.3598995-6.2120056-6.9286003-10.04599-8.7588005-2.3789978-1.1112003-4.1640015-2.418499-6.3450012-3.5949993-3.7669983-2.0263004-6.8739929-1.3726997-6.3450012-6.8633003.3959961-4.5754995,4.7590027-7.1900396,8.6579895-4.2487001,2.710022,2.0263004,3.1069946,4.7716007,2.6440125,7.9091005,2.9079895,1.5686989,4.1640015.849699,5.0889893-2.0916004h-.1319885ZM255.5829926,36.6259003c-4.7589874-9.6739006-7.3369904-21.3740005-12.8889923-30.7211103-1.1230011-1.8301997-2.048996-3.6603899-4.6920013-2.5491998-1.1239929.4575498-3.3049927,4.7062194-3.9660034,5.9481304-3.8339996,7.7129803-6.2789917,16.0795803-9.7819977,23.9232807-.727005,1.6340981-2.5119934,5.8173981-3.9660034,6.667099-1.321991.7844009-3.3049927-.7844009-3.5690002,1.8302002-.197998,1.699501,2.2470093,3.0720978,3.701004,3.1375008.727005,0,1.3220062-.2615013,2.048996-.2615013,2.0490112,0,5.2220001.3269005,7.0720062.1307983,1.9830017-.1960983,4.4290009-3.0067978,2.3139954-4.6408997-1.9169922,0-3.1729889.130703-3.1069946-2.1569977,0-1.2419014,1.1900024-5.6867027,2.3139954-6.2749004,1.2550049-.5883007,6.6750031-.6536999,8.1950073-.4575996,2.4459991.3267994,4.0319977,4.8369007,4.2299957,6.9285984.3309937,3.3988991-1.9160004,1.3073006-3.3040009,1.9608994-1.6529999,1.8302002.3959961,4.0526009,2.3789978,4.5101013,1.7850037.3922005,14.0120087.3922005,15.7310028,0,2.0490112-.5228996,3.9649963-2.6144981,2.5769958-4.5754013-1.2550049-.2614975-2.3789978.5881996-3.4369812-.3921967-.5940247-.5230026-1.5200195-2.2878036-1.9160156-3.0068016h.0659943ZM233.0440063,26.6252003s-.8590088-.2614002-.5940094-.5883007l3.0400085-8.2357998c.4629974-.3269005,4.0319977,7.9090004,3.5690002,8.8241005h-6.0149994ZM197.8820038,31.3967991c-.3300018-5.0983982,0-10.5889988.2639923-15.6219988.1330109-2.5492001-.3959961-5.3599005,1.2559967-7.5822506,1.256012-1.0458298,3.8339996.9150906,3.8339996-1.7648396,0-2.0262799-2.5119934-2.94138-4.2299957-3.13747-2.9749908-.3268201-10.3109894-.3268201-13.2850037,0-2.1819916.2614601-4.8909912,1.5687201-3.8999939,4.1179202.5950012,1.1111898,1.6520081.3268199,2.5780029.4575496,1.7180023.1960902,2.1150055,2.6145902,2.3789978,3.9871898,1.3220062,6.6672001,1.1900024,16.8640003.3309937,23.6618023-.1329956,1.3072968-.594986,2.6799965-1.4549866,3.6603966-1.3210144.7844009-3.3700104-.718998-3.7670135,1.5688019-.2639923,1.6340981,1.256012,2.6144981,2.6440125,3.1374016,2.246994.7843971,4.4279938-.2614021,6.7419891-.3922005,6.4110107-.3921013,13.9459991.5882988,20.4889984.7843971.7929993,0,1.8510132,0,2.4450073-.6535988,1.1239929-1.0458984,2.4459991-7.9090996,2.5119934-9.6086006.0660095-1.2418976,0-2.483799,0-3.7256985-4.29599-3.0068016-3.4369965-.5883007-4.6269989,2.4185009-.9909973,2.6798973-2.9079895,5.1637001-5.947998,5.4905968-1.2559967.130703-6.4769897.1961021-7.2050018-.5882988-.4619904-.5228996-1.0569916-5.0984001-1.1230011-6.1443005l.0660095-.0653Z"/>
  <path d="M66.4973984,19.0921993v-8.5170994s-.7238998-1.7826004-1.0530014-2.04669c-.9213943-.6602302-2.1059952-.26408-3.1589966-.3961201-2.3693008-3.1030998,1.7110977-4.62164,4.2779007-4.8197098,3.0932007-.2640901,11.9779968-.3961401,14.4788971,1.0563698,1.3162994.7922802,1.5794983,2.1787701.8555984,3.4992399-.6580963.6602306-2.4350967-.1980796-3.4222946.6602201-.5923004.5281897-1.1847,2.4428902-1.3162994,3.3011904-.5265045,5.6780005.0657959,12.8746004.263298,18.6185999.1315994,2.9710999-.723999,6.3381996,1.4478989,8.7811012l3.2906036.5281982c1.2504959,2.3107986-.6581039,3.6313019-2.6983032,4.225502-2.3034973.6601982-12.2413025.6601982-14.5447998,0-1.3820992-.3961029-3.027401-1.1884003-3.0932007-2.8390007-.1315994-2.7070007,2.3693008-1.0564003,3.6855011-1.9146996,2.106102-1.3205032.7898026-11.5541019,1.1847-14.1290016-.1315994-.7262993-.7898026-.8582993-1.382103-.9242992-2.3034973-.264101-8.424099-.264101-10.7275963,0-.460701,0-1.1846008.198-1.382103.6602001.3949013,3.4991989-.9213982,10.4976997.5265007,13.4687996,1.1847,2.4428978,4.0147018,0,4.2779007,2.3768005.2633018,2.1128006-1.4478989,2.905098-3.2248993,3.3671989-2.3692017.5942001-12.0438004.6603012-14.3473015,0-1.9085999-.5942001-4.1461983-2.2448006-2.5667-4.3574982,3.0932007.132,4.2779007-.6603012,4.6068993-3.8294029.7240028-7.724699-.2631989-16.6378994.1975021-24.4946985l-1.3820992-2.9049997c-1.2504997-.7922807-3.4223022.5941992-3.6856003-1.4525204-.2632027-2.04673,1.1847-2.7069502,2.829998-3.2351401,2.4351006-.7262599,10.2669029-.7262499,13.0311012-.4621599,1.645298.1320498,4.3437004.9243298,4.672699,2.7069597.5265007,3.0370798-1.842701,1.6505899-3.6196976,2.3768501-1.7112007,1.1223898-1.1188011,8.4510107-1.0530014,10.4317102.5265007.3960991,1.1846008.4620991,1.7769012.5282001,3.4881973.2640991,7.5685997,0,11.0567017-.264101h.1973953ZM113.4219971,12.2257004c3.8180008.3301001,3.8830032-5.2158203,3.6860046-7.7907305-.1320038-1.78264-.1969986-3.7633459-2.237999-4.1594859-2.6320038-.462164-9.5429993-.1980702-12.4380035,0-1.6459961.066023-4.0808029.792286-5.5945969.726266-1.5137024-.066028-3.3563995-1.122387-5.0676041-.9903405-2.1059952.1980705-4.014595,2.7729905-4.935997,4.4895904,1.8427963.9243302,1.8427963,3.2351303,2.0401993,5.0837798.5923004,5.2158203.5923004,13.0726204.263298,18.3545208-.0657959,1.5845985-.6581955,6.8665009-1.5137024,7.9227982-1.053093,1.1884003-2.5008926,1.5846024-1.9743958,3.763401.460701,2.0466995,5.4625015,1.5844994,7.1735992,1.4524994,1.2505035-.0660973,2.6325989-.6602974,3.8830032-.6602974,1.8427963,0,4.3442001.5942001,6.3181992.6602974,2.6319962.0660019,11.6489944.3960991,13.6230011-.3961983,2.6989975-1.0563011,3.0279999-8.9792004,2.7639999-11.4881001-.1970062-2.0467014-1.6450043-3.5652008-3.6850052-2.6409016-2.0400009,3.3672009-1.1189957,7.2625999-5.3969955,8.8472023-2.1720047.8582993-7.8320007,1.1222992-9.477005-.7923012-1.3162003-1.5186005-.7900009-8.2530003-.3949966-10.3656998,1.0530014-.6602001,3.8829956-.8583012,4.211998.6602001.3290024,1.6505985-1.25,3.8293991,1.2509995,4.0935001.9869995.132,2.0400009-.1321011,2.4350052-1.1884003.9209976-2.5088997,1.1839981-8.6491013.8549957-11.3561001-.2630005-2.1127005-.7890015-3.4332008-3.1589966-3.2351007-2.9610062.2641001-.1310043,3.9614-1.5790024,4.8857012-.723999.4621983-3.8830032.2640991-4.2779999-.5282001-.263298-2.1787004-.1320038-9.9695106,1.3819962-11.3560009,1.5139999-1.3864899,8.2930069-1.0563798,9.8720016.4621601,1.3820038,1.3204699-.1319962,5.4139404,1.973999,5.5459404ZM22.4682007,45.1713982c.3290997-1.3203964.5265999-2.5748978.5265999-3.9613991,0-1.7165985-.6582012-3.4332008-.7898006-5.0837975-.5923004-7.6587009.3290997-16.1097012.1315994-23.8344021.3291016-1.7165995.9871998-1.6505995,2.5667-1.5185995,4.4754009.3301001,3.2907009,3.0370998,4.0146999,6.2722006,1.0530014.3302002,2.8958015.5942001,3.8829994,0,.3948021-.264101.5923004-.5942001.7238998-1.0563002.7240028-2.2448006.3291016-7.5927305-.6581001-9.7715006-.3290977-.6602297-1.1188984-2.04672-1.8427982-2.1127501l-9.4113007.6602302-19.0859294-.6602302C-.237396,4.4349699-.105769,12.4238005.091671,14.3385c.394881,3.3011007,2.106029,3.3671999,5.0018191,2.6409006.6581397-.7923012,0-1.7166004.1316299-2.3768005.3290701-3.7634001,2.1718397-4.0935001,5.6599803-3.9614.9871998.2641001.6580992,7.0644999.6580992,8.3189001.1975002,5.4139004.7898006,12.2143002.2633009,17.6283016-.2633009,2.7068977-2.8300104,5.9420967-.3949003,8.5169983h11.0566006v.0659981Z"/>
</svg>