<?xml version="1.0" encoding="UTF-8"?>
<svg id="Layer_1" xmlns="http://www.w3.org/2000/svg" width="117.5518452" height="31.5545691" version="1.1" viewBox="0 0 117.5518452 31.5545691">
  <!-- Generator: Adobe Illustrator 29.6.1, SVG Export Plug-In . SVG Version: 2.1.1 Build 9)  -->
  <path d="M56.185324,27.0902994c-1.4746094-1.7773438-.8984375-4.2675781-.9765625-6.4550781-.1464844-4.1992188-.5371094-9.5214844-.1855469-13.6816406.0488281-.6152344.4589844-2.03125.8886719-2.421875.6738281-.6054688,1.9238281.0097656,2.3730469-.46875.5175781-.9667969.3320312-1.9921875-.5761719-2.578125-1.6894531-1.0742188-7.8613281-.9960938-9.9804688-.8007812-1.7773438.15625-4.5703125,1.25-2.9492188,3.5351562.7128906.1367188,1.5527344-.1855469,2.1679688.3125.2148438.1757812.703125,1.3183594.703125,1.4941406v6.2792969c-2.4023438.15625-5.2441406.4003906-7.6464844.1953125-.4296875-.0390625-.8789062-.078125-1.2304688-.3710938-.0488281-1.4941406-.46875-6.8554688.7226562-7.6757812,1.2402344-.5371094,2.8417969.4882812,2.4902344-1.7480469-.1953125-1.328125-2.0898438-1.8945312-3.2128906-2.0117188-1.8945312-.2050781-7.3046875-.2246094-9.0039062.3125-1.1523438.3710938-2.1386719.8691406-1.9628906,2.3828125.1660156,1.5136719,1.6601562.4785156,2.5195312,1.0644531l.9667969,2.1582031c-.3417969,5.7519531.3320312,12.3242188-.1464844,17.9785156-.2050781,2.3339844-1.0449219,2.890625-3.1738281,2.8027344-1.09375,1.5234375.4492188,2.7636719,1.7578125,3.1933594,1.5625.5078125,8.2324219.4589844,9.8828125.0390625,1.2304688-.3222656,2.4121094-.8886719,2.2363281-2.4609375-.1953125-1.7675781-2.1679688.0488281-2.96875-1.7285156-.9765625-2.1875-.0488281-7.3242188-.3417969-9.8828125.1171875-.3710938.6152344-.4589844.9375-.4980469,1.5820312-.1953125,5.8007812-.1953125,7.3828125,0,.4199219.0488281.8984375.1367188.9667969.6542969-.2539062,1.9140625.6542969,9.3945312-.8105469,10.3808594-.9179688.625-2.6171875-.5566406-2.5390625,1.4257812.0488281,1.171875,1.171875,1.7773438,2.1191406,2.0703125,1.5722656.4882812,8.4375.4785156,10.0195312,0,1.3769531-.4296875,2.7050781-1.4160156,1.8457031-3.1054688l-2.2753906-.390625ZM18.2116911,14.9027994c-1.6894531-.7910156-2.96875-1.7480469-4.5214844-2.5976562-2.7148438-1.484375-4.9023438-1.015625-4.5507812-4.9511719.2929688-3.3203125,3.3886719-5.1953125,6.2011719-3.0859375,1.9238281,1.4453125,2.1972656,3.4472656,1.875,5.6933594,2.0703125,1.1328125,2.9980469.6347656,3.6230469-1.5039062.5957031-2.0214844,1.0058594-5.9765625.0097656-7.8710938-.6445312-1.2304688-2.7050781-.15625-3.75-.0683594-1.9140625.15625-4.1113281-.3808594-6.0449219-.3320312C4.4616911.3813151-2.0226839,7.1195963.5945036,13.8774088c1.9042969,4.9316406,6.8945312,5.0097656,11.015625,6.5234375,1.9726562.7324219,4.4140625,2.8320312,2.8320312,5.0292969-2.265625,3.125-8.0859375-.3222656-9.7363281-2.7050781-.3710938-.5371094-.9765625-2.2851562-1.2304688-2.421875-.6445312-.3222656-2.4414062.8300781-2.5585938,1.4746094-.4003906,2.1191406,3.0566406,8.9550781,5.1171875,9.6582031,1.171875.4003906,1.5136719-.3320312,2.4609375-.4492188,1.6992188-.2148438,3.7988281.3515625,5.6640625.1855469,5.0976562-.4589844,10.9863281-4.4335938,11.25-9.9414062.1855469-3.8769531-4.4433594-5.0292969-7.1972656-6.328125ZM60.4065154,10.0981119c-.9960938,3.8769531-.8984375,7.5976562.0878906,10.8105469.8203125,2.6660156,3.3886719,5.9960938,4.1992188,6.7773438,3.6523438,3.3789062,9.0722656,4.8339844,15.4589844,3.0859375,10.5761719-2.9003906,13.7304688-18.8671875,6.4160156-26.171875-7.2070312-7.1972656-23.3496094-5.3710938-26.1621094,5.4980469ZM74.4494841,27.6567057c-.3613281-.0488281-.703125-.1367188-1.0253906-.2636719l-.7519531-.3710938c-.7617188-.4785156-1.40625-1.171875-1.953125-2.03125-1.3671875-2.2070312-2.4707031-3.9746094-2.6367188-7.1289062-.15625-3.1445312.6347656-7.6757812,1.3574219-9.4921875.7617188-1.9140625,2.6464844-4.53125,4.6484375-4.8632812,2.9980469-.4882812,5.5273438,2.3632812,6.6992188,5.078125.703125,1.6210938,1.0742188,4.1992188,1.0253906,6.953125-.1074219,5.9863281-2.2167969,12.7539062-7.3632812,12.1191406ZM102.1154997.4789713c-2.2558594.0292969-5.546875-.4589844-7.5976562.0390625-1.5820312.390625-2.6367188,1.1230469-2.0117188,2.9589844,1.6503906.1855469,2.3828125-.1660156,2.9882812,1.6601562.4492188,1.3671875.0878906,1.8164062.078125,3.0078125-.0390625,4.1308594.6542969,12.7441406-.2832031,16.2695312-.3320312,1.2402344-.546875,1.1816406-1.1816406,1.9921875-.8007812,1.0546875-1.8554688,1.9433594-1.1621094,3.3886719.0683594.1464844,1.2597656.9082031,1.4355469.9667969,1.4257812.4492188,8.3984375.4199219,9.7851562-.0878906,1.8847656-.703125,2.65625-2.3339844,1.7773438-4.2480469-.4980469-.2832031-1.0351562.1660156-1.5332031.0292969-1.328125-.3710938-1.3378906-3.6328125-1.3574219-4.765625,2.9882812-.1269531,5.9667969.1074219,8.7207031-1.2304688,4.4433594-2.1484375,6.2011719-6.3574219,5.6933594-11.2597656C116.4904997-.1167318,109.3322966.3617838,102.1154997.4789713ZM107.8967497,16.0063151c-1.1425781,2.1386719-4.5507812,3.3007812-4.8535156.0878906-.2539062-2.6464844-.1367188-7.5292969.1757812-10.1855469.1074219-.859375.3027344-2.0703125,1.3085938-2.2949219,1.4355469-.3222656,3.0761719.7617188,3.6816406,2.0507812,1.0839844,2.2851562.8691406,8.1152344-.3125,10.3417969Z"/>
</svg>