<?xml version="1.0" encoding="UTF-8"?>
<svg id="Layer_1" xmlns="http://www.w3.org/2000/svg" width="216" height="38" version="1.1" viewBox="0 0 216 38">
  <!-- Generator: Adobe Illustrator 29.6.1, SVG Export Plug-In . SVG Version: 2.1.1 Build 9)  -->
  <path d="M89.5026016,1.7706c-2.1531982-.2264099-8.1595001-.2264099-10.0861053.33962-.7931976.2264199-1.3598938.67925-1.6998978,1.24529-.3398972-.3396299-.6799011-.67925-1.2464981-.79245-.9067001-.2264202-2.3798981,0-4.1931,0-1.9265976,0-1.5866013-.7924601-3.8531036-.2264202-.9065933.2264102-1.9265976,1.3584902-1.8131943,2.1509399,0,.4528303,1.133194.56604,1.9264984,1.35849.3399963.1132102.906601.9056602,1.0199966,1.1320801.1133041.2264099.2266006.4528303.2266006.6792402,0,.2264199-.2266006,1.1320796-.7932968,2.71701-.5666046,1.4716997-1.6998978,4.3018999-3.2863998,8.3772993,0,.2264004-.2266998.4528999-.340004.9057007-.7932968,2.1508999-1.3598938,3.1697998-1.5865974,3.1697998-.1133003,0-.4533005-.4528008-.7933006-1.2453003-.4533005-.7924004-.906601-2.0376987-1.4731979-3.6226006-.1133003-.4527988-.3400002-.9056988-.6800003-1.6980991-2.0399017-5.5472002-3.059803-8.4906001-3.059803-9.1698399,0-.3396301.2266998-.6792502.7933006-1.0188699.2266006-.1132102,1.2466011,0,1.3599014-.1132102.3400002-.3396201.6800003-.79245.6800003-1.0188699,0-.79245-1.2466011-2.0377302-2.1532021-2.3773501-.9065971-.3396301-2.6064987-.56604-5.0996971-.56604-2.719902,0-4.5331001.2264099-5.6663017.56604-1.0200005.3396199-1.5866013.9056599-1.5866013,1.8113201,0,.4528298.1133003.9056597.4533005,1.2452798s.7933006.6792402,1.3599014.9056602h.2266998c.906601.3396201,1.5864983,1.1320701,2.1531982,2.3773603.1133003.4528294.4533005,1.1321192.7933006,2.2641191.2266006.6793003.4533005,1.3585005.6799011,2.0378008-1.1332016,2.8301992-3.6264,9.0565996-3.8530998,9.5094004-.1133003.2263985-.6799011.9056988-1.0199013,0-.3400002-1.698101-5.7796974-14.9434009-5.6662979-16.6415105,1.1331978-.7924504,2.3797989.3396196,2.2664986-2.0377402-.2266998-3.169808-3.7397995-2.03773-5.5530014-2.1509399-1.8131981,0-6.1195984-.4528301-7.7061977.11321-1.0199013.4528301-1.5866013,1.35849-1.4731998,2.60377,1.9264984.6792498,2.8330994,1.2452798,3.8530998,3.1698098,2.6064987,5.3208003,4.6463013,13.4717002,6.912899,19.2452998.906601,2.3773003,2.2664986,6.1132011,3.5130997,8.1509018,1.0199013,1.6980972,2.6065025,1.6980972,3.8530998.1131973,1.8132019-2.3773003,4.0797005-7.6980991,5.2130013-10.7546997l2.1531982-5.2074986c1.6999016,4.4151001,3.3998032,8.7169991,5.2130013,12.9055996,0,0,0,.2263985.2266998.4528999.7932014,1.9244995,1.5865021,2.830101,2.3797989,2.830101.3400002,0,.6800003.0000992.906601-.3395996.2266998-.3395996.5667-.7924004.906601-1.8113022,1.5866013-3.6225986,3.0597992-7.4716988,4.6464005-11.434,1.5866013-3.9622002,3.0597992-8.1508989,4.6464005-12.4527893,0,0,0-.3396196.2266006-.5660295.5666962-1.5849104,1.1333008-2.4905705,1.9265976-2.9434004,0,0,1.2465973-.6792402,2.1531982-1.2452798.4533005.9056597,1.8132019.2264099,2.6064987.79245l1.0199051,2.4905696c-.3399048,6.5660801.3399963,14.1509809-.1133041,20.7169809-.2266006,2.7169991-1.133194,3.282999-3.5130997,3.1697998-1.2465973,1.698101.4533005,3.1697998,1.9264984,3.6226006,1.6999054.5660973,9.1795044.5660973,10.9927063,0,1.3598938-.3395996,2.7197952-1.0188026,2.4931946-2.830101-.2266998-2.0377998-2.3798981,0-3.286499-1.9246006-1.1332016-2.4904995,0-8.3773003-.3399963-11.3206997v-5.0943995c0-1.6981001-.2266006-7.9244905,1.0199966-8.8301501,1.3599014-.56604,3.1731033.56604,2.8330994-2.0377302-.2266006-1.4717-2.3797989-2.15095-3.6263962-2.2641599v.5660399ZM119.6470032,1.31777l-9.6320038.67925-13.8262024-.67925s-.6798935.22642-.9065933.56604c-1.3599014,1.8113201-1.5865021,6.9056597-1.0199051,9.1697903.6799011,2.2641993,2.2665024,1.9244995,4.1931,1.2452993-.1133957-1.4716997,0-4.8679194,1.8135986-5.2075396.7929993-.2264199,2.1529999.1131997,3.0590057,0,0,.79245.3399963,1.35849.4539948,2.0377302.5660019,6.6792097-.4539948,14.3773088,0,21.1698103l-1.246994,2.2641983h-2.4930038c-1.1333008,2.2641029.6800003,3.5093994,2.4930038,4.0754013,1.8129959.4528999,10.1989975.5661011,12.0129929,0,1.5860062-.5660019,3.2860031-1.9244995,2.1529999-3.7358017-2.6069946,0-3.5129929-.3395996-3.8529968-3.0565987-.7929993-6.6793003.4530029-14.717,0-21.5094595l.4530029-1.1320806c4.0799942-.56603,4.9860001,1.3584905,4.7599945,5.3207402,4.6460037,2.0377998,4.5330048-2.1508999,4.1930008-5.5471501,0-1.5849099-.6800003-5.3207599-2.7200012-5.4339598l.1130066-.22642ZM25.6998997,1.31777l-9.6327991.67925L2.2413099,1.31777s-.6799599.22642-.9066099.56604C-.0252209,3.6951301-.251873,8.7894697.314758,11.0536003c.679958,2.2641993,2.266532,1.9244995,4.1930721,1.2452993-.1133204-1.4716997,0-4.8679194,1.81322-5.2075396.7932897-.2264199,2.1531997.1131997,3.0598197,0,0,.79245.3399801,1.35849.4533005,2.0377302.5666294,6.6792097-.4533005,14.3773088,0,21.1698103l-1.2465906,2.2641983h-2.4931798c-1.1332598,2.2641029.6799603,3.5093994,2.4931798,4.0754013,1.81322.4528999,10.1994209.5661011,12.0126209,0,1.5865002-.5660019,3.2863998-1.9244995,2.1532001-3.7358017-2.6065006,0-3.5131016-.3395996-3.8531017-3.0565987-.7932987-6.6793003.4533005-14.717,0-21.5094595l.4533005-1.1320806c4.0797005-.56603,4.9862995,1.3584905,4.7597008,5.3207402,4.6464005,2.0377998,4.532999-2.1508999,4.1931-5.5471501,0-1.5849099-.6800003-5.3207599-2.7199001-5.4339598l.1133995-.22642ZM215.4080048,32.7895012s-1.3600006,0-1.5859985-.1132011c-1.0200043-.2265015-1.7000122-1.3584995-2.154007-1.9246006-.3399963-.566-.6799927-1.4716988-.9060059-2.9433994-.3399963-1.4717007-.5669861-2.4904995-.9069977-3.2830009-.2259979-.566-.4530029-1.0187988-.6799927-1.5848999-.2259979-.566-.5660095-.9055996-.9060059-1.2452984-.4539948-.4528008-1.0200043-.9056015-1.5869904-1.2453003-.5670013-.3395996-1.3600006-.6792011-2.0400085-.7924004,0,0-.1129913-.1131992-.1129913-.2264004l.1129913-.1131992c1.927002-.4528999,3.5130005-1.4717007,4.6470032-3.0566006,1.1329956-1.5848999,1.8130035-3.5094995,1.8130035-5.6604004,0-3.0566096-1.0200043-5.3207598-2.9470062-6.9056695-2.0399933-1.5849102-4.9859924-2.3773601-8.8390045-2.3773601-.7929993,0-2.2669983,0-4.3069916.11321-2.0390015,0-3.6260071.1132101-4.8730011.1132101h-5.098999c-1.2470093,0-2.2669983.2264099-2.8330078.5660299-.5670013.3396301-1.6999969,1.3585-1.8139954,2.0377402,0,.56604,1.473999-.2264102,2.4929962.9056597.7940063.6792502,1.927002,3.3962302,1.927002,3.3962302.1130066,1.9245501,0,5.9999495,0,9.1698494,0,3.9622002,0,7.2452011-.227005,9.5094013-.2259979,2.2640991-.2259979,3.282999-.4529877,3.6225986,0,.1132011-.4530029.7925014-1.3600006,1.2453003-.9060059.4527988-1.6999969-.1131992-2.2660065,1.4717007-.3399963.9057007,1.1329956,2.0377007,2.1529999,2.3773994,1.0200043.3395996,3.1730042.5660019,6.2330017.5660019s4.9860077-.2264023,6.1190033-.5660019c1.1340027-.3396988,1.5869904-1.018898,1.5869904-1.9245987,0-.7924004-.5669861-1.2452011-1.4729919-1.698101-.9069977-.4528008-1.3600006-1.0188007-1.4730072-1.132-.2269897-.2264996-.3399963-.9057007-.4539948-1.9246006,0-1.0187988-.1130066-2.4904995-.1130066-4.4151001v-3.6225986h1.2460022c1.927002,0,3.2870026.4527988,4.1940002,1.2452984.9060059.7924004,1.8130035,2.4905014,2.6060028,5.2075005,0,.3395996.227005.9057007.4530029,1.5848999,0,.5661011,2.4940033,5.6604023,2.8339996,6.1131992.5659943.5661011,1.3589935,1.0189018,2.2660065,1.2453003.9069977.2264023,1.9269867.3395996,3.1729889.4528008.4530029,0,4.0800018-.6791992,4.4199982-.7924004,1.0200043-.4528008,1.7000122-1.2453003,1.7000122-1.5848999s-.3400116-1.3585014-.5670013-1.698101v-.1131973ZM200.5619965,15.0158997c-1.1329956.9056005-2.9459991,1.2453003-5.4389954,1.2453003h-2.2669983v-7.4717302c0-.9056597,0-1.6981096.1139984-2.0377398,0-.2264099.5659943-.56603,1.0189972-.79245.4539948-.2264099,1.1340027-.3396201,2.0400085-.3396201,1.9269867,0,3.5130005.4528303,4.5329895,1.4717002,1.0200043.9056597,1.5870056,2.2641497,1.5870056,4.0754395,0,1.8113003-.5670013,3.1698008-1.6999969,4.0755005l.1129913-.2264004ZM148.9989929.978149l-9.6329956.905661-13.9389954-.22642s-.6800003.22642-.9070053.5660399c-1.3589935,1.8113201-1.3589935,7.0188701-.7929993,9.16977.6800003,2.2642002,2.3800049,1.8114004,4.1930008,1.1321001-.112999-1.4716997-.112999-4.8679099,1.6999969-5.3207402.7929993-.2264099,2.1529999,0,3.0599976,0,0,.79246.4530029,1.2452903.4530029,2.0377402.7940063,6.6792002,0,14.3773994.5670013,21.1697998l-1.246994,2.2642002-2.4929962.2263985c-1.0200043,2.1509018.7929993,3.3962021,2.6069946,3.8490028,1.8130035.4528999,10.1990051.2263985,12.0119934-.3395996,1.5870056-.5660019,3.2870026-2.0377007,2.0400085-3.8490028-2.6060028.1132011-3.5130005-.2264977-3.9660034-2.9433994-.9069977-6.5660992,0-14.7169991-.5670013-21.5094795l.4530029-1.1320701c4.0800018-.6792498,5.1000061,1.2452798,4.9869995,5.0943503,4.6459961,1.8112993,4.4190063-2.2641602,4.0789948-5.6603904-.1129913-1.5848999-.7929993-5.2075498-2.8329926-5.3207499l.2269897-.113211ZM180.5039978,26.7894993c-.1139984-1.6980991-1.3600006-3.0565987-3.0599976-2.2642002-1.6999969,2.8302002-.9069977,6.1132011-4.5330048,7.4717007-1.8129883.6793003-6.572998.9056988-7.9329987-.6791992-1.1329956-1.2453003-.6799927-7.0188999-.3399963-8.717001.9069977-.566,3.2859955-.6793003,3.5130005.566.227005,1.3584995-1.0200043,3.2830009,1.0200043,3.3963013.9069977,0,1.6999969,0,2.0399933-1.0188999.7929993-2.0377007,1.0200043-7.3585014.6800079-9.5094013-.227005-1.8113995-.6800079-2.8301992-2.6070099-2.717-2.4929962.2264004,0,3.3962011-1.3600006,4.0754004-.5659943.4528999-3.2859955.2264996-3.6259918-.4528008-.227005-1.9244995-.1130066-8.3773394,1.1329956-9.6226292,1.246994-1.1320701,6.9129944-.9056602,8.272995.4528298,1.1330109,1.1320806,0,4.5282998,1.7000122,4.6415,3.1729889.2264004,3.2859955-4.4150801,3.0599976-6.56603,0-1.4716897-.1139984-3.1698098-1.8130035-3.5094299-2.154007-.4528298-7.9329987-.2264199-10.4259949,0-1.3600006,0-3.4000092.67925-4.6470032.56604-1.2460022-.11321-2.8330078-.9056599-4.1930084-.79246-1.8129883.11321-3.2859955,2.3773599-4.1929932,3.7358499,1.5870056.79246,1.4729919,2.71699,1.6999969,4.30193.4530029,4.4151001.4530029,10.981101.227005,15.5094004,0,1.3584995-.5670013,5.7735996-1.2470093,6.6792011-.9069977,1.018898-2.0399933,1.3584976-1.6999969,3.1697998.3399963,1.6982002,4.5330048,1.3584976,6.0059967,1.2453003,1.0200043,0,2.2670135-.5660019,3.2870026-.5660019,1.5859985,0,3.6260071.4528008,5.2129974.5660019,2.2660065,0,9.7460022.3396988,11.3320007-.3395996,2.2669983-.9056015,2.4940033-7.5849018,2.3800049-9.7358017l.1139984.1131992Z"/>
</svg>