<?xml version="1.0" encoding="UTF-8"?>
<svg id="Layer_1" xmlns="http://www.w3.org/2000/svg" width="216" height="36" version="1.1" viewBox="0 0 216 36">
  <!-- Generator: Adobe Illustrator 29.6.1, SVG Export Plug-In . SVG Version: 2.1.1 Build 9)  -->
  <path d="M28.3122997,4.57412c-1.1952991.7607899-3.4773006,5.4341798-4.5639,6.8470798-1.738699,2.3909998-4.237999,7.0643997-4.5639992,7.9339008-.2173004,3.3691998-.4347,5.8689003.6519985,9.1294994.5433006,1.5214996,1.5213013,1.6301994,2.7166004,1.4127998.7607002,1.7390003-1.6299,3.8040009-3.0425987,3.9127007-2.0646.2173004-3.9120007-.4347992-5.6506004-.4347992-1.8473005,0-3.3685999,1.3041992-4.6726208-.6520996-.21733-.4347-.8693199-1.9563026-.7606592-2.3910027,0-.1086998.7606592-.8694992.8693295-.8694992.21733,0,1.0866499.2173996,1.5213499.1086998.2173004,0,.8692999,0,.9780006-.2173996.4345999-.3260002.4345999-2.0650005.4345999-2.6084003,0-1.847599,0-3.8038998-.2173004-5.5429001,0-.9780998-.1086998-2.282299-.5432997-3.3691998-.2174006-.7607002-4.8899903-7.2818003-6.30264-10.7596498-1.1953201-2.1736803-2.2819803-2.8257804-3.0426402-2.6084104-2.60797.9781504-1.521315-1.9563098-.54333-2.7170998C3.6452401.226769,9.4045095-.207966,11.7952003.770188c1.1953001.4347321,2.3905993,1.630252,2.9338999,2.7170919,0,0-.5433006.6521101-.7606001.6521101-.6520004.21736-2.934-.4347401-2.7167006.8694701.1087008,1.0868397,3.6947002,8.1512399,4.3466005,9.3468394h.3260002c.7607002-1.5215998,5.5419998-8.9121094,5.1072998-9.8902597-.2173004-.6521099-1.5212994-.5434198-2.0646-.5434198-.5433998-.6520998,1.7385998-2.8257799,2.6079006-3.043148,1.8473988-.543419,6.1939983-.326051,7.9326.543418,1.4126987.76079,1.4126987,1.5215701,1.5212994,1.8476301.5433998,1.4128897-1.0865993.3260498-2.7166004,1.3041999ZM53.6314011,30.9843006c-5.9766006,2.9344006-11.6272011,2.6084003-15.8652,0-.9780006-.6521015-4.1292992-3.3691998-5.4333-5.8689003-1.6299019-2.9344997-2.3906002-6.6296997-2.1733017-10.6511002.6520004-11.3030701,16.1912003-16.1938401,24.7757988-10.4335999,8.5845032,5.7602401,8.5845032,22.1714997-1.303997,27.0623002v-.1086998ZM52.3274002,15.6598997c-.4347-2.7171001-1.4127007-5.2168999-2.3907013-6.6297398-1.6298981-2.3910499-4.7812004-4.7820902-7.6064987-3.69525-1.9560013.7607899-3.2599983,3.69525-3.6946983,5.6515899-.4346008,1.9562998-.2173004,6.5209999.5433998,9.6728001.7605972,3.0431995,2.1732979,4.5647011,4.0205994,6.521101.6520004.7606983,1.5212975,1.3041992,2.2819977,1.6301994l.8693008.2173996h1.0866013c5.2159996-.3260994,5.9766006-7.4992008,4.8899994-13.3681002ZM92.8595963,4.6828098c-.5432968.5434103-2.0645981-.21737-2.8252945.5434103-.5433044.4347401-.9780045,2.1736798-1.0866013,2.8257799-.4347,4.8907995.2173004,11.0858002.2173004,16.0851994,0,10.9771004-13.6919022,10.1076012-13.6919022,10.1076012-11.7357979,0-11.8444977-9.5642014-11.8444977-9.5642014.5432968-6.6296997.2173004-15.9764891.2173004-17.0633292s-1.1953011-2.4997301-1.1953011-2.4997301c-1.0866013-.6521001-2.8253021.5434203-3.0425987-1.3042099-.2174034-1.73894.9779968-2.39104,2.3905983-2.825774,2.0647011-.652103,7.3893013-.652103,9.6711998-.434735,1.3040009.108684,3.5859985.869469,3.803299,2.3910391.4347,2.6084199-1.5213013,1.41289-3.0426025,2.0650001-1.4125977.9781499-.9779968,7.2818398-.8692932,9.02074,0,1.7390003.2173004,11.6292.3259964,12.1725998.8693008,6.0863018,9.4539032,5.5429001,11.0839005-.1086998l.2173004-19.1283302s-.5432968-1.5215797-.8693008-1.7389498c-.7606964-.5434103-1.7387009-.21736-2.6080017-.3260503-1.9560013-2.7170899,1.4126053-3.9126139,3.5859985-4.1299819,2.4993057-.217367,6.6286011-.326051,8.6932068.978152,1.0867004.65211,1.3039932,1.8476299.6520004,3.0431501l.2172928-.1086802ZM116.5490036,10.6604004c.2169952-3.6952305-.7610016-5.5428605-4.564003-4.9994402l-.4349976,1.0868397c.3259964,6.5209999-.7610016,14.2375994,0,20.5411997.3259964,2.7171001,1.1949997,3.0431995,3.6949997,2.9344997,1.0859985,1.7389011-.4350052,3.1518021-2.0650024,3.5866013-1.7389984.5433998-9.6709976.5433998-11.5179977,0-1.7391052-.4347992-3.4778061-1.7390022-2.3911057-3.6953011h2.3911057l1.1949997-2.282299c-.4350052-6.521101.5429993-13.8029003,0-20.2152305,0-.7607899-.326004-1.3042102-.4350052-1.9563098-.8689957.1086798-2.1729965-.21737-2.9337997,0-1.7385941.4347296-1.8472977,3.5865698-1.7385941,4.9994402-1.7387009.6520996-3.3687057.9782-3.9120026-1.1955109-.5433044-2.0649896-.4347-6.9557595.9779968-8.6947016.2173004-.326051.4347-.434735.8693008-.543419l13.257103.652103,9.1279984-.652103c1.8470001.108684,2.3909988,3.695251,2.6080017,5.2168212.2169952,3.3691998.3259964,7.2818098-4.0210037,5.32551l-.1079941-.1086998ZM155.451004,6.4217501c-.5429993.5434098-2.0650024-.21737-2.8249969.5434198-.5440063.4347301-.9780121,2.1736698-1.0870056,2.8257704-.4349976,4.8907595.2169952,11.0857592.2169952,16.0851603,0,10.9770985-13.6920013,10.1075993-13.6920013,10.1075993-11.734993,0-11.8439941-9.5641003-11.8439941-9.5641003.5429993-6.6296997.2169952-15.9765997.2169952-17.0633898,0-1.0868397-1.1949997-2.4997296-1.1949997-2.4997296-1.086998-.6521001-2.8249969.5434198-3.0429993-1.3042002-.2169952-1.84763.9780045-2.3910499,2.3909988-2.8257799,2.0650024-.6521101,7.3890076-.6521101,9.6710052-.4347401,1.3040009.10869,3.5859985.8694701,3.8029938,2.3910499.4349976,2.6084104-1.5209961,1.4128799-3.0419922,2.06499-1.4130096.9781499-.9779968,7.2818003-.8690033,9.0208006,0,1.7388992.2169952,11.6290989.326004,12.1724987.8690033,6.0863018,9.4530029,5.542902,11.0829926-.1085987l.2180023-19.1283903s-.5440063-1.5215802-.8699951-1.7389402c-.7600098-.5434198-1.7380066-.21737-2.6080017-.3260598-1.9560089-2.7170901,1.4129944-3.9126101,3.5859985-4.1299801,2.5-.21737,6.6289978-.32605,8.6940002.9781499,1.0859985.6521101,1.3040009,1.84763.6519928,3.0431499l.2170105-.1086798ZM182.9429932,31.0930004c-2.1729889,1.4129009-5.1069946,2.2823009-8.9099884,2.2823009-.9780121,0-2.5,0-4.6730042-.1086998-2.0650024,0-3.151001-.1086006-4.2380066-.1086006-.3259888,0-1.0859985-.1086998-2.0639954,0-4.1300049.8694-6.0859985.4347-6.6289978,0-.5429993-.4347992-.8690033-2.1737003,1.3040009-3.9127007.7610016-.5433998,1.3040009-.7607002,1.4129944-.8694.2170105-.3260994.4340057-1.5216007.5429993-3.6953011.1090088-2.1736984-.2169952-4.673399-.2169952-8.3685989,0-2.9345007,0-3.6953001-.1089935-5.4342003-.1090088-1.7389603.2169952-2.2823801-.1090088-4.3473701-.2169952-.8694696-.5429993-1.3042097-1.4120026-1.5215697-1.5219879-.4347401-2.8259888.21736-2.8259888-.5434203,0-.6521099,1.3040009-2.0649898,1.9559937-2.4997298,2.0650024-1.3042051,3.4779968-1.1955221,4.5639954-.86947,4.3470001,1.1955199,5.977005,0,7.8240051-.2173681,1.8470001,0,3.151001-.108684,3.9120026-.108684,3.4769897,0,6.0849915.760782,8.0410004,2.0649921,1.3040009.7607899,2.826004,3.2605197,2.826004,5.7602398,0,1.84758-.5440063,3.3691797-1.7390137,4.5646801-1.0869904,1.1955996-2.8249969,2.1737003-4.9989929,2.7171001h-.1080017.1080017c2.9340057.4348001,5.1080017,1.3042002,6.6289978,2.7170992,1.5209961,1.4129009,2.1730042,3.2605,2.2819977,5.6515999,0,.3260002,0,4.5647011-3.151001,6.5209999l-.2180023.3261013ZM167.7299957,13.3774996h2.0650024c2.0639954,0,4.0200043-.3259993,4.8899994-.8694992.8690033-.5434008,1.3040009-1.6302004,1.3040009-2.9344206,0-1.3042097-.4349976-2.3910499-1.3040009-3.0431499-.8699951-.6520996-2.7169952-.9781499-4.4559937-.9781499-.7600098,0-1.3040009,0-1.6300049.21736,0,0-.5429993.6521101-.6519928.7607899.1089935,0-.2170105.8694701-.2170105,1.6302605v5.2168093ZM177.6190033,24.0284996c-.1090088-1.6301994-.5440063-2.8257999-1.7389984-3.5865002-1.0870056-.7607994-3.5859985-1.0868988-6.4110107-1.0868988h-1.8479919v6.5209999c0,.543499,0,.978199.2180023,1.3043003.2169952.4347.5429993.7606983.9779968.9780998.5429993.2173996,1.1949921.3260994,2.1730042.3260994,1.9559937,0,3.9119873-.4347992,4.8899994-1.1956005.9779968-.7607994,1.5209961-3.0431004,1.5209961-3.3691998l.2180023.1086998ZM213.1519928,32.9406013c-1.6299896.6520996-8.8019867.4347-10.8659973.3260002-1.5219879,0-3.5859985-.5433998-4.9989929-.5433998-.9779968,0-2.0639954.4347992-3.0420074.5433998-1.4129944,0-5.4339905.4347992-5.7599945-1.1955032-.4340057-1.7388992.7610016-2.0649986,1.6300049-3.0430984.6519928-.8694992,1.1959991-5.1082001,1.1959991-6.4123993.2169952-4.3473015.2169952-10.651001-.2180023-14.8896508-.2169952-1.5215697-.1080017-3.3691998-1.6300049-4.1299798.7610016-1.3042099,2.2819977-3.4778839,3.9120026-3.5865682,1.4129944-.1086838,2.826004.7607863,4.0209961.7607863,1.1950073,0,3.151001-.543419,4.4550018-.543419,2.2819977-.108683,7.8240051-.3260511,9.8890076,0,1.6299896.326052,1.6299896,1.956311,1.7379913,3.3692009.1090088,2.0649903,0,6.5210297-2.9339905,6.3036597-1.6300049-.1086893-.4340057-3.3691998-1.5210114-4.4560394-1.3040009-1.3042002-6.6289978-1.5215702-7.9329987-.4347301-1.1949921,1.0868397-1.3040009,7.3905396-1.0859985,9.2381396.326004.6521006,2.8249969.7608004,3.3679962.4347,1.1959991-.7607994-1.0859985-3.6952,1.3040009-3.9125996,1.8480072-.1086998,2.2819977.8695002,2.5,2.6083994.2170105,2.1737003,0,7.1731005-.6519928,9.1294012-.326004.8694992-1.0870056.978199-1.9560089.978199-1.9559937-.2173996-.7609863-1.9563007-.9779968-3.2605-.2180023-1.1954994-2.5-1.0867996-3.3690033-.5433998-.3259888,1.6301994-.7609863,7.1730995.326004,8.3686008,1.3040009,1.5215988,5.8679962,1.3041992,7.6070099.6520996,3.3679962-1.3042011,2.7159882-4.4560013,4.345993-7.1731014,1.6300049-.7607994,2.826004.5434017,2.9340057,2.1737003.2179871,1.9563007,0,8.4772987-2.2820129,9.238102Z"/>
</svg>