<?xml version="1.0" encoding="UTF-8"?>
<svg id="Layer_1" xmlns="http://www.w3.org/2000/svg" width="284" height="36" version="1.1" viewBox="0 0 284 36">
  <!-- Generator: Adobe Illustrator 29.6.1, SVG Export Plug-In . SVG Version: 2.1.1 Build 9)  -->
  <path d="M12.4336004,30.4242992c.8975992,2.0207996,3.0293999,0,3.2537994,1.9085026.2244005,1.7961998-1.1219997,2.4696999-2.4684,2.8064995-1.7951994.4491005-9.20051.5612984-10.8835299,0-1.458621-.4490013-3.141642-1.9084015-1.907426-3.5923004,2.3562261,0,3.253846-.5613003,3.4782461-3.1434002.5610099-6.398901-.2244-13.9204006.1121998-20.4315405l-1.0098097-2.4697504c-.8976102-.6735697-2.5806361.4490504-2.8050391-1.23487C-.0207618,2.4712501,1.1012501,1.90995,2.33547,1.5731601c1.9074199-.5613,7.85413-.5613,9.8737299-.3367801,1.2342005.11226,3.2538004.7858299,3.5903997,2.2452301.3366003,2.58201-1.3463993,1.3471301-2.8049994,2.0206997-1.3464003.8980904-1.1220007,7.0724897-1.0098,8.7563906v5.0517988c.3365993,2.9188004-.6732006,8.7564011.4488001,11.2261009v-.1123009ZM52.040699,3.3693399c0,2.02071-1.4585991,1.1226201-2.468399,1.1226201-1.7952995.1122599-2.2440987,3.8168902-2.2440987,5.1640201-.4488029,7.9705191.3365974,16.5024195,0,24.4730215l-.2243996.7857971c-1.7952003,1.9084015-3.2538033.2245026-4.7124023-1.0102997-5.2734985-4.7149982-10.546999-11.2261982-15.7081985-16.2779999-.1122017-.1121998-.2244015-.4489994-.3366013-.5612984h-.5609989v5.6131001c0,2.1329994,0,5.3885994.4487991,7.4092999.448801,2.5820007,1.3463993,1.3470993,2.8050003,1.5716,1.3463993.2244987.7854004,2.4698009-.448801,3.143301-2.3561993,1.3471985-8.6394997,1.3471985-10.7712994-.2245026-.7854004-.5612984-1.1219997-1.9083977-.5609989-2.6942997.6731987-.8979988,2.3561993.8980999,3.478199-1.5716.5610008-1.2348995.6732006-3.2556.7854004-4.6026993.4487991-7.5214996-.6732006-16.0534105,0-23.4626701.2243996-1.9084441,2.0195999-2.5820121,3.4783001-1.3471361,4.3757992,4.7149761,8.4150982,9.7667058,12.903101,14.3695062.6731987.6735001,3.9270973,4.1536007,4.8246994,3.9291.2243996,0,.3366013-.3367996.3366013-.5613003.3365974-1.7961998-.1122017-4.7150002-.2244034-6.6233997,0-2.46978.2244034-5.0517902-.6731987-7.4092803-1.0098-1.01035-3.4782982.8980899-3.4782982-1.5716598,0-3.1433191,5.1612968-2.6942741,7.2930984-2.6942741.4487991,0,.8975983-.224522,1.2341995-.224522,1.4587021,0,4.9369011,1.010356,4.8246994,2.9187961v.3367798ZM81.998497,24.3621998c-.3365936,6.1744003-6.8442993,10.552599-12.566597,11.1139011-2.1317978.2244987-4.487999-.4490013-6.3955002-.2245026-1.0098.1123009-1.4585991.8981018-2.6927986.4490013-2.3562012-.7858009-6.1711006-8.4195995-5.7223015-10.7770996.1122017-.7858009,2.1319008-2.0207005,2.8050995-1.6839008.3366013.1123009,1.0098,2.1330013,1.3464012,2.6943016,1.7952003,2.6942997,8.3028984,6.511198,10.883503,3.0309982,1.7951965-2.4696999-1.0098038-4.8271999-3.1416016-5.612999-4.6003036-1.6839008-10.2104034-1.7961998-12.3422012-7.2970009-2.917202-7.5215292,4.3759003-15.1553052,11.6689987-15.3798282,2.1317978,0,4.6002045.561309,6.7321014.336789,1.1220016,0,3.4782028-1.347142,4.2635956,0,1.1220016,2.13296.6732025,6.5111598,0,8.8686503-.6731949,2.3574896-1.7951965,2.9187899-4.0391998,1.6838894.3366013-2.4697199,0-4.7149496-2.131897-6.3988695-3.1416016-2.3574903-6.6198959-.2245302-6.956501,3.4800997-.3365974,4.37817,2.0197029,3.8168697,5.049099,5.5007706,1.7952042.8980999,3.1416016,2.0207005,5.0491028,2.9188004,3.0293961,1.4593983,8.3029022,2.6942997,8.0784988,7.0724983l.1121979.2245007ZM103.8779984,11.5643997c.223999-3.8168597-.7859955-5.7252998-4.7126999-5.1639996l-.4487991,1.1226196c.3366013,6.7356806-.7854004,14.7062798,0,21.2173805.3366013,2.8066006,1.2341995,3.1432991,3.8144989,3.0310993,1.1220016,1.7961998-.447998,3.2556-2.1309967,3.7046013-1.7957001.5612984-9.9864044.5612984-11.8937988,0-1.7953033-.4490013-3.5904999-1.7961998-2.4685059-3.8169003h2.4685059l1.2341995-2.3575001c-.4487991-6.7357006.560997-14.2572002,0-20.8805904,0-.78583-.3366013-1.3471403-.4487991-2.02071-.8976059.1122599-2.2441025-.2245202-3.0295029,0-1.7951965.4490499-1.907402,3.7045994-1.7951965,5.1639996-1.7952042.6736002-3.4782028,1.0103998-4.0392075-1.2347994-.560997-2.1330099-.4487991-7.1847804,1.0098038-8.9809604.2244034-.33678.4487991-.449046.8975983-.561308l13.6885986.673568,9.4253006-.673568c1.9070053.112262,2.4680023,3.8168879,2.6920013,5.388548.2249985,3.4801002.336998,7.5215201-4.151001,5.5008197l-.1119995-.1122999ZM138.996994,33.6799011c-1.5709991.6735992-6.17099.1122971-8.0789948,0-2.0189972,0-7.1809998.7859001-7.4049988-2.357502-.1119995-2.357399,1.9069977-.8979988,3.1419983-1.6838989.1119995-1.9083996-.897995-6.5111008-3.1419983-6.8479004-1.1220016-.2245998-5.8339996-.2245998-6.7320023.2245007-.223999,0-.4489975.2244987-.560997.4489994-.5610046.8980999-1.5709991,4.827301-1.2340012,5.8376007.4489975,1.3471985,3.7020035-.6735001,2.8050003,2.5819988-.6730042,2.3575001-4.487999,1.5716991-6.1709976,1.5716991-1.7960052,0-3.8150024.5613022-5.3860016-.5612984-1.1220016-.6735992-1.6829987-3.0310993-.223999-3.2556,1.6829987-.2245007,1.7949982.6735992,3.0289993-1.0102997,2.9169998-3.9292011,5.4980011-12.5733013,7.5179977-17.4006004,1.2340012-2.9187498,3.1409988-7.74599,5.0490036-10.1034801,1.2339935-1.571664,2.9169998-1.459402,4.0389938.11226,1.3460007,2.0207001,2.8050003,5.6130701,3.7020035,7.9705597,2.3569946,5.7253599,4.3760071,13.5836601,7.1809998,18.7476597,1.0099945,1.9084015,2.0200043,2.4696999,4.0399933,3.143301.1119995,1.2349014-.4489899,2.1329994-1.5709991,2.5820007ZM120.7080002,12.1257s-.4489975,0-.560997.3367996c-.3370056.5613003-2.4680023,5.8376007-2.3560028,6.2867012,1.3460007,1.1225986,3.2539978.3366985,4.8239975.5612984.2249985,0,.3370056-.2245998.3370056-.4490986.336998-1.5716-1.9070053-5.0517006-2.2440033-6.6234007v-.1122999ZM171.9839935,18.9736996c-.3369904,3.3677998-.7849884,6.398901-.223999,9.8789997-2.4689941,4.1537018-8.0789948,5.9498024-12.5670013,6.6234016-12.0049896,1.6838989-20.7569885-6.8479004-19.8600006-18.8599014.6740112-9.5422297,7.6300049-15.8288675,17.1670074-15.9411285,1.7949982,0,9.4250031,1.122619,10.5469971,2.469749,1.2340088,1.4593999,1.9080048,9.3176796,0,10.5525801-.5610046.3367996-2.8049927.6736002-3.2539978.1122999-.223999-2.5820999.1130066-5.8376398-1.9069977-7.7460799-1.5709991-1.4594002-4.1520081-1.6839199-6.1710052-1.4594002-10.9960022,1.6839199-8.9759979,30.9841819,3.5899963,25.1465793,1.9080048-.8980999,3.8150024-4.8272991,1.6830139-6.1743984-1.1220093-.7858009-3.4780121,1.1225986-3.029007-1.9084015.223999-1.3471985,2.8050079-2.1329994,3.927002-2.2452984,1.2339935-.2245007,9.6490021-.7858009,10.0979919-.3368015v-.1121998ZM207.2149963,33.5676994s-.6729889,1.0102997-1.6829987,1.5716019c-.3359985.1122971-3.927002.7859001-4.2630005.7859001-1.2350006-.1123009-2.2440033-.1123009-3.1419983-.4491005-.897995-.2245026-1.5709991-.6735992-2.2440033-1.2349014-.4489899-.4490013-2.9169922-5.5007992-2.8049927-6.0620995-.2250061-.6735001-.3370056-1.2348995-.4490051-1.5716-.7850037-2.5820999-1.6829987-4.2660007-2.5809937-5.0517998-.8970032-.7858009-2.2440033-1.2348995-4.151001-1.2348995h-1.2340088v3.5923996c0,1.9083996,0,3.3677998.1119995,4.2658997s.223999,1.5716991.4490051,1.9085007c0,.1121998.5610046.6735001,1.4580078,1.1225986.897995.4490013,1.4589996.8980999,1.4589996,1.6839008,0,.898098-.5610046,1.571701-1.5709991,1.9084015-1.0100098.3367996-3.029007.5613976-6.0590057.5613976-3.029007,0-5.048996-.2245979-6.1710052-.5613976-1.0099945-.3367004-2.4680023-1.4594002-2.1320038-2.3574028.5610046-1.6839981,1.3470001-1.0103989,2.2440033-1.4593983.8980103-.4491005,1.2350006-1.1226997,1.3470001-1.2349014.223999-.3367996.3359985-1.2348995.4490051-3.5923996.1119995-2.3575001.223999-5.5007992.223999-9.4298992V7.6352801s-1.121994-2.6942701-1.9069977-3.3678403c-1.1220093-1.0103598-2.5810089-.3367898-2.4690094-.8980999,0-.6735599,1.1220093-1.6839199,1.7950134-2.0207.673996-.33678,1.5709991-.561308,2.8049927-.561308h5.0500031c1.2339935,0,2.8049927,0,4.7119904-.112261,2.0200043,0,3.3660126-.112262,4.2640076-.112262,3.8150024,0,6.7319946.785831,8.7510071,2.357491,2.019989,1.57166,2.9179993,3.8168898,2.9179993,6.8479505,0,2.1329498-.5610046,4.0414495-1.6830139,5.6130495-1.121994,1.5716991-2.6929932,2.5820007-4.6009979,3.0310993l-.1119995.1121998.1119995.2246017c.7860107.2244987,1.4589996.4489994,2.0200043.785799s1.121994.7858009,1.5709991,1.2348995c.3359985.3368015.6730042.7858009.8970032,1.2348003.2250061.4491005.4490051,1.0104008.673996,1.571701.223999.6735992.5610046,1.7961998.8970032,3.1432991.3370056,1.3472004.6730042,2.3575001.897995,2.9188004.3359985.5613003,1.1220093,1.6838989,2.1320038,1.9085007.223999,0,1.3460083,0,1.5700073.1121998.2249908.112299.5609894,1.3472004.4489899,1.6839008v.2245979ZM192.1799927,14.3710003c1.1220093-.8980999,1.6830139-2.1330004,1.6830139-4.0414,0-1.6839705-.5610046-3.0311003-1.5709991-4.0414605-1.0090027-.8980899-2.5800018-1.3471298-4.4880066-1.3471298-.8970032,0-1.6829987,0-2.0189972.3367801-.4490051.2245197-1.0100098.5613098-1.0100098.78583,0,.3367801,0,1.1226101-.1119995,2.0207v7.4092798h2.2440033c2.4680023,0,4.2630005-.4490995,5.3850098-1.2348995l-.1120148.1122999ZM239.529007,34.9147987c-1.5710144.6736031-6.1710052.1123009-8.0780029,0-2.0200043,0-7.1809998.7858009-7.4060059-2.3574982-.1119995-2.3575001,1.9080048-.8980999,3.1419983-1.6839008.1119995-1.9083996-.8970032-6.5112-3.1419983-6.8479996-1.121994-.2245007-5.8339996-.2245007-6.7319946.2245998-.223999,0-.447998.2245007-.5610046.4489994-.5610046.8980999-1.5699921,4.827301-1.2339935,5.8376007.4489899,1.3470993,3.7029877-.6735992,2.8049927,2.5819988-.6730042,2.357502-4.4879913,1.571701-6.1710052,1.571701-1.7949982,0-3.8149872.5612984-5.3859863-.5612984-1.1220093-.6736031-1.6830139-3.0311012-.223999-3.2556019,1.6829987-.2245007,1.7949982.6736012,3.0299988-1.0103989,2.9169922-3.9291,5.496994-12.5732002,7.5169983-17.4005013,1.2339935-2.9187698,3.1419983-7.7460198,5.048996-10.1035097,1.2339935-1.571658,2.9169922-1.4593959,4.0390015.1122601,1.3470001,2.02071,2.8049927,5.61307,3.7030029,7.9705501,2.3559875,5.7253008,4.3759918,13.5836,7.1809998,18.7477007,1.0099945,1.9083996,2.0189972,2.4696999,4.0390015,3.143301.1119995,1.2348976-.4490051,2.1329994-1.5709991,2.5819969ZM221.2400055,13.3606005s-.447998,0-.5610046.3367996c-.3359985.5613003-2.4680023,5.8375998-2.3560028,6.2865992,1.3470001,1.1227016,3.2539978.3368015,4.8249969.5613003.223999,0,.3359985-.2244987.3359985-.4489994.3370056-1.571701-1.9069977-5.0517998-2.243988-6.6233997v-.1122999ZM283.848999,33.1185989c-.5610046,1.571701-1.7950134,2.1329994-3.2539978,2.5820007-2.1319885.6735992-4.4880066,0-9.0880127,0-2.9179993.1123009-5.1619873-3.9291-3.2539978-4.041399,1.3460083-.1121998,2.4680176-.5613003,3.1419983-2.4696999.7850037-2.3575001.223999-7.0725002.1119995-9.7667999,0-1.7962017,0-3.7046013-.2249756-5.5008011l-.5610046.8980999c-2.8050232,5.1639996-5.2730103,11.5629005-7.9660034,16.7270012-.3370056.7858009-1.6830139,2.8064995-2.4680176,2.6941986-1.1219788-.1121979-2.243988-4.4904003-2.5809937-5.612999-1.2340088-3.2556-2.6929932-6.6235008-3.9269867-9.8789997-.4490051-.8980999-2.9170074-6.7357006-3.5910034-6.7357006-.223999.1121998-.223999.3367996-.223999.5612993-.3370056,2.5820007,0,6.2866011,0,8.9809008,0,2.0207005,0,7.8582993,1.6829987,8.9808998.6730042.4491005,1.9069977.4491005,2.1320038,1.6839008.223999.898098-1.9080048,3.1433983-2.6930084,3.4800987-1.2339935.3367996-2.5809937,0-3.8150024-.1121979-1.9069977-.1123009-4.0390015.2244987-5.6100006-1.0104027-1.121994-.7858009-2.5809937-2.9187984-1.121994-4.1536999,1.121994.7859001,2.3560028.8980999,3.1419983-.3366985,1.5709991-2.3575001.4490051-10.5526009.3359985-13.5837002-.1119995-3.0310001.3370056-6.1743002.1130066-9.3176703-.1130066-2.80653-1.6829987-2.4697504-1.6829987-2.4697504-1.6829987-1.1226099-.7860107-2.8065298.7849884-3.3678398,1.6829987-.673569,5.9470062-.898092,7.7420044-.11226.7850037.3367801,2.1320038,1.3471299,2.5800018,2.13296,1.5709991,2.9187999,2.4690094,6.3989105,3.7029877,9.5422602,1.4590149,3.5923004,3.7030029,6.7357006,4.6000061,10.6648006.8980103-1.571701,1.4590149-3.4801006,2.2440186-5.1640015,1.6829834-3.7046995,3.2539978-7.4092989,4.9369812-11.1139092.5610046-1.3471298,1.90802-4.4904501,2.9169922-5.2762802,1.4590149-1.1226159,6.8450012-1.4594009,8.4160156-.4490498.6730042.4490498,3.1409912,1.90845,2.5799866,3.5923702-.5609741,1.5716596-3.1409912.2245197-3.8150024,1.9084396l-.223999,6.3989305v6.7356987c.223999,3.143301-.6729736,5.9498005.1119995,9.0931015,0,.2245998,1.0100098,2.3575001,1.90802,2.3575001,1.9069824,0,3.5899963-.2245007,2.9169922,1.5716991v-.1123009Z"/>
</svg>